<svg width="130" height="49" viewBox="0 0 130 49" fill="none" xmlns="http://www.w3.org/2000/svg">
<g clip-path="url(#clip0)">
<path d="M67.0138 46.5704L66.2829 28.4085C66.2739 28.1805 66.0788 28.0061 65.851 28.0219L62.0328 28.2876C61.8288 28.3015 61.6673 28.467 61.6574 28.6712L60.764 47.1215C60.7521 47.3683 60.9621 47.5685 61.2087 47.5427L66.6523 46.9896C66.8633 46.9668 67.0227 46.7835 67.0138 46.5704Z" fill="url(#paint0_linear)"/>
<path d="M82.7878 3.12089L70.1268 12.0566C69.9594 12.1746 69.9069 12.3986 70.004 12.579L72.0523 16.3713C72.1612 16.5725 72.4148 16.6439 72.6119 16.5279L85.7394 8.80644C85.9226 8.6984 85.991 8.46646 85.8959 8.27615L83.3811 3.26957C83.2712 3.04952 82.9899 2.97915 82.7878 3.12089Z" fill="url(#paint1_linear)"/>
<path d="M60.2044 26.5084L56.7576 19.9C56.4872 19.3965 56.0009 19.0456 55.4383 18.9455L50.276 18.0504C49.8214 17.9701 49.4777 18.4538 49.7026 18.8573L52.5264 24.0105C52.6561 24.2435 52.873 24.415 53.1295 24.4883L60.2044 26.5084Z" fill="url(#paint2_linear)"/>
<path d="M40.6052 0.718185L37.0395 6.83293C36.9256 7.0282 36.994 7.27897 37.1921 7.389L54.5964 17.076C54.7945 17.1861 55.0441 17.1117 55.1491 16.9105L57.3667 12.6781C57.4598 12.5006 57.4083 12.2806 57.2449 12.1636L41.1886 0.594284C40.9954 0.454524 40.725 0.512014 40.6052 0.718185Z" fill="url(#paint3_linear)"/>
<path d="M67.1515 11.8485L60.5095 11.7146C60.2113 11.7087 59.934 11.8683 59.7894 12.129L56.1465 18.7007C56.0138 18.9395 56.0118 19.23 56.1405 19.4708L59.6913 26.107C59.8369 26.3785 60.1232 26.5431 60.4312 26.5312L67.0514 26.2794C67.3357 26.2685 67.5932 26.1079 67.7289 25.8572L71.1182 19.5769C71.243 19.3459 71.247 19.0684 71.1301 18.8335L67.8547 12.2905C67.721 12.0259 67.4506 11.8544 67.1515 11.8485ZM64.3792 22.5178C62.6023 22.6407 61.0582 21.2421 60.9304 19.3925C60.8016 17.5429 62.1388 15.9441 63.9156 15.8202C65.6925 15.6973 67.2366 17.0959 67.3644 18.9455C67.4922 20.7951 66.1551 22.3949 64.3792 22.5178Z" fill="#44C540"/>
<path d="M86.5625 20.9081C85.9167 20.3976 84.8549 19.9793 83.3791 19.6532C82.7492 19.5125 82.2639 19.3757 81.9222 19.2458C81.5805 19.115 81.3358 18.9663 81.1892 18.7978C81.0426 18.6293 80.9693 18.4152 80.9693 18.1545C80.9693 17.7094 81.1595 17.3586 81.5389 17.1038C81.9182 16.8491 82.4402 16.7212 83.1018 16.7212C84.122 16.7212 85.1006 17.0186 86.0375 17.6143C86.2445 17.7461 86.5199 17.6648 86.6199 17.4408L87.1102 16.3525C87.1884 16.179 87.1359 15.9748 86.9834 15.8608C86.5724 15.5546 86.0573 15.3038 85.4383 15.1075C84.6836 14.8687 83.8991 14.7487 83.085 14.7487C82.1728 14.7487 81.3695 14.9033 80.6752 15.2136C79.9799 15.5228 79.4401 15.9501 79.0548 16.4932C78.6695 17.0364 78.4764 17.6559 78.4764 18.3508C78.4764 18.9812 78.615 19.5105 78.8914 19.9397C79.1677 20.3689 79.6075 20.7297 80.2107 21.023C80.8129 21.3164 81.6191 21.5662 82.6284 21.7724C83.5297 21.9677 84.1566 22.1689 84.5092 22.3751C84.8619 22.5812 85.0381 22.8697 85.0381 23.2384C85.0381 23.6517 84.845 23.9749 84.4597 24.2078C84.0744 24.4417 83.5237 24.5577 82.8067 24.5577C81.5834 24.5577 80.4672 24.2544 79.4579 23.6468C79.2519 23.5229 78.9845 23.6071 78.8864 23.8262L78.4001 24.9066C78.3189 25.088 78.3803 25.3011 78.5467 25.4111C79.0261 25.7283 79.6005 25.984 80.2671 26.1783C81.0704 26.4122 81.9063 26.5282 82.775 26.5282C84.2735 26.5282 85.4403 26.216 86.2762 25.5915C87.1122 24.9671 87.5301 24.1116 87.5301 23.0253C87.5311 22.1253 87.2082 21.4195 86.5625 20.9081Z" fill="url(#paint4_linear)"/>
<path d="M97.5784 15.8401C96.883 15.2096 95.9114 14.8944 94.6634 14.8944H89.7904C89.5675 14.8944 89.3873 15.0748 89.3873 15.2979V16.4308C89.3873 16.6538 89.5675 16.8342 89.7904 16.8342H94.3376C94.9784 16.8342 95.4558 16.97 95.7708 17.2416C96.0857 17.5132 96.2432 17.9315 96.2432 18.4965C96.2432 19.5937 95.6083 20.1429 94.3376 20.1429L89.7904 20.1419C89.5675 20.1419 89.3873 20.3223 89.3873 20.5453V25.9811C89.3873 26.2041 89.5675 26.3845 89.7904 26.3845H91.5247C91.7475 26.3845 91.9278 26.2041 91.9278 25.9811V22.4692C91.9278 22.2462 92.108 22.0658 92.3309 22.0658H94.6634C95.9114 22.0658 96.883 21.7506 97.5784 21.1202C98.2727 20.4898 98.6203 19.6106 98.6203 18.4806C98.6203 17.3506 98.2727 16.4705 97.5784 15.8401Z" fill="url(#paint5_linear)"/>
<path d="M102.926 15.1303L98.0201 25.8126C97.8973 26.0802 98.0924 26.3845 98.3866 26.3845H100.049C100.21 26.3845 100.356 26.2883 100.419 26.1406L101.3 24.0869C101.364 23.9392 101.509 23.843 101.671 23.843H106.481C106.642 23.843 106.788 23.9392 106.851 24.0869L107.733 26.1406C107.796 26.2883 107.942 26.3845 108.103 26.3845H109.716C110.011 26.3845 110.206 26.0802 110.083 25.8126L105.177 15.1303C105.112 14.9876 104.968 14.8954 104.811 14.8954H103.292C103.134 14.8954 102.991 14.9866 102.926 15.1303ZM102.476 21.3571L103.705 18.4836C103.845 18.1575 104.307 18.1575 104.446 18.4836L105.675 21.3571C105.789 21.6227 105.594 21.9191 105.305 21.9191H102.847C102.557 21.9191 102.362 21.6227 102.476 21.3571Z" fill="url(#paint6_linear)"/>
<path d="M116.452 16.7856C116.983 16.7856 117.496 16.8729 117.991 17.0463C118.356 17.1752 118.723 17.3605 119.091 17.6014C119.299 17.7372 119.578 17.6589 119.68 17.4329L120.17 16.3465C120.246 16.1761 120.196 15.9748 120.05 15.8599C119.647 15.5456 119.158 15.2919 118.585 15.0986C117.89 14.8647 117.163 14.7487 116.403 14.7487C115.241 14.7487 114.229 14.9906 113.366 15.4743C112.504 15.958 111.841 16.6449 111.379 17.536C110.918 18.4271 110.687 19.4589 110.687 20.6325C110.687 21.8061 110.918 22.8379 111.379 23.729C111.841 24.6201 112.503 25.31 113.366 25.7987C114.229 26.2873 115.241 26.5322 116.403 26.5322C117.163 26.5322 117.891 26.4152 118.585 26.1823C119.158 25.99 119.647 25.7362 120.05 25.421C120.197 25.3061 120.247 25.1048 120.17 24.9353L119.68 23.849C119.578 23.623 119.298 23.5437 119.091 23.6805C118.723 23.9223 118.356 24.1077 117.991 24.2355C117.496 24.409 116.983 24.4962 116.452 24.4962C115.431 24.4962 114.647 24.1681 114.098 23.51C113.549 22.8528 113.276 21.8943 113.276 20.6335C113.276 19.3737 113.55 18.4172 114.098 17.765C114.647 17.1108 115.43 16.7856 116.452 16.7856Z" fill="url(#paint7_linear)"/>
<path d="M130 16.4635V15.2979C130 15.0748 129.82 14.8944 129.597 14.8944H122.489C122.267 14.8944 122.086 15.0748 122.086 15.2979V25.9801C122.086 26.2031 122.267 26.3835 122.489 26.3835H129.597C129.82 26.3835 130 26.2031 130 25.9801V24.8144C130 24.5914 129.82 24.411 129.597 24.411H124.965C124.742 24.411 124.561 24.2306 124.561 24.0076V21.93C124.561 21.707 124.742 21.5266 124.965 21.5266H129.272C129.495 21.5266 129.675 21.3462 129.675 21.1232V19.9575C129.675 19.7345 129.495 19.5541 129.272 19.5541H124.965C124.742 19.5541 124.561 19.3737 124.561 19.1507V17.2684C124.561 17.0454 124.742 16.865 124.965 16.865H129.597C129.819 16.8669 130 16.6865 130 16.4635Z" fill="url(#paint8_linear)"/>
<path d="M5.73811 15.1303L0.832374 25.8126C0.709557 26.0802 0.904678 26.3845 1.19884 26.3845H2.86083C3.02228 26.3845 3.16787 26.2883 3.23126 26.1406L4.11277 24.0869C4.17616 23.9392 4.32176 23.843 4.4832 23.843H9.29287C9.45431 23.843 9.59991 23.9392 9.6633 24.0869L10.5448 26.1406C10.6082 26.2883 10.7538 26.3845 10.9152 26.3845H12.5287C12.8229 26.3845 13.018 26.0802 12.8952 25.8126L7.98843 15.1303C7.92306 14.9876 7.77945 14.8954 7.62196 14.8954H6.10359C5.94611 14.8954 5.80348 14.9866 5.73811 15.1303ZM5.28844 21.3571L6.5176 18.4836C6.65726 18.1575 7.11881 18.1575 7.25847 18.4836L8.48762 21.3571C8.60153 21.6227 8.40641 21.9191 8.11719 21.9191H5.65888C5.36966 21.9191 5.17454 21.6227 5.28844 21.3571Z" fill="url(#paint9_linear)"/>
<path d="M14.5532 26.3835H21.6607C21.8836 26.3835 22.0638 26.2031 22.0638 25.9801V24.8144C22.0638 24.5914 21.8836 24.411 21.6607 24.411H17.0284C16.8055 24.411 16.6252 24.2306 16.6252 24.0076V21.93C16.6252 21.707 16.8055 21.5266 17.0284 21.5266H21.3359C21.5587 21.5266 21.739 21.3462 21.739 21.1232V19.9575C21.739 19.7345 21.5587 19.5541 21.3359 19.5541H17.0284C16.8055 19.5541 16.6252 19.3737 16.6252 19.1507V17.2684C16.6252 17.0454 16.8055 16.865 17.0284 16.865H21.6607C21.8836 16.865 22.0638 16.6846 22.0638 16.4615V15.2959C22.0638 15.0729 21.8836 14.8925 21.6607 14.8925H14.5532C14.3304 14.8925 14.1501 15.0729 14.1501 15.2959V25.9781C14.1501 26.2031 14.3304 26.3835 14.5532 26.3835Z" fill="url(#paint10_linear)"/>
<path d="M31.2236 22.0955C30.9869 21.9022 31.0324 21.5365 31.3108 21.4116C31.7802 21.2005 32.1695 20.9081 32.4785 20.5334C32.9619 19.9466 33.2035 19.2191 33.2035 18.3498C33.2035 17.2307 32.8589 16.3753 32.1695 15.7835C31.4801 15.1918 30.4619 14.8954 29.1159 14.8954H24.2428C24.02 14.8954 23.8397 15.0758 23.8397 15.2988V16.4268C23.8397 16.6498 24.02 16.8302 24.2428 16.8302H28.7415C29.4685 16.8302 29.9954 16.9601 30.3213 17.2099C30.6472 17.4597 30.8096 17.8621 30.8096 18.4162C30.8096 18.9594 30.6472 19.3588 30.3213 19.6136C29.9954 19.8693 29.4685 19.9932 28.7415 19.9932H24.2428C24.02 19.9932 23.8397 20.1736 23.8397 20.3966V25.9811C23.8397 26.2041 24.02 26.3845 24.2428 26.3845H25.9445C26.1673 26.3845 26.3476 26.2041 26.3476 25.9811V22.3225C26.3476 22.0995 26.5278 21.9191 26.7507 21.9191H27.6015C27.9491 21.9191 28.2364 21.9815 28.4642 22.1064C28.692 22.2313 28.8871 22.4355 29.0505 22.718L30.9225 26.1733C30.9928 26.3032 31.1285 26.3845 31.2771 26.3845H33.1263C33.4323 26.3845 33.6265 26.0564 33.4799 25.7878L31.9486 22.9787C31.7317 22.608 31.49 22.3136 31.2236 22.0955Z" fill="url(#paint11_linear)"/>
<path d="M45.399 17.5102C44.9434 16.6251 44.2946 15.9431 43.4528 15.4654C42.6109 14.9876 41.6204 14.7487 40.4814 14.7487C39.3424 14.7487 38.3509 14.9876 37.51 15.4654C36.6681 15.9431 36.0204 16.6251 35.5638 17.5102C35.1082 18.3954 34.8794 19.4361 34.8794 20.6305C34.8794 21.8259 35.1072 22.8657 35.5638 23.7508C36.0194 24.636 36.6681 25.3209 37.51 25.8046C38.3509 26.2883 39.3424 26.5302 40.4814 26.5302C41.6204 26.5302 42.6119 26.2883 43.4528 25.8046C44.2937 25.3209 44.9424 24.637 45.399 23.7508C45.8546 22.8657 46.0834 21.8249 46.0834 20.6305C46.0834 19.4361 45.8546 18.3964 45.399 17.5102ZM42.7367 23.5486C42.1879 24.2227 41.4362 24.5587 40.4814 24.5587C39.5256 24.5587 38.7768 24.2217 38.234 23.5486C37.6913 22.8756 37.4199 21.9022 37.4199 20.6315C37.4199 19.3608 37.6883 18.3904 38.2261 17.7223C38.7639 17.0543 39.5147 16.7202 40.4814 16.7202C41.4471 16.7202 42.2018 17.0543 42.7446 17.7223C43.2874 18.3904 43.5587 19.3598 43.5587 20.6315C43.5587 21.9022 43.2844 22.8746 42.7367 23.5486Z" fill="url(#paint12_linear)"/>
<path d="M77.1383 39.9432H81.3636C81.5864 39.9432 81.7667 39.7628 81.7667 39.5398V38.4237C81.7667 38.2007 81.5864 38.0203 81.3636 38.0203H77.1383C76.9154 38.0203 76.7351 38.2007 76.7351 38.4237V39.5398C76.7351 39.7628 76.9154 39.9432 77.1383 39.9432Z" fill="url(#paint13_linear)"/>
<path d="M87.6183 32.0958L82.7126 42.778C82.5897 43.0457 82.7849 43.35 83.079 43.35H84.741C84.9025 43.35 85.0481 43.2538 85.1115 43.1061L85.993 41.0524C86.0563 40.9047 86.2019 40.8085 86.3634 40.8085H91.173C91.3345 40.8085 91.4801 40.9047 91.5435 41.0524L92.425 43.1061C92.4884 43.2538 92.634 43.35 92.7954 43.35H94.4089C94.703 43.35 94.8982 43.0457 94.7753 42.778L89.8696 32.0958C89.8042 31.9531 89.6606 31.8609 89.5031 31.8609H87.9848C87.8273 31.8609 87.6847 31.9521 87.6183 32.0958ZM87.1686 38.3226L88.3978 35.4491C88.5374 35.123 88.999 35.123 89.1387 35.4491L90.3678 38.3226C90.4817 38.5882 90.2866 38.8846 89.9974 38.8846H87.5391C87.2498 38.8846 87.0547 38.5882 87.1686 38.3226Z" fill="url(#paint14_linear)"/>
<path d="M101.45 38.7706H102.891C103.114 38.7706 103.294 38.951 103.294 39.174V40.979C103.294 41.1654 103.167 41.3309 102.985 41.3715C102.467 41.4845 101.946 41.542 101.421 41.542C100.26 41.542 99.3909 41.2159 98.8154 40.5647C98.24 39.9125 97.9527 38.9242 97.9527 37.599C97.9527 35.0238 99.0601 33.7363 101.275 33.7363C101.861 33.7363 102.407 33.8205 102.911 33.989C103.292 34.1159 103.681 34.3032 104.078 34.551C104.286 34.6809 104.561 34.5986 104.66 34.3736L105.139 33.2892C105.216 33.1128 105.158 32.9086 105.003 32.7956C104.584 32.4913 104.082 32.2455 103.498 32.0582C102.787 31.8302 102.019 31.7162 101.195 31.7162C100.022 31.7162 98.9957 31.9551 98.1172 32.4328C97.2376 32.9106 96.5621 33.5925 96.0897 34.4777C95.6172 35.3628 95.3815 36.4036 95.3815 37.598C95.3815 38.8152 95.6202 39.8659 96.0976 40.751C96.575 41.6362 97.2594 42.3151 98.1498 42.788C99.0403 43.2608 100.093 43.4967 101.309 43.4967C102.102 43.4967 102.872 43.4203 103.622 43.2687C104.269 43.1378 104.842 42.9614 105.343 42.7414C105.486 42.6779 105.576 42.5322 105.576 42.3756V37.4146C105.576 37.1916 105.396 37.0112 105.173 37.0112H101.452C101.229 37.0112 101.049 37.1916 101.049 37.4146V38.3682C101.047 38.5892 101.227 38.7706 101.45 38.7706Z" fill="url(#paint15_linear)"/>
<path d="M115.14 39.061C114.903 38.8677 114.949 38.502 115.227 38.3771C115.697 38.166 116.086 37.8736 116.395 37.4989C116.878 36.9121 117.12 36.1845 117.12 35.3153C117.12 34.1962 116.775 33.3408 116.086 32.749C115.397 32.1573 114.378 31.8609 113.032 31.8609H108.159C107.937 31.8609 107.756 32.0413 107.756 32.2643V33.3973C107.756 33.6203 107.937 33.8007 108.159 33.8007H112.658C113.385 33.8007 113.912 33.9256 114.238 34.1754C114.564 34.4252 114.726 34.8276 114.726 35.3817C114.726 35.9248 114.564 36.3243 114.238 36.579C113.912 36.8348 113.385 36.9616 112.658 36.9616H108.159C107.937 36.9616 107.756 37.142 107.756 37.3651V42.9466C107.756 43.1696 107.937 43.35 108.159 43.35H109.861C110.084 43.35 110.264 43.1696 110.264 42.9466V39.288C110.264 39.065 110.444 38.8846 110.667 38.8846H111.518C111.866 38.8846 112.153 38.947 112.381 39.0719C112.609 39.1968 112.804 39.401 112.967 39.6835L114.839 43.1388C114.909 43.2687 115.045 43.35 115.194 43.35H117.043C117.349 43.35 117.543 43.0219 117.396 42.7533L115.865 39.9442C115.648 39.5735 115.407 39.2791 115.14 39.061Z" fill="url(#paint16_linear)"/>
<path d="M129.316 34.4757C128.86 33.5906 128.211 32.9086 127.369 32.4308C126.527 31.9531 125.537 31.7142 124.398 31.7142C123.258 31.7142 122.267 31.9531 121.427 32.4308C120.585 32.9086 119.937 33.5906 119.48 34.4757C119.025 35.3608 118.796 36.4016 118.796 37.596C118.796 38.7914 119.024 39.8312 119.48 40.7163C119.936 41.6015 120.585 42.2864 121.427 42.7701C122.267 43.2538 123.259 43.4957 124.398 43.4957C125.538 43.4957 126.528 43.2538 127.369 42.7701C128.21 42.2864 128.859 41.6025 129.316 40.7163C129.771 39.8312 130 38.7904 130 37.596C130 36.4016 129.771 35.3618 129.316 34.4757ZM126.653 40.5141C126.105 41.1881 125.353 41.5242 124.398 41.5242C123.442 41.5242 122.693 41.1871 122.151 40.5141C121.608 39.8411 121.336 38.8677 121.336 37.597C121.336 36.3263 121.605 35.3559 122.143 34.6878C122.681 34.0197 123.431 33.6857 124.398 33.6857C125.364 33.6857 126.118 34.0197 126.661 34.6878C127.204 35.3559 127.475 36.3253 127.475 37.597C127.475 38.8677 127.201 39.8401 126.653 40.5141Z" fill="url(#paint17_linear)"/>
</g>
<defs>
<linearGradient id="paint0_linear" x1="63.889" y1="46.6272" x2="63.9299" y2="28.6857" gradientUnits="userSpaceOnUse">
<stop stop-color="#1281A2"/>
<stop offset="0.8156" stop-color="#44C540"/>
</linearGradient>
<linearGradient id="paint1_linear" x1="84.558" y1="5.77516" x2="71.229" y2="14.3058" gradientUnits="userSpaceOnUse">
<stop stop-color="#1281A2"/>
<stop offset="0.8156" stop-color="#44C540"/>
</linearGradient>
<linearGradient id="paint2_linear" x1="58.7628" y1="22.969" x2="46.677" y2="19.833" gradientUnits="userSpaceOnUse">
<stop stop-color="#1281A2"/>
<stop offset="0.8156" stop-color="#44C540"/>
</linearGradient>
<linearGradient id="paint3_linear" x1="38.8274" y1="3.75738" x2="56.018" y2="14.845" gradientUnits="userSpaceOnUse">
<stop stop-color="#1281A2"/>
<stop offset="0.8156" stop-color="#44C540"/>
</linearGradient>
<linearGradient id="paint4_linear" x1="82.9484" y1="25.8526" x2="82.9484" y2="17.8183" gradientUnits="userSpaceOnUse">
<stop stop-color="#0072D7"/>
<stop offset="0.9777" stop-color="#04A9D3"/>
</linearGradient>
<linearGradient id="paint5_linear" x1="94.0037" y1="25.8526" x2="94.0037" y2="17.8184" gradientUnits="userSpaceOnUse">
<stop stop-color="#0072D7"/>
<stop offset="0.9777" stop-color="#04A9D3"/>
</linearGradient>
<linearGradient id="paint6_linear" x1="104.051" y1="25.8525" x2="104.051" y2="17.8183" gradientUnits="userSpaceOnUse">
<stop stop-color="#0072D7"/>
<stop offset="0.9777" stop-color="#04A9D3"/>
</linearGradient>
<linearGradient id="paint7_linear" x1="115.446" y1="25.8526" x2="115.446" y2="17.8183" gradientUnits="userSpaceOnUse">
<stop stop-color="#0072D7"/>
<stop offset="0.9777" stop-color="#04A9D3"/>
</linearGradient>
<linearGradient id="paint8_linear" x1="126.043" y1="25.8526" x2="126.043" y2="17.8184" gradientUnits="userSpaceOnUse">
<stop stop-color="#0072D7"/>
<stop offset="0.9777" stop-color="#04A9D3"/>
</linearGradient>
<linearGradient id="paint9_linear" x1="6.86326" y1="25.7825" x2="6.86326" y2="17.7483" gradientUnits="userSpaceOnUse">
<stop stop-color="#0072D7"/>
<stop offset="0.9777" stop-color="#04A9D3"/>
</linearGradient>
<linearGradient id="paint10_linear" x1="18.1073" y1="25.7825" x2="18.1073" y2="17.7483" gradientUnits="userSpaceOnUse">
<stop stop-color="#0072D7"/>
<stop offset="0.9777" stop-color="#04A9D3"/>
</linearGradient>
<linearGradient id="paint11_linear" x1="28.6843" y1="25.7825" x2="28.6843" y2="17.7483" gradientUnits="userSpaceOnUse">
<stop stop-color="#0072D7"/>
<stop offset="0.9777" stop-color="#04A9D3"/>
</linearGradient>
<linearGradient id="paint12_linear" x1="40.4813" y1="25.7825" x2="40.4813" y2="17.7483" gradientUnits="userSpaceOnUse">
<stop stop-color="#0072D7"/>
<stop offset="0.9777" stop-color="#04A9D3"/>
</linearGradient>
<linearGradient id="paint13_linear" x1="79.2507" y1="43.1015" x2="79.2507" y2="32.2005" gradientUnits="userSpaceOnUse">
<stop stop-color="#1281A2"/>
<stop offset="0.8156" stop-color="#44C540"/>
</linearGradient>
<linearGradient id="paint14_linear" x1="88.7441" y1="43.1015" x2="88.7441" y2="32.2005" gradientUnits="userSpaceOnUse">
<stop stop-color="#1281A2"/>
<stop offset="0.8156" stop-color="#44C540"/>
</linearGradient>
<linearGradient id="paint15_linear" x1="100.477" y1="43.1015" x2="100.477" y2="32.2005" gradientUnits="userSpaceOnUse">
<stop stop-color="#1281A2"/>
<stop offset="0.8156" stop-color="#44C540"/>
</linearGradient>
<linearGradient id="paint16_linear" x1="112.601" y1="43.1015" x2="112.601" y2="32.2005" gradientUnits="userSpaceOnUse">
<stop stop-color="#1281A2"/>
<stop offset="0.8156" stop-color="#44C540"/>
</linearGradient>
<linearGradient id="paint17_linear" x1="124.398" y1="42.7481" x2="124.398" y2="34.7139" gradientUnits="userSpaceOnUse">
<stop stop-color="#1281A2"/>
<stop offset="0.8156" stop-color="#44C540"/>
</linearGradient>
<clipPath id="clip0">
<rect width="129.205" height="47.8951" fill="white" transform="translate(0.794739 0.517975)"/>
</clipPath>
</defs>
</svg>
