<?xml version="1.0" encoding="utf-8"?>
<!-- Generator: Adobe Illustrator 23.1.0, SVG Export Plug-In . SVG Version: 6.00 Build 0)  -->
<svg version="1.1" id="Layer_2" xmlns="http://www.w3.org/2000/svg" xmlns:xlink="http://www.w3.org/1999/xlink" x="0px" y="0px"
	 viewBox="0 0 38.42 38.36" style="enable-background:new 0 0 38.42 38.36;" xml:space="preserve">
<style type="text/css">
	.st0{fill:#44C540;}
</style>
<g>
	<path class="st0" d="M25,21.31c-0.61-0.61-1.38-0.61-1.99,0c-0.47,0.46-0.93,0.92-1.39,1.39c-0.13,0.13-0.23,0.16-0.38,0.07
		c-0.3-0.16-0.62-0.3-0.91-0.48c-1.35-0.85-2.48-1.94-3.48-3.17c-0.5-0.61-0.94-1.26-1.25-2c-0.06-0.15-0.05-0.25,0.07-0.37
		c0.47-0.45,0.92-0.91,1.38-1.37c0.64-0.64,0.64-1.39,0-2.04c-0.36-0.37-0.73-0.73-1.09-1.1c-0.38-0.38-0.75-0.76-1.13-1.13
		c-0.61-0.6-1.38-0.6-1.99,0c-0.47,0.46-0.92,0.94-1.4,1.39c-0.44,0.42-0.67,0.93-0.71,1.53c-0.07,0.97,0.16,1.89,0.5,2.79
		c0.69,1.85,1.74,3.5,3.01,5.01c1.72,2.04,3.77,3.66,6.17,4.82c1.08,0.52,2.2,0.93,3.42,0.99c0.84,0.05,1.57-0.16,2.15-0.82
		c0.4-0.45,0.85-0.85,1.27-1.28c0.63-0.63,0.63-1.4,0.01-2.03C26.5,22.8,25.75,22.06,25,21.31z"/>
</g>
</svg>
