<?xml version="1.0" encoding="utf-8"?>
<!-- Generator: Adobe Illustrator 23.1.0, SVG Export Plug-In . SVG Version: 6.00 Build 0)  -->
<svg version="1.1" id="Layer_2" xmlns="http://www.w3.org/2000/svg" xmlns:xlink="http://www.w3.org/1999/xlink" x="0px" y="0px"
	 viewBox="0 0 38.42 38.36" style="enable-background:new 0 0 38.42 38.36;" xml:space="preserve">
<style type="text/css">
	.st0{fill:#44C540;}
</style>
<g>
	<g>
		<path class="st0" d="M24.25,13.58c-1.03-1.78-2.87-2.87-4.91-2.91c-0.09,0-0.17,0-0.26,0c-2.04,0.04-3.88,1.13-4.91,2.91
			c-1.06,1.82-1.08,4.01-0.08,5.86l4.22,7.73c0,0,0,0.01,0.01,0.01c0.19,0.32,0.52,0.52,0.89,0.52c0.37,0,0.7-0.19,0.89-0.52
			c0,0,0-0.01,0.01-0.01l4.22-7.73C25.33,17.59,25.3,15.4,24.25,13.58L24.25,13.58z M19.21,18.38c-1.32,0-2.39-1.07-2.39-2.39
			s1.07-2.39,2.39-2.39s2.39,1.07,2.39,2.39S20.53,18.38,19.21,18.38z"/>
	</g>
</g>
</svg>
