<?xml version="1.0" encoding="utf-8"?>
<!-- Generator: Adobe Illustrator 23.1.0, SVG Export Plug-In . SVG Version: 6.00 Build 0)  -->
<svg version="1.1" id="Layer_2" xmlns="http://www.w3.org/2000/svg" xmlns:xlink="http://www.w3.org/1999/xlink" x="0px" y="0px"
	 viewBox="0 0 37.29 34.39" style="enable-background:new 0 0 37.29 34.39;" xml:space="preserve">
<style type="text/css">
	.st0{fill:#44C540;}
</style>
<g>
	<path class="st0" d="M28.51,13.1c-0.16-3.49-2.03-5.6-5.77-5.77c-1.83-0.09-6.35-0.08-8.18,0c-1.61,0.08-3.02,0.46-4.17,1.61
		c-1.91,1.91-1.67,4.48-1.67,8.26c0,3.86-0.22,6.38,1.67,8.26c1.92,1.92,4.53,1.67,8.26,1.67c3.83,0,5.15,0,6.5-0.52
		c1.84-0.71,3.23-2.36,3.36-5.31C28.6,19.46,28.59,14.93,28.51,13.1z M18.65,22.29c-2.81,0-5.1-2.28-5.1-5.1
		c0-2.81,2.28-5.1,5.1-5.1c2.81,0,5.1,2.28,5.1,5.1C23.74,20.01,21.46,22.29,18.65,22.29z M23.95,13.09c-0.66,0-1.19-0.53-1.19-1.19
		c0-0.66,0.53-1.19,1.19-1.19c0.66,0,1.19,0.53,1.19,1.19C25.14,12.55,24.6,13.09,23.95,13.09z"/>
	<path class="st0" d="M18.65,13.89c-1.83,0-3.31,1.48-3.31,3.31s1.48,3.31,3.31,3.31s3.31-1.48,3.31-3.31
		C21.96,15.37,20.48,13.89,18.65,13.89z"/>
</g>
</svg>
