<?xml version="1.0" encoding="utf-8"?>
<!-- Generator: Adobe Illustrator 23.1.0, SVG Export Plug-In . SVG Version: 6.00 Build 0)  -->
<svg version="1.1" id="Layer_2" xmlns="http://www.w3.org/2000/svg" xmlns:xlink="http://www.w3.org/1999/xlink" x="0px" y="0px"
	 viewBox="0 0 37.29 34.39" style="enable-background:new 0 0 37.29 34.39;" xml:space="preserve">
<style type="text/css">
	.st0{fill:#44C540;}
</style>
<path class="st0" d="M26.83,18.26c-0.4-0.51-0.29-0.73,0-1.18c0.01-0.01,3.32-4.58,3.66-6.13l0,0c0.17-0.57,0-0.98-0.82-0.98h-2.71
	c-0.69,0-1.01,0.36-1.18,0.76c0,0-1.38,3.31-3.34,5.45c-0.63,0.62-0.92,0.82-1.27,0.82c-0.17,0-0.43-0.2-0.43-0.76v-5.28
	c0-0.68-0.19-0.98-0.77-0.98h-4.27c-0.43,0-0.69,0.32-0.69,0.61c0,0.64,0.98,0.79,1.08,2.6v3.93c0,0.86-0.16,1.02-0.5,1.02
	c-0.92,0-3.16-3.32-4.49-7.12c-0.27-0.74-0.53-1.04-1.23-1.04H7.17c-0.77,0-0.93,0.36-0.93,0.76c0,0.71,0.92,4.21,4.29,8.84
	c2.24,3.16,5.4,4.88,8.28,4.88c1.73,0,1.94-0.38,1.94-1.04c0-3.02-0.16-3.31,0.71-3.31c0.4,0,1.09,0.2,2.7,1.72
	c1.84,1.81,2.15,2.62,3.18,2.62h2.71c0.77,0,1.17-0.38,0.94-1.13C30.47,21.73,26.99,18.48,26.83,18.26z"/>
</svg>
