<svg width="25" height="25" viewBox="0 0 25 25" fill="none" xmlns="http://www.w3.org/2000/svg">
<g clip-path="url(#clip0)">
<path d="M24.8744 7.28643C24.6231 2.88945 22.3618 0.251256 17.5879 0C15.3266 0 9.67337 0 7.28644 0.125628C5.27639 0.251256 3.51759 0.753769 2.01006 2.13568C-0.251251 4.52261 5.20423e-06 7.78894 5.20423e-06 12.4372C5.20423e-06 17.3367 -0.251251 20.4774 2.13568 22.8643C4.52262 25.2513 7.78895 25 12.5628 25C17.3367 25 18.9699 25 20.7286 24.3719C22.99 23.4925 24.7487 21.3568 25 17.7136C25 15.3266 25 9.67337 24.8744 7.28643ZM12.4372 18.8442C8.9196 18.8442 6.03016 15.9548 6.03016 12.4372C6.03016 8.9196 8.9196 6.03015 12.4372 6.03015C15.9548 6.03015 18.8442 8.9196 18.8442 12.4372C18.8442 15.9548 15.9548 18.8442 12.4372 18.8442ZM19.0955 7.28643C18.2161 7.28643 17.5879 6.65829 17.5879 5.77889C17.5879 4.8995 18.2161 4.27136 19.0955 4.27136C19.9749 4.27136 20.603 4.8995 20.603 5.77889C20.603 6.65829 19.9749 7.28643 19.0955 7.28643Z" fill="#44C540"/>
<path d="M12.4372 8.29156C10.1759 8.29156 8.2915 10.176 8.2915 12.4373C8.2915 14.6986 10.1759 16.583 12.4372 16.583C14.6985 16.583 16.583 14.6986 16.583 12.4373C16.583 10.176 14.8242 8.29156 12.4372 8.29156Z" fill="#44C540"/>
</g>
<defs>
<clipPath id="clip0">
<rect width="25" height="25" fill="white"/>
</clipPath>
</defs>
</svg>
