<svg width="28" height="18" viewBox="0 0 28 18" fill="none" xmlns="http://www.w3.org/2000/svg">
<g clip-path="url(#clip0)">
<path d="M27.9998 16.1584V1.84158L20.2822 9.0297L27.9998 16.1584Z" fill="#44C540"/>
<path d="M14.0319 10.3366C14.5422 10.3366 15.0524 10.1584 15.4351 9.80198L25.959 0H2.04102L12.6287 9.80198C12.9476 10.1584 13.4579 10.3366 14.0319 10.3366Z" fill="#44C540"/>
<path d="M0 1.84158V16.1584L7.71754 9.0297L0 1.84158Z" fill="#44C540"/>
<path d="M10.5877 11.703L9.75856 10.9307L2.04102 18.0594H26.0228L18.3053 10.9307L17.4761 11.703C16.5832 12.5347 15.3713 13.0099 14.0319 13.0099C12.6925 13.0099 11.4807 12.5347 10.5877 11.703Z" fill="#44C540"/>
</g>
<defs>
<clipPath id="clip0">
<rect width="28" height="18" fill="white"/>
</clipPath>
</defs>
</svg>
