<svg width="18" height="25" viewBox="0 0 18 25" fill="none" xmlns="http://www.w3.org/2000/svg">
<g clip-path="url(#clip0)">
<path d="M16.0065 4.29043C14.4388 1.65016 11.7986 0.0825083 8.74578 0C8.58076 0 8.49825 0 8.33323 0C5.36294 0.0825083 2.72267 1.65016 1.15502 4.29043C-0.412642 6.93069 -0.412642 10.1485 1.07251 12.8713L7.26063 24.1749C7.50815 24.67 8.0032 24.9175 8.58076 24.9175C9.15832 24.9175 9.65337 24.67 9.90089 24.1749L16.089 12.8713C17.5742 10.231 17.5742 7.0132 16.0065 4.29043ZM8.58076 11.3861C6.68307 11.3861 5.0329 9.81848 5.0329 7.83828C5.0329 5.85809 6.60056 4.29043 8.58076 4.29043C10.561 4.29043 12.1286 5.85809 12.1286 7.83828C12.1286 9.81848 10.561 11.3861 8.58076 11.3861Z" fill="#44C540"/>
</g>
<defs>
<clipPath id="clip0">
<rect width="17.1617" height="25" fill="white"/>
</clipPath>
</defs>
</svg>
