<svg width="25" height="25" viewBox="0 0 25 25" fill="none" xmlns="http://www.w3.org/2000/svg">
<g clip-path="url(#clip0)">
<path d="M20.9798 15.5779C20.1004 14.6985 18.9698 14.6985 18.0904 15.5779C17.4622 16.2061 16.7085 16.9598 16.0803 17.588C15.9547 17.8392 15.7035 17.8392 15.5778 17.7136C15.0753 17.4623 14.6984 17.3367 14.1959 16.9598C12.1859 15.7036 10.5527 14.0704 9.04516 12.3116C8.29139 11.5578 7.66325 10.5528 7.16074 9.42215C7.03511 9.29652 7.16074 9.04526 7.28637 8.91963C7.91451 8.29149 8.66828 7.53772 9.29642 6.90958C10.1758 6.03019 10.1758 4.89953 9.29642 3.89451C8.79391 3.39199 8.16576 2.88948 7.66325 2.26134C7.16074 1.75883 6.5326 1.25632 6.03009 0.628176C5.15069 -0.251221 4.02004 -0.251221 3.14064 0.628176C2.38687 1.38194 1.75873 2.01009 1.00496 2.76385C0.376819 3.26637 0.125563 4.02014 -6.54701e-05 4.89953C-0.125694 6.28144 0.251191 7.66335 0.753703 9.04526C1.75873 11.8091 3.26627 14.196 5.15069 16.4573C7.66325 19.4724 10.6783 21.8593 14.1959 23.4925C15.8291 24.2463 17.4622 24.8744 19.221 25C20.4773 25.1257 21.4823 24.7488 22.3617 23.7438C22.9899 23.1156 23.618 22.4875 24.2462 21.8593C25.1256 20.9799 25.1256 19.8493 24.2462 18.8443C23.1155 17.8392 22.1105 16.7086 20.9798 15.5779Z" fill="#44C540"/>
</g>
<defs>
<clipPath id="clip0">
<rect width="25" height="25" fill="white"/>
</clipPath>
</defs>
</svg>
