<svg width="38" height="23" viewBox="0 0 38 23" fill="none" xmlns="http://www.w3.org/2000/svg">
<g clip-path="url(#clip0)">
<path d="M31.1492 13.0693C30.5444 12.3221 30.6956 12.0233 31.1492 11.2762C31.1492 11.2762 36.1391 4.40259 36.744 2.16121C37.0464 1.26466 36.744 0.666962 35.5343 0.666962H31.4516C30.3931 0.666962 29.9395 1.26466 29.6371 1.86236C29.6371 1.86236 27.5202 6.7934 24.6472 10.0808C23.5887 10.8279 23.1351 11.1267 22.5302 11.1267C22.2278 11.1267 21.9254 10.8279 21.9254 9.93133V2.16121C21.9254 1.11524 21.623 0.666962 20.7157 0.666962H14.3649C13.6089 0.666962 13.3065 1.11524 13.3065 1.56351C13.3065 2.46007 14.8185 2.75892 14.9698 5.44857V11.2762C14.9698 12.621 14.6673 12.7704 14.2137 12.7704C12.7016 12.9198 9.375 7.83938 7.40928 2.16121C6.95565 1.11524 6.50202 0.666962 5.44355 0.666962H1.36089C0.302419 0.666962 0 1.26466 0 1.86236C0 2.90834 1.36089 8.13823 6.50202 15.0118C9.82863 19.7934 14.6673 22.3336 19.0524 22.3336C21.623 22.3336 21.9254 21.7359 21.9254 20.8394C21.9254 16.3566 21.623 15.9083 22.9839 15.9083C23.5887 15.9083 24.6472 16.2072 27.0665 18.4486C29.7883 21.1382 30.2419 22.3336 31.9052 22.3336H35.9879C37.1976 22.3336 37.8024 21.7359 37.3488 20.69C36.5927 18.2991 31.3004 13.3681 31.1492 13.0693Z" fill="#44C540"/>
</g>
<defs>
<clipPath id="clip0">
<rect width="37.5" height="21.6667" fill="white" transform="translate(0 0.666962)"/>
</clipPath>
</defs>
</svg>
