<svg width="35" height="18" viewBox="0 0 35 18" fill="none" xmlns="http://www.w3.org/2000/svg">
<path d="M34.0083 8.97628C34.0083 8.96334 34.0083 8.9504 34.0083 8.93746C34.0083 8.92883 34.0083 8.9202 34.004 8.91157C34.004 8.89863 33.9997 8.88569 33.9954 8.86844C33.9911 8.8555 33.9911 8.83825 33.9869 8.82531C33.9826 8.81668 33.9826 8.80805 33.9783 8.79943C33.974 8.78648 33.9697 8.77786 33.9697 8.76492C33.9654 8.75629 33.9654 8.74766 33.9611 8.73904V8.73472C33.9568 8.7261 33.9525 8.71747 33.9525 8.70884C33.944 8.69159 33.9397 8.67865 33.9311 8.6614C33.9268 8.65277 33.9225 8.64414 33.9139 8.63551C33.9096 8.62689 33.901 8.61395 33.8968 8.60532C33.8925 8.59669 33.8882 8.58807 33.8796 8.58375C33.871 8.57513 33.8667 8.56219 33.8539 8.55356C33.8496 8.54924 33.8453 8.54062 33.841 8.5363C33.8324 8.52336 33.8195 8.51042 33.811 8.5018C33.8067 8.49748 33.8024 8.49317 33.7981 8.48886L25.5609 0.207045L25.5566 0.202732C25.4193 0.0690151 25.2392 0 25.0461 0C24.853 0.00431344 24.6771 0.0819554 24.5442 0.219986C24.4841 0.280374 24.4369 0.353702 24.4026 0.431344L24.3983 0.439971C24.3897 0.457225 24.3854 0.474479 24.3768 0.491733L24.3725 0.500359C24.3683 0.517613 24.364 0.534867 24.3597 0.552121C24.3597 0.556434 24.3554 0.565061 24.3554 0.569375C24.3511 0.586628 24.3511 0.603882 24.3468 0.616822C24.3468 0.621136 24.3468 0.629763 24.3425 0.63839C24.3425 0.65133 24.3425 0.66427 24.3382 0.677211L24.5956 0.690151L24.3382 0.681524C24.3382 0.690151 24.3382 0.698778 24.3382 0.707405C24.3382 0.716032 24.3382 0.724659 24.3382 0.737599C24.3382 0.750539 24.3382 0.76348 24.3382 0.77642C24.3382 0.785047 24.3382 0.78936 24.3382 0.793674C24.3382 0.806614 24.3425 0.823868 24.3425 0.836808V0.841121V0.845435V0.849748C24.3683 0.987779 24.4326 1.11287 24.5313 1.21208L31.55 8.26887H0.716461C0.429019 8.26887 0.171607 8.44141 0.0557724 8.70884C0.0171607 8.79943 0 8.89001 0 8.98922C0 9.0151 0 9.03666 0.00429019 9.06254C0.0429019 9.42919 0.347505 9.70956 0.716461 9.70956H31.5672L24.5484 16.7664C24.5313 16.7836 24.5141 16.8009 24.5013 16.8181C24.2653 17.1028 24.2782 17.5169 24.5313 17.78C24.6729 17.9267 24.8573 18 25.0461 18C25.2263 18 25.4022 17.931 25.5438 17.7973C25.5481 17.793 25.5523 17.7886 25.5609 17.78L33.7895 9.50683L33.8067 9.48958C33.8753 9.41625 33.9268 9.33429 33.9654 9.23508C33.9697 9.22646 33.9697 9.22214 33.974 9.21352C33.9783 9.20489 33.9783 9.19626 33.9826 9.17901C33.9869 9.17038 33.9869 9.16175 33.9911 9.15313C33.9954 9.14019 33.9954 9.13156 33.9954 9.12293C33.9997 9.10999 33.9997 9.09705 33.9997 9.08411C33.9997 9.07549 33.9997 9.07117 34.004 9.06254C34.004 9.04529 34.0083 9.02372 34.0083 9.01078V8.99353C34.0083 8.98922 34.0083 8.98059 34.0083 8.97628Z" fill="url(#paint0_linear)"/>
<defs>
<linearGradient id="paint0_linear" x1="0.219881" y1="9.00002" x2="22.7211" y2="9.00002" gradientUnits="userSpaceOnUse">
<stop stop-color="#07BAD9"/>
<stop offset="1" stop-color="#13F11F"/>
</linearGradient>
</defs>
</svg>
