<svg width="35" height="18" viewBox="0 0 35 18" fill="none" xmlns="http://www.w3.org/2000/svg">
<path d="M0 9.02372C0 9.03666 0 9.0496 0 9.06254C0 9.07117 0 9.0798 0.00428772 9.08843C0.00428772 9.10137 0.00857925 9.11431 0.0128708 9.13156C0.0171585 9.1445 0.0171585 9.16175 0.02145 9.17469C0.0257416 9.18332 0.0257378 9.19195 0.0300293 9.20057C0.034317 9.21352 0.0386086 9.22214 0.0386086 9.23508C0.0429001 9.24371 0.0429001 9.25234 0.0471916 9.26096V9.26528C0.0514793 9.2739 0.0557709 9.28253 0.0557709 9.29116C0.0643501 9.30841 0.0686417 9.32135 0.0772209 9.3386C0.0815125 9.34723 0.0858002 9.35586 0.0943832 9.36449C0.098671 9.37311 0.107254 9.38605 0.111542 9.39468C0.115833 9.40331 0.120125 9.41193 0.128704 9.41625C0.137287 9.42487 0.141575 9.43781 0.154446 9.44644C0.158737 9.45076 0.163025 9.45938 0.167316 9.4637C0.175896 9.47664 0.188766 9.48958 0.197346 9.4982C0.201637 9.50252 0.205925 9.50683 0.210217 9.51114L8.44737 17.793L8.45167 17.7973C8.58895 17.931 8.76914 18 8.9622 18C9.15525 17.9957 9.33115 17.918 9.46415 17.78C9.52421 17.7196 9.5714 17.6463 9.60572 17.5687L9.61002 17.56C9.6186 17.5428 9.62289 17.5255 9.63147 17.5083L9.63576 17.4996C9.64005 17.4824 9.64434 17.4651 9.64863 17.4479C9.64863 17.4436 9.65292 17.4349 9.65292 17.4306C9.65721 17.4134 9.65721 17.3961 9.6615 17.3832C9.6615 17.3789 9.6615 17.3702 9.66579 17.3616C9.66579 17.3487 9.66579 17.3357 9.67008 17.3228L9.41267 17.3098L9.67008 17.3185C9.67008 17.3098 9.67008 17.3012 9.67008 17.2926C9.67008 17.284 9.67008 17.2753 9.67008 17.2624C9.67008 17.2495 9.67008 17.2365 9.67008 17.2236C9.67008 17.215 9.67008 17.2106 9.67008 17.2063C9.67008 17.1934 9.66579 17.1761 9.66579 17.1632V17.1589V17.1546V17.1503C9.64005 17.0122 9.57569 16.8871 9.47702 16.7879L2.45827 9.73113H33.2918C33.5793 9.73113 33.8367 9.55859 33.9525 9.29116C33.9911 9.20057 34.0083 9.10999 34.0083 9.01078C34.0083 8.9849 34.0083 8.96334 34.004 8.93746C33.9654 8.57081 33.6608 8.29044 33.2918 8.29044H2.44111L9.45986 1.23364C9.47702 1.21639 9.49418 1.19914 9.50705 1.18188C9.74301 0.897196 9.73014 0.483105 9.47702 0.219984C9.33544 0.073328 9.15096 0 8.9622 0C8.78201 0 8.60611 0.0690155 8.46453 0.202732C8.46025 0.207045 8.45595 0.211357 8.44737 0.219984L0.2188 8.49317L0.201637 8.51042C0.132992 8.58375 0.0815125 8.66571 0.0429001 8.76492C0.0386124 8.77354 0.0386124 8.77786 0.0343208 8.78648C0.0300293 8.79511 0.0300293 8.80374 0.0257378 8.82099C0.02145 8.82962 0.02145 8.83825 0.0171585 8.84687C0.012867 8.85981 0.0128708 8.86844 0.0128708 8.87707C0.00857925 8.89001 0.00857925 8.90295 0.00857925 8.91589C0.00857925 8.92451 0.00857925 8.92883 0.00428772 8.93746C0.00428772 8.95471 0 8.97628 0 8.98922V9.00647C0 9.01078 0 9.01941 0 9.02372Z" fill="url(#paint0_linear)"/>
<defs>
<linearGradient id="paint0_linear" x1="33.7884" y1="8.99998" x2="11.2872" y2="8.99998" gradientUnits="userSpaceOnUse">
<stop stop-color="#07BAD9"/>
<stop offset="1" stop-color="#13F11F"/>
</linearGradient>
</defs>
</svg>
