<?xml version="1.0" encoding="utf-8"?>
<!-- Generator: Adobe Illustrator 23.1.0, SVG Export Plug-In . SVG Version: 6.00 Build 0)  -->
<svg version="1.1" id="Layer_1" xmlns="http://www.w3.org/2000/svg" xmlns:xlink="http://www.w3.org/1999/xlink" x="0px" y="0px"
	 viewBox="0 0 62.34 62.34" style="enable-background:new 0 0 62.34 62.34;" xml:space="preserve">
<style type="text/css">
	.st0{fill:#FFFFFF;}
	.st1{fill:none;stroke:#FFFFFF;stroke-width:2;stroke-miterlimit:10;}
</style>
<path class="st0" d="M37.51,30.47h-5.63v-5.63c0-0.39-0.32-0.7-0.7-0.7c-0.39,0-0.7,0.32-0.7,0.7v5.63h-5.63
	c-0.39,0-0.7,0.32-0.7,0.7c0,0.39,0.32,0.7,0.7,0.7h5.63v5.63c0,0.39,0.32,0.7,0.7,0.7c0.39,0,0.7-0.32,0.7-0.7v-5.63h5.63
	c0.39,0,0.7-0.32,0.7-0.7C38.21,30.78,37.9,30.47,37.51,30.47z"/>
<circle class="st1" cx="31.17" cy="31.17" r="15.05"/>
</svg>
