<?xml version="1.0" encoding="utf-8"?>
<!-- Generator: Adobe Illustrator 24.0.1, SVG Export Plug-In . SVG Version: 6.00 Build 0)  -->
<svg version="1.1" id="Layer_1" xmlns="http://www.w3.org/2000/svg" xmlns:xlink="http://www.w3.org/1999/xlink" x="0px" y="0px"
	 viewBox="0 0 100.81 51.98" style="enable-background:new 0 0 100.81 51.98;" xml:space="preserve">
<style type="text/css">
	.st0{fill:url(#SVGID_1_);}
	.st1{fill:url(#SVGID_2_);}
</style>
<g>
	<g>
		<linearGradient id="SVGID_1_" gradientUnits="userSpaceOnUse" x1="62.3761" y1="26.34" x2="100.0692" y2="26.34">
			<stop  offset="0" style="stop-color:#07BADA"/>
			<stop  offset="1" style="stop-color:#13F11F"/>
		</linearGradient>
		<path class="st0" d="M84.47,52.33c-3.57,0-7.13,0-10.7,0c-0.78,0-1.57-0.03-2.35-0.03c-1.6,0-3.19,0.02-4.79,0.03
			c-0.76,0-1.11-0.54-0.81-1.24c0.58-1.33,1.58-2.08,3.01-2.3c0.08-0.01,0.17-0.13,0.2-0.22c0.32-1.09,0.91-1.99,1.81-2.69
			c0.89-0.69,1.89-1.12,3.03-1.17c0.21-0.01,0.42,0.01,0.62-0.03c0.09-0.02,0.2-0.11,0.24-0.2c0.62-1.25,1.6-2.1,2.88-2.6
			c1.26-0.49,2.53-0.54,3.82-0.09c0.28,0.1,0.32,0.08,0.31-0.24c-0.06-2.42-0.11-4.84-0.18-7.26c-0.03-1.1-0.03-2.2-0.12-3.29
			c-0.04-0.47-0.24-0.95-0.43-1.39c-0.77-1.8-1.72-3.51-2.87-5.1c-1.25-1.71-2.67-3.26-4.26-4.66c-1.23-1.07-2.54-2.03-3.92-2.89
			c-0.41-0.25-0.52-0.69-0.3-1.07c0.21-0.36,0.7-0.46,1.1-0.21c2.51,1.56,4.77,3.41,6.73,5.63c0.43,0.49,0.83,1,1.25,1.49
			c0.05,0.06,0.12,0.1,0.18,0.15c0.03-0.08,0.08-0.16,0.08-0.23c0.03-1.01,0.09-2.02-0.11-3.02c-0.49-2.49-1.99-4.17-4.18-5.33
			c-1.27-0.67-2.62-1.09-4.01-1.4c-1.7-0.38-3.43-0.51-5.17-0.55c-0.06,0-0.11-0.01-0.17-0.01c-0.13,0-0.25,0.01-0.38,0.01
			c0.06,0.12,0.11,0.23,0.18,0.35c0.49,0.85,0.82,1.77,1.1,2.71c0.52,1.76,0.98,3.54,1.56,5.27c0.48,1.42,1.27,2.68,2.5,3.62
			c0.75,0.56,1.58,0.94,2.48,1.16c1.38,0.34,2.78,0.36,4.19,0.2c0.38-0.04,0.77-0.08,1.16-0.1c0.46-0.03,0.78,0.23,0.82,0.63
			c0.04,0.43-0.23,0.79-0.68,0.85c-1.44,0.2-2.87,0.33-4.32,0.16c-1.71-0.2-3.31-0.69-4.68-1.79c-1.11-0.89-1.91-2.02-2.5-3.29
			c-0.63-1.34-1.02-2.76-1.41-4.19c-0.35-1.27-0.74-2.53-1.19-3.76c-0.28-0.77-0.74-1.44-1.46-1.89c-0.25-0.16-0.4-0.56-0.33-0.82
			c0.07-0.27,0.42-0.52,0.72-0.55c1.54-0.17,3.08-0.09,4.62,0.03c1.55,0.12,3.08,0.38,4.59,0.81c1.51,0.43,2.95,1.02,4.25,1.91
			c1.65,1.13,2.87,2.61,3.5,4.54c0.54,1.65,0.62,3.33,0.35,5.03c-0.07,0.46-0.15,0.91-0.21,1.37c-0.01,0.1,0.03,0.22,0.08,0.31
			c0.43,0.75,0.86,1.5,1.3,2.24c0.02,0.03,0.04,0.05,0.05,0.08c0.01-0.03,0.03-0.07,0.04-0.1c0.03-0.22,0.05-0.45,0.09-0.67
			c0.2-1.09,0.41-2.18,0.62-3.27c0.01-0.06-0.02-0.14-0.05-0.21c-0.58-1.32-1.08-2.66-1.41-4.07c-0.44-1.85-0.56-3.71-0.29-5.59
			c0.1-0.68,0.26-1.35,0.46-2c0.47-1.5,1.25-2.85,2.23-4.08c1.81-2.26,4.11-3.89,6.67-5.18c1.28-0.64,2.6-1.18,3.96-1.61
			c0.32-0.1,0.64-0.28,1.01-0.1c0.4,0.2,0.58,0.7,0.33,1.08c-0.54,0.83-0.74,1.76-0.85,2.72c-0.24,2.2,0,4.4,0.01,6.6
			c0.01,0.95-0.01,1.91-0.05,2.86c-0.02,0.68-0.05,1.37-0.14,2.05c-0.34,2.43-1.14,4.65-2.95,6.41c-1.12,1.09-2.44,1.84-3.92,2.32
			c-0.79,0.26-1.61,0.46-2.42,0.66c-0.62,0.15-1.07-0.21-1.04-0.79c0.02-0.33,0.25-0.57,0.63-0.67c0.88-0.24,1.78-0.42,2.63-0.73
			c2.2-0.8,3.86-2.23,4.79-4.42c0.35-0.84,0.58-1.71,0.72-2.6c0.35-2.09,0.27-4.2,0.21-6.31c-0.04-1.69-0.06-3.38-0.03-5.07
			c0.01-0.62,0.19-1.25,0.28-1.87c0.01-0.07,0.01-0.15,0.02-0.22c-0.08,0.01-0.16,0.01-0.23,0.04c-1.99,0.75-3.86,1.73-5.56,3.01
			c-1.36,1.02-2.56,2.2-3.52,3.63c-0.69,1.02-1.19,2.13-1.51,3.32c-0.38,1.4-0.43,2.83-0.3,4.27c0.12,1.29,0.43,2.54,0.86,3.76
			c0.02,0.05,0.05,0.09,0.07,0.13c0.03-0.04,0.07-0.08,0.09-0.13c0.66-2.31,1.53-4.54,2.59-6.7c0.84-1.71,1.81-3.36,2.9-4.93
			c0.25-0.36,0.74-0.44,1.08-0.19c0.31,0.23,0.39,0.73,0.16,1.07c-1.27,1.82-2.36,3.74-3.26,5.76c-0.6,1.35-1.11,2.73-1.6,4.12
			c-0.38,1.1-0.7,2.23-0.97,3.36c-0.26,1.08-0.44,2.18-0.62,3.27c-0.27,1.62-0.45,3.26-0.41,4.9c0.04,1.52,0.1,3.04,0.16,4.56
			c0,0.06,0.03,0.12,0.05,0.17c0.04-0.04,0.08-0.07,0.12-0.11c0.38-0.4,0.75-0.8,1.13-1.19c0.15-0.15,0.22-0.31,0.22-0.52
			c0.02-1.68,0.4-3.27,1.36-4.68c0.84-1.23,2-2.04,3.4-2.54c1.72-0.62,3.49-0.7,5.28-0.57c1.4,0.1,2.79,0.33,4.14,0.74
			c0.3,0.09,0.62,0.16,0.9,0.31c0.15,0.08,0.29,0.29,0.34,0.46c0.08,0.29,0.03,0.63-0.28,0.75c-1.22,0.47-1.77,1.54-2.37,2.57
			c-0.72,1.23-1.4,2.49-2.19,3.68c-0.73,1.1-1.74,1.92-2.99,2.39c-0.94,0.36-1.92,0.48-2.92,0.38c-1.19-0.11-2.33-0.43-3.44-0.85
			c-0.28-0.11-0.53-0.25-0.63-0.56c-0.05-0.16-0.13-0.14-0.21-0.03c-0.56,0.69-1.13,1.38-1.68,2.08c-0.07,0.09-0.11,0.25-0.1,0.37
			c0.01,0.91,0.04,1.82,0.05,2.72c0,0.21,0.07,0.25,0.25,0.16c1.36-0.64,2.79-0.81,4.25-0.57c1.72,0.28,3.19,1.04,4.23,2.49
			c0.19,0.27,0.34,0.58,0.48,0.89c0.09,0.2,0.19,0.3,0.43,0.3c1.27,0.01,2.45,0.34,3.44,1.16c0.97,0.8,1.7,1.76,1.94,3.05
			c0.2,1.08,0.06,2.1-0.39,3.08c-0.14,0.3-0.39,0.46-0.72,0.46c-2.2,0-4.41,0-6.61,0C88.54,52.33,86.5,52.33,84.47,52.33
			C84.47,52.33,84.47,52.33,84.47,52.33z M82.25,50.83c4.6,0,9.19,0,13.79,0c0.85,0,0.6,0.13,0.83-0.68
			c0.02-0.06,0.01-0.13,0.01-0.2c0.02-1.31-0.46-2.37-1.55-3.12c-0.93-0.65-1.98-0.86-3.1-0.69c-0.48,0.07-0.88-0.16-0.96-0.64
			c-0.12-0.72-0.47-1.3-0.98-1.8c-0.89-0.86-1.98-1.27-3.2-1.37c-1.51-0.13-2.87,0.22-4.06,1.19c-0.49,0.4-0.7,0.41-1.24,0.09
			c-1.16-0.67-2.38-0.79-3.64-0.31c-1.12,0.43-1.89,1.2-2.28,2.35c-0.15,0.44-0.48,0.66-0.87,0.6c-0.7-0.11-1.39-0.07-2.06,0.18
			c-1.39,0.51-2.29,1.45-2.51,2.95c-0.11,0.7-0.33,0.92-1.03,0.91c-0.47-0.01-0.92,0.08-1.32,0.34c-0.07,0.04-0.13,0.11-0.19,0.16
			c0.08,0.02,0.17,0.04,0.25,0.04C72.85,50.83,77.55,50.83,82.25,50.83z M93.36,27.64c0,0.02-0.01,0.05-0.01,0.07
			c-1.42,0-2.59,0.19-3.71,0.64c-1.95,0.78-2.98,2.29-3.36,4.3c-0.01,0.07,0.01,0.14,0.02,0.21c0.07-0.03,0.14-0.05,0.2-0.09
			c1.87-1.45,3.95-2.53,6.17-3.34c0.12-0.04,0.25-0.08,0.37-0.13c0.45-0.16,0.89,0.02,1.05,0.45c0.15,0.4-0.1,0.84-0.56,0.99
			c-0.39,0.13-0.78,0.26-1.17,0.41c-1.23,0.5-2.44,1.06-3.53,1.82c-0.92,0.64-1.8,1.36-2.69,2.04c-0.1,0.07-0.18,0.12,0.02,0.18
			c0.77,0.23,1.52,0.5,2.29,0.69c0.54,0.13,1.11,0.2,1.67,0.23c0.31,0.01,0.63-0.12,0.94-0.19c0.66-0.15,1.26-0.43,1.79-0.85
			c1.04-0.83,1.7-1.95,2.33-3.08c0.69-1.23,1.26-2.53,2.2-3.6c0.12-0.13,0.07-0.19-0.08-0.21c-0.28-0.05-0.55-0.12-0.83-0.16
			C95.43,27.89,94.39,27.77,93.36,27.64z"/>
	</g>
</g>
<linearGradient id="SVGID_2_" gradientUnits="userSpaceOnUse" x1="-0.0623" y1="26.34" x2="32.2235" y2="26.34">
	<stop  offset="0" style="stop-color:#07BADA"/>
	<stop  offset="1" style="stop-color:#13F11F"/>
</linearGradient>
<path class="st1" d="M32.22,26.32c0-0.01,0-0.02,0-0.04c0-0.01,0-0.02,0-0.02c0-0.01,0-0.03-0.01-0.04c0-0.01-0.01-0.03-0.01-0.04
	c0-0.01,0-0.02-0.01-0.02c0-0.01-0.01-0.02-0.01-0.03c0-0.01-0.01-0.02-0.01-0.02l0,0c0-0.01-0.01-0.02-0.01-0.02
	c-0.01-0.01-0.01-0.03-0.02-0.04c0-0.01-0.01-0.02-0.01-0.03c-0.01-0.01-0.01-0.02-0.02-0.03c0-0.01-0.01-0.01-0.01-0.02
	c-0.01-0.01-0.01-0.02-0.02-0.03c0-0.01-0.01-0.01-0.01-0.02c-0.01-0.01-0.02-0.02-0.03-0.03c0,0-0.01-0.01-0.01-0.01l-7.82-7.82
	l0,0c-0.13-0.13-0.3-0.19-0.48-0.19c-0.18,0-0.35,0.08-0.48,0.21c-0.06,0.06-0.1,0.13-0.13,0.2l0,0.01
	c-0.01,0.02-0.01,0.03-0.02,0.05l0,0.01c-0.01,0.02-0.01,0.03-0.01,0.05c0,0.01,0,0.01,0,0.01c0,0.02-0.01,0.03-0.01,0.05
	c0,0.01,0,0.01,0,0.02c0,0.01,0,0.02,0,0.04l0.24,0.01l-0.24-0.01c0,0.01,0,0.02,0,0.02c0,0.01,0,0.02,0,0.03c0,0.01,0,0.02,0,0.04
	c0,0.01,0,0.01,0,0.02c0,0.01,0,0.03,0.01,0.04l0,0c0,0,0,0,0,0l0,0.01c0.03,0.13,0.09,0.25,0.18,0.34l6.66,6.66H0.62
	c-0.27,0-0.52,0.16-0.63,0.41c-0.04,0.08-0.05,0.17-0.05,0.26c0,0.02,0,0.05,0,0.07c0.04,0.35,0.33,0.61,0.68,0.61h29.29l-6.66,6.66
	c-0.02,0.02-0.03,0.03-0.04,0.05c-0.23,0.27-0.21,0.66,0.03,0.91c0.13,0.14,0.31,0.21,0.49,0.21c0.17,0,0.34-0.06,0.47-0.19
	c0.01,0,0.01-0.01,0.01-0.01l7.81-7.81l0.02-0.02c0.07-0.07,0.12-0.15,0.15-0.24c0-0.01,0.01-0.01,0.01-0.02l0,0
	c0-0.01,0.01-0.02,0.01-0.03c0-0.01,0-0.02,0.01-0.03c0-0.01,0-0.02,0.01-0.03c0-0.01,0-0.02,0.01-0.04c0-0.01,0-0.01,0-0.02
	c0-0.02,0-0.03,0-0.05l0-0.01C32.22,26.33,32.22,26.32,32.22,26.32z"/>
</svg>
