<?xml version="1.0" encoding="utf-8"?>
<!-- Generator: Adobe Illustrator 24.0.1, SVG Export Plug-In . SVG Version: 6.00 Build 0)  -->
<svg version="1.1" id="Layer_1" xmlns="http://www.w3.org/2000/svg" xmlns:xlink="http://www.w3.org/1999/xlink" x="0px" y="0px"
	 viewBox="0 0 114.7 51.7" style="enable-background:new 0 0 114.7 51.7;" xml:space="preserve">
<style type="text/css">
	.st0{fill:url(#SVGID_1_);}
	.st1{fill:url(#SVGID_2_);}
</style>
<g>
	<g>
		<linearGradient id="SVGID_1_" gradientUnits="userSpaceOnUse" x1="62.9768" y1="25.8519" x2="114.6955" y2="25.8519">
			<stop  offset="0" style="stop-color:#07BADA"/>
			<stop  offset="1" style="stop-color:#13F11F"/>
		</linearGradient>
		<path class="st0" d="M104.92,47.5c0.34,0,0.71,0,1.18,0c0.02-0.35,0.07-0.68,0.07-1.01c0.01-4.27,0.01-8.54,0.01-12.82
			c0-1.19-0.01-1.15-1.14-1.35c-0.75-0.14-1.49-0.36-2.2-0.63c-1.5-0.57-2.41-1.73-2.99-3.18c-0.42-1.05-0.63-2.14-0.61-3.26
			c0.01-0.89,0.29-1.24,1.17-1.19c1.97,0.13,3.91,0.43,5.4,1.94c0.07,0.08,0.18,0.13,0.33,0.23c0-0.55,0-1.04,0-1.61
			c-0.58-0.11-1.17-0.21-1.76-0.33c-4.06-0.78-5.17-4.26-5.12-7.18c0.01-0.67,0.31-0.95,1.04-0.94c1.76,0.02,3.44,0.36,4.91,1.4
			c0.28,0.2,0.55,0.41,0.9,0.67c0.03-0.29,0.07-0.5,0.07-0.72c0-0.26-0.03-0.52-0.05-0.69c-0.92-0.3-1.77-0.51-2.58-0.84
			c-1.27-0.51-1.98-1.58-2.38-2.82c-0.21-0.65-0.29-1.36-0.31-2.04c-0.04-2.23-0.02-4.46-0.02-6.7c0-0.23-0.04-0.49,0.06-0.68
			c0.11-0.21,0.32-0.43,0.54-0.51c0.31-0.12,0.65,0.01,0.77,0.33c0.12,0.31,0.18,0.67,0.19,1c0.02,1.35,0.01,2.69,0.01,4.04
			c0,0.38,0,0.76,0,1.23c0.6,0.12,1.15,0.22,1.75,0.34c0.06-0.21,0.14-0.35,0.13-0.49c-0.06-1.4,0.53-2.56,1.39-3.57
			c0.42-0.49,0.55-0.97,0.54-1.57c-0.03-1.08-0.01-2.16-0.01-3.23c0-0.23-0.02-0.47,0.03-0.69c0.09-0.36,0.32-0.61,0.72-0.65
			c0.36-0.03,0.71,0.27,0.79,0.69c0.04,0.19,0.02,0.38,0.02,0.58c0,0.73,0.03,1.46-0.01,2.19c-0.05,1.17,0.05,2.23,0.93,3.18
			c0.67,0.73,0.92,1.76,0.95,2.79c0,0.22,0.03,0.44,0.06,0.76c0.66-0.12,1.25-0.22,1.95-0.34c0-0.68,0-1.32,0-1.97
			c0-1.12,0-2.23,0-3.35c0-0.27-0.01-0.54,0.04-0.8c0.06-0.35,0.31-0.52,0.66-0.52c0.35,0,0.61,0.15,0.7,0.48
			c0.06,0.22,0.05,0.46,0.05,0.69c0,2.19,0.02,4.39,0,6.58c-0.01,0.53-0.11,1.07-0.21,1.59c-0.38,1.98-1.45,3.6-4.53,4.06
			c-0.15,0.02-0.3,0.05-0.53,0.09c0,0.49,0,0.96,0,1.54c0.24-0.16,0.43-0.26,0.59-0.39c1.51-1.33,3.37-1.59,5.27-1.66
			c0.65-0.02,0.99,0.28,1,0.86c0.02,2.05-0.41,3.97-1.86,5.53c-1.05,1.13-2.42,1.59-3.87,1.86c-0.23,0.04-0.46,0.03-0.69,0.06
			c-0.3,0.04-0.51,0.18-0.51,0.52c0,0.38,0,0.75,0,1.32c1.04-1.09,2.14-1.7,3.41-1.95c0.79-0.16,1.59-0.28,2.39-0.33
			c0.8-0.04,1.13,0.3,1.14,1.09c0.02,1.49-0.32,2.9-1.04,4.21c-0.11,0.2-0.24,0.4-0.41,0.55c-0.25,0.21-0.55,0.28-0.85,0.08
			c-0.32-0.22-0.44-0.52-0.27-0.9c0.11-0.24,0.26-0.47,0.36-0.72c0.32-0.85,0.73-1.69,0.58-2.64c-3.01-0.13-5.32,1.83-5.22,5.07
			c0.36,0.21,0.73,0.07,1.1,0c0.26-0.05,0.55-0.15,0.79-0.08c0.22,0.06,0.46,0.28,0.55,0.49c0.13,0.29,0.07,0.66-0.26,0.79
			c-0.42,0.17-0.88,0.26-1.33,0.33c-0.94,0.15-0.95,0.14-0.95,1.06c-0.01,4.43-0.01,8.85-0.01,13.28c0,0.23,0.02,0.46,0.04,0.7
			c0.52,0.31,1.07,0.12,1.59,0.16c0.38,0.03,0.77,0.01,1.15,0.01c1.72-0.04,3.07,1.2,3.39,2.87c0.04,0.19,0.06,0.39,0.03,0.57
			c-0.06,0.37-0.28,0.64-0.67,0.7c-0.41,0.06-0.65-0.2-0.79-0.54c-0.07-0.17-0.06-0.38-0.11-0.56c-0.18-0.78-0.83-1.48-1.81-1.47
			c-1.89,0.02-3.77,0-5.66-0.01c-0.38,0-0.77-0.01-1.14-0.09c-0.67-0.14-0.81-0.38-0.7-1.05c0.04-0.23,0.1-0.45,0.11-0.68
			c0.04-1.05-0.73-1.83-1.78-1.83c-0.08,0-0.15,0.01-0.23,0.01c-1.18,0.08-1.18,0.08-1.45-1.14c-0.2-0.9-0.91-1.46-1.82-1.42
			c-0.79,0.03-1.43,0.56-1.64,1.37c-0.29,1.11-0.3,1.16-1.34,0.97c-1.43-0.27-2.61,0.99-2.13,2.4c0.05,0.15,0.11,0.29,0.15,0.44
			c0.1,0.5,0,0.72-0.48,0.89c-0.25,0.09-0.52,0.13-0.79,0.13c-1.81,0.01-3.62,0-5.43,0c-0.15,0-0.31,0-0.46-0.03
			c-0.71-0.13-0.89-0.36-0.87-1.1c0.01-0.35,0.06-0.69,0.04-1.04c-0.06-1.23-0.94-2.29-2.11-2.6c-1.31-0.34-2.66,0.17-3.31,1.28
			c-0.17,0.29-0.29,0.63-0.4,0.95c-0.35,0.97-0.9,1.09-1.57,0.35c-0.05-0.06-0.08-0.14-0.13-0.19c-0.91-0.95-2.35-0.6-2.73,0.67
			c-0.06,0.22-0.08,0.45-0.11,0.68c-0.08,0.78-0.19,0.94-0.95,1.01c-0.61,0.05-1.23,0.02-1.85,0.02c-1.5,0-3-0.01-4.5,0.01
			c-1.21,0.02-1.75,0.47-2.01,1.63c-0.16,0.71-0.47,1.03-0.92,0.94c-0.5-0.11-0.72-0.61-0.58-1.31c0.36-1.73,1.64-2.79,3.43-2.83
			c0.84-0.02,1.69,0,2.59,0c0.05-0.26,0.12-0.47,0.12-0.68c0.01-4.5,0.01-9.01,0.01-13.51c0-0.84-0.03-0.86-0.9-1
			c-0.49-0.08-0.99-0.16-1.46-0.29c-2.41-0.64-3.75-2.3-4.31-4.64c-0.17-0.7-0.24-1.44-0.27-2.17c-0.03-0.88,0.26-1.21,1.15-1.19
			c0.8,0.02,1.6,0.16,2.39,0.33c1.26,0.27,2.36,0.87,3.26,1.84c0.07-0.15,0.12-0.21,0.12-0.28c0.06-1.32,0.11-1.34-1.17-1.53
			c-3.03-0.44-4.95-2.04-5.54-5.31c-0.11-0.6-0.19-1.22-0.2-1.83c-0.01-0.81,0.28-1.11,1.11-1.11c1.85-0.01,3.58,0.41,5.06,1.59
			c0.15,0.12,0.31,0.23,0.46,0.34c0.03,0.02,0.07,0.02,0.21,0.07c0.03-0.29,0.06-0.56,0.09-0.84c0.06-0.48-0.13-0.72-0.63-0.73
			c-0.26-0.01-0.54-0.06-0.79-0.13c-2.58-0.74-3.69-2.27-3.87-4.96c-0.16-2.45-0.04-4.92-0.05-7.39c0-0.11,0-0.23,0.03-0.34
			c0.1-0.39,0.37-0.58,0.76-0.56c0.35,0.01,0.58,0.21,0.63,0.56c0.04,0.26,0.03,0.54,0.03,0.81c0,1.46-0.01,2.93,0,4.39
			c0.01,0.86,0.02,0.86,0.85,1.04c0.33,0.07,0.67,0.1,1.08,0.16c0.04-0.45,0.04-0.82,0.1-1.19c0.19-1.08,0.6-2.08,1.36-2.88
			c0.49-0.52,0.66-1.08,0.63-1.78c-0.04-1-0.01-2-0.01-3c0-0.23-0.01-0.46,0.02-0.69c0.05-0.4,0.27-0.65,0.68-0.63
			c0.38,0.02,0.67,0.2,0.73,0.6c0.04,0.3,0.02,0.61,0.02,0.92c0,1.08,0.01,2.16,0,3.23c-0.01,0.4,0.1,0.72,0.34,1.06
			c1.36,1.88,1.37,1.96,1.62,4.28c0.4,0.1,0.79-0.06,1.19-0.11c0.53-0.06,0.73-0.31,0.72-0.83c-0.02-1.15-0.01-2.31,0-3.46
			c0-0.58-0.02-1.16,0.01-1.73c0.03-0.52,0.26-0.74,0.69-0.75c0.43-0.01,0.74,0.22,0.74,0.7c0,2.73,0.13,5.48-0.09,8.19
			c-0.21,2.62-1.99,4.18-4.62,4.51c-0.15,0.02-0.3,0.04-0.49,0.07c-0.25,0.52-0.11,1.04-0.1,1.7c0.45-0.37,0.79-0.72,1.18-0.97
			c1.4-0.9,2.97-1.24,4.61-1.24c0.84,0,1.11,0.29,1.13,1.11c0.03,1.57-0.33,3.05-1.16,4.4c-1.05,1.72-2.71,2.42-4.59,2.76
			c-0.3,0.06-0.61,0.07-0.91,0.12c-0.07,0.01-0.13,0.08-0.24,0.15c0,0.46,0,0.95,0,1.58c0.98-1.01,2.06-1.63,3.31-1.9
			c0.75-0.16,1.51-0.31,2.27-0.34c1.05-0.04,1.3,0.25,1.31,1.28c0.01,1.29-0.27,2.52-0.83,3.68c-0.98,2.01-2.72,2.94-4.84,3.3
			c-0.41,0.07-0.81,0.14-1.24,0.22c0,5.01,0,9.92,0,14.87c0.48,0.24,0.97,0.13,1.43,0.1c0.97-2.96,3.02-3.29,4.96-2.44
			c0.15-0.18,0.33-0.37,0.49-0.57c1.32-1.59,3.09-2.14,4.95-1.59c1.52,0.45,3.09,2.02,3.17,4.12c0,0.11,0.03,0.23,0.05,0.36
			c0.1,0.05,0.19,0.13,0.3,0.14c1.2,0.07,1.22,0.05,1.23-1.16c0-4.23,0-8.47,0.01-12.7c0-0.34,0-0.68,0-1.1
			c-0.48-0.09-0.88-0.18-1.29-0.24c-3.47-0.52-5.28-2.67-5.61-6.02c-0.04-0.42-0.05-0.85-0.04-1.27c0.02-0.72,0.27-1.01,0.99-0.97
			c1.9,0.09,3.75,0.42,5.28,1.68c0.14,0.12,0.29,0.23,0.54,0.44c0.06-0.36,0.13-0.6,0.13-0.84c0-0.74-0.04-0.8-0.76-0.85
			c-1.01-0.07-1.96-0.36-2.86-0.81c-0.21-0.1-0.42-0.21-0.59-0.35c-0.38-0.3-0.43-0.65-0.18-1c0.26-0.36,0.56-0.41,1-0.24
			c0.82,0.32,1.64,0.63,2.47,0.9c0.23,0.08,0.51,0.01,0.76,0.01c0.15-3.03-1.89-5.24-5.27-5.18c0.05,0.41,0.11,0.8,0.15,1.2
			c0.06,0.67-0.12,0.99-0.59,1.06c-0.46,0.07-0.8-0.18-0.91-0.82c-0.12-0.72-0.15-1.45-0.15-2.18c0-0.61,0.22-0.86,0.83-0.87
			c0.61-0.02,1.22,0.08,1.83,0.16c1.4,0.18,2.68,0.66,3.74,1.64c0.08,0.08,0.19,0.13,0.28,0.19c0.03,0.01,0.07-0.01,0.17-0.03
			c0.02-0.24,0.07-0.5,0.06-0.76c-0.02-0.63-0.05-0.67-0.73-0.78c-0.92-0.14-1.8-0.41-2.57-0.96c-1.23-0.89-1.86-2.14-1.98-3.63
			c-0.11-1.46-0.15-2.92-0.19-4.38c-0.03-1-0.01-2,0.02-3c0.01-0.34,0.07-0.69,0.17-1.01c0.11-0.33,0.4-0.45,0.74-0.41
			c0.35,0.03,0.58,0.23,0.62,0.57c0.04,0.3,0.03,0.61,0.03,0.92c0,1.69,0,3.37,0,5.12c0.62,0.12,1.16,0.23,1.78,0.35
			c0.05-0.26,0.1-0.44,0.12-0.61c0.11-1.39,0.66-2.61,1.57-3.64c0.34-0.38,0.44-0.77,0.44-1.26c-0.02-1.12-0.01-2.23-0.01-3.35
			c0-0.23-0.01-0.46,0.02-0.69c0.05-0.4,0.29-0.62,0.69-0.63c0.41-0.01,0.66,0.2,0.73,0.59c0.04,0.26,0.03,0.54,0.03,0.81
			c0,1.08,0.01,2.16,0,3.23c-0.01,0.49,0.11,0.89,0.45,1.26c1.05,1.16,1.52,2.55,1.56,4.14c0.64,0.29,1.18-0.18,1.87-0.12
			c0-0.42,0-0.75,0-1.09c0-1.42,0-2.85,0-4.27c0-0.27-0.05-0.58,0.08-0.79c0.14-0.23,0.42-0.44,0.68-0.51
			c0.33-0.09,0.58,0.16,0.67,0.49c0.07,0.26,0.12,0.53,0.12,0.79c0.01,1.96,0.05,3.93-0.01,5.89c-0.03,0.87-0.19,1.76-0.4,2.61
			c-0.45,1.92-1.74,3.02-3.62,3.46c-0.22,0.05-0.45,0.09-0.68,0.13c-0.71,0.13-0.73,0.15-0.74,0.89c0,0.22,0.04,0.44,0.07,0.8
			c0.29-0.22,0.5-0.36,0.69-0.52c1.52-1.22,3.32-1.55,5.19-1.58c0.75-0.01,0.96,0.25,0.98,0.98c0.03,1.08-0.08,2.14-0.44,3.18
			c-0.87,2.5-2.77,3.75-5.26,4.07c-1.2,0.16-1.39,0.18-1.14,1.67c0.2-0.13,0.39-0.22,0.55-0.35c1.04-0.86,2.27-1.28,3.57-1.52
			c0.53-0.1,1.07-0.16,1.6-0.16c0.82,0,1.09,0.3,1.11,1.12c0.03,1.01-0.08,1.99-0.4,2.95c-0.82,2.45-2.61,3.71-5.06,4.16
			c-0.45,0.08-0.91,0.15-1.4,0.23c-0.03,0.3-0.07,0.56-0.07,0.82c-0.01,4.31-0.01,8.62-0.01,12.93c0,0.15-0.01,0.31,0,0.46
			c0.03,0.73,0.08,0.78,0.81,0.8c0.15,0,0.31,0,0.46-0.02c0.07-0.01,0.13-0.06,0.25-0.13c0.02-0.11,0.04-0.26,0.06-0.4
			c0.14-1.83,1.17-3.05,2.95-3.29c0.58-0.08,0.84-0.33,1.13-0.77c1.17-1.77,3.32-2.12,4.88-0.79c0.39,0.34,0.68,0.83,0.94,1.29
			c0.14,0.25,0.24,0.43,0.56,0.47c1.96,0.26,2.98,1.43,3.2,3.36C104.79,47.33,104.86,47.39,104.92,47.5z M89.72,23.01
			c1.38,0.03,2.64-0.36,3.67-1.24c1.18-1,1.47-2.42,1.62-3.89C91.55,17.65,89.58,20.05,89.72,23.01z M89.66,30.8
			c3.57,0.23,5.43-2.32,5.22-5.11C91.69,25.74,89.78,27.51,89.66,30.8z M69.81,23c0.21-3.13-2.47-5.69-5.21-5.08
			C64.65,21.45,66.96,22.93,69.81,23z M82.7,25.76c0.18,3.34,2.27,5.38,5.17,5.05C88.19,28.07,86.02,25.47,82.7,25.76z M71.57,22.98
			c2.67,0.01,5.35-1.47,5.18-5.11C73.79,17.58,71.54,19.76,71.57,22.98z M106.09,22.99c0.07-3.24-2.62-5.79-5.24-5.05
			C100.9,21.37,103.15,22.94,106.09,22.99z M76.81,25.73c-3.23-0.12-5.79,2.51-5.13,5.17C74.66,30.82,76.85,29.04,76.81,25.73z
			 M69.86,30.84c-0.03-3.23-2.39-5.49-5.23-5.08C64.5,29.01,66.85,30.94,69.86,30.84z M106.18,30.85c-0.19-1.55-0.48-2.98-1.69-3.98
			c-1.03-0.85-2.27-1.16-3.59-1.23C100.67,28.88,103.07,30.94,106.18,30.85z M107.87,23.01c3.37-0.13,5.55-2.37,5.11-5.17
			C109.97,17.73,107.69,19.84,107.87,23.01z M88.91,6.97c-1.63,1.7-1.61,3.78-0.04,5.02C90.36,10.53,90.39,8.94,88.91,6.97z
			 M106.97,12.05c1.46-1.47,1.65-3.64-0.06-5C105.43,8.5,105.44,10.75,106.97,12.05z M70.68,12.02c1.64-1.46,1.63-3.69-0.02-4.98
			C69.31,8.5,69.12,10.6,70.68,12.02z M106.05,15.15c0.2-1.87-1.42-3.92-3.54-3.49C102.58,13.75,103.63,14.8,106.05,15.15z
			 M66.24,11.58c0.08,2.24,1.34,3.44,3.57,3.48C69.84,12.92,68.5,11.58,66.24,11.58z M75.2,11.62c-1.95-0.27-3.84,1.44-3.53,3.5
			C74.03,14.78,75.08,13.76,75.2,11.62z M87.85,15.15c0.22-2.2-1.65-3.97-3.55-3.46C84.51,13.67,85.47,14.89,87.85,15.15z
			 M89.78,15.11c1.94-0.03,3.47-1.21,3.57-3.46C91.34,11.34,89.72,12.87,89.78,15.11z M107.91,15.1c2.39-0.28,3.57-1.47,3.47-3.49
			C109.52,11.29,107.58,13.16,107.91,15.1z"/>
	</g>
</g>
<linearGradient id="SVGID_2_" gradientUnits="userSpaceOnUse" x1="0" y1="25.8519" x2="32.2858" y2="25.8519">
	<stop  offset="0" style="stop-color:#07BADA"/>
	<stop  offset="1" style="stop-color:#13F11F"/>
</linearGradient>
<path class="st1" d="M32.29,25.83c0-0.01,0-0.02,0-0.04c0-0.01,0-0.02,0-0.02c0-0.01,0-0.03-0.01-0.04c0-0.01-0.01-0.03-0.01-0.04
	c0-0.01,0-0.02-0.01-0.02c0-0.01-0.01-0.02-0.01-0.03c0-0.01-0.01-0.02-0.01-0.02l0,0c0-0.01-0.01-0.02-0.01-0.02
	c-0.01-0.01-0.01-0.03-0.02-0.04c0-0.01-0.01-0.02-0.01-0.03c-0.01-0.01-0.01-0.02-0.02-0.03c0-0.01-0.01-0.01-0.01-0.02
	c-0.01-0.01-0.01-0.02-0.02-0.03c0-0.01-0.01-0.01-0.01-0.02c-0.01-0.01-0.02-0.02-0.03-0.03c0,0-0.01-0.01-0.01-0.01l-7.82-7.82
	l0,0c-0.13-0.13-0.3-0.19-0.48-0.19c-0.18,0-0.35,0.08-0.48,0.21c-0.06,0.06-0.1,0.13-0.13,0.2l0,0.01
	c-0.01,0.02-0.01,0.03-0.02,0.05l0,0.01c-0.01,0.02-0.01,0.03-0.01,0.05c0,0.01,0,0.01,0,0.01c0,0.02-0.01,0.03-0.01,0.05
	c0,0.01,0,0.01,0,0.02c0,0.01,0,0.02,0,0.04l0.24,0.01L23.11,18c0,0.01,0,0.02,0,0.02c0,0.01,0,0.02,0,0.03c0,0.01,0,0.02,0,0.04
	c0,0.01,0,0.01,0,0.02c0,0.01,0,0.03,0.01,0.04l0,0c0,0,0,0,0,0l0,0.01c0.03,0.13,0.09,0.25,0.18,0.34l6.66,6.66H0.68
	c-0.27,0-0.52,0.16-0.63,0.41C0.02,25.67,0,25.76,0,25.85c0,0.02,0,0.05,0,0.07c0.04,0.35,0.33,0.61,0.68,0.61h29.29l-6.66,6.66
	c-0.02,0.02-0.03,0.03-0.04,0.05c-0.23,0.27-0.21,0.66,0.03,0.91c0.13,0.14,0.31,0.21,0.49,0.21c0.17,0,0.34-0.06,0.47-0.19
	c0.01,0,0.01-0.01,0.01-0.01l7.81-7.81l0.02-0.02c0.07-0.07,0.12-0.15,0.15-0.24c0-0.01,0.01-0.01,0.01-0.02l0,0
	c0-0.01,0.01-0.02,0.01-0.03c0-0.01,0-0.02,0.01-0.03c0-0.01,0-0.02,0.01-0.03c0-0.01,0-0.02,0.01-0.04c0-0.01,0-0.01,0-0.02
	c0-0.02,0-0.03,0-0.05l0-0.01C32.29,25.84,32.29,25.83,32.29,25.83z"/>
</svg>
