<?xml version="1.0" encoding="utf-8"?>
<!-- Generator: Adobe Illustrator 24.0.1, SVG Export Plug-In . SVG Version: 6.00 Build 0)  -->
<svg version="1.1" id="Layer_1" xmlns="http://www.w3.org/2000/svg" xmlns:xlink="http://www.w3.org/1999/xlink" x="0px" y="0px"
	 viewBox="0 0 107.23 51.83" style="enable-background:new 0 0 107.23 51.83;" xml:space="preserve">
<style type="text/css">
	.st0{fill:url(#SVGID_1_);}
	.st1{fill:url(#SVGID_2_);}
	.st2{fill:url(#SVGID_3_);}
	.st3{fill:url(#SVGID_4_);}
</style>
<g>
	<linearGradient id="SVGID_1_" gradientUnits="userSpaceOnUse" x1="0" y1="25.9171" x2="32.2858" y2="25.9171">
		<stop  offset="0" style="stop-color:#07BADA"/>
		<stop  offset="1" style="stop-color:#13F11F"/>
	</linearGradient>
	<path class="st0" d="M32.29,25.89c0-0.01,0-0.02,0-0.04c0-0.01,0-0.02,0-0.02c0-0.01,0-0.03-0.01-0.04c0-0.01-0.01-0.03-0.01-0.04
		c0-0.01,0-0.02-0.01-0.02c0-0.01-0.01-0.02-0.01-0.03c0-0.01-0.01-0.02-0.01-0.02l0,0c0-0.01-0.01-0.02-0.01-0.02
		c-0.01-0.01-0.01-0.03-0.02-0.04c0-0.01-0.01-0.02-0.01-0.03c-0.01-0.01-0.01-0.02-0.02-0.03c0-0.01-0.01-0.01-0.01-0.02
		c-0.01-0.01-0.01-0.02-0.02-0.03c0-0.01-0.01-0.01-0.01-0.02c-0.01-0.01-0.02-0.02-0.03-0.03c0,0-0.01-0.01-0.01-0.01l-7.82-7.82
		l0,0c-0.13-0.13-0.3-0.19-0.48-0.19c-0.18,0-0.35,0.08-0.48,0.21c-0.06,0.06-0.1,0.13-0.13,0.2l0,0.01
		c-0.01,0.02-0.01,0.03-0.02,0.05l0,0.01c-0.01,0.02-0.01,0.03-0.01,0.05c0,0.01,0,0.01,0,0.01c0,0.02-0.01,0.03-0.01,0.05
		c0,0.01,0,0.01,0,0.02c0,0.01,0,0.02,0,0.04l0.24,0.01l-0.24-0.01c0,0.01,0,0.02,0,0.02c0,0.01,0,0.02,0,0.03c0,0.01,0,0.02,0,0.04
		c0,0.01,0,0.01,0,0.02c0,0.01,0,0.03,0.01,0.04l0,0c0,0,0,0,0,0l0,0.01c0.03,0.13,0.09,0.25,0.18,0.34l6.66,6.66H0.68
		c-0.27,0-0.52,0.16-0.63,0.41C0.02,25.73,0,25.82,0,25.91c0,0.02,0,0.05,0,0.07c0.04,0.35,0.33,0.61,0.68,0.61h29.29l-6.66,6.66
		c-0.02,0.02-0.03,0.03-0.04,0.05c-0.23,0.27-0.21,0.66,0.03,0.91c0.13,0.14,0.31,0.21,0.49,0.21c0.17,0,0.34-0.06,0.47-0.19
		c0.01,0,0.01-0.01,0.01-0.01l7.81-7.81l0.02-0.02c0.07-0.07,0.12-0.15,0.15-0.24c0-0.01,0.01-0.01,0.01-0.02l0,0
		c0-0.01,0.01-0.02,0.01-0.03c0-0.01,0-0.02,0.01-0.03c0-0.01,0-0.02,0.01-0.03c0-0.01,0-0.02,0.01-0.04c0-0.01,0-0.01,0-0.02
		c0-0.02,0-0.03,0-0.05l0-0.01C32.29,25.91,32.29,25.9,32.29,25.89z"/>
	<g>
		<g>
			<linearGradient id="SVGID_2_" gradientUnits="userSpaceOnUse" x1="56.969" y1="25.9171" x2="108.8929" y2="25.9171">
				<stop  offset="0" style="stop-color:#07BADA"/>
				<stop  offset="1" style="stop-color:#13F11F"/>
			</linearGradient>
			<path class="st1" d="M80.41,36.9c-0.03,0.02-0.08,0.02-0.1,0.05c-1.07,1.58-2.64,2.39-4.44,2.71c-5,0.89-9.27-0.48-12.66-4.31
				c-1.92-2.16-3.15-4.72-4.08-7.43c-0.7-2.05-1.18-4.15-1.46-6.3c-0.01-0.08-0.02-0.15-0.02-0.23c-0.04-0.8,0.58-1.2,1.32-0.87
				c1.07,0.47,2.14,0.97,3.25,1.35c1.04,0.36,2.12,0.58,3.18,0.86c0.13,0.03,0.26,0.05,0.38,0.11c0.37,0.17,0.55,0.55,0.48,0.94
				c-0.08,0.39-0.4,0.67-0.81,0.65c-0.36-0.02-0.71-0.09-1.06-0.17c-1.52-0.34-3-0.79-4.44-1.39c-0.09-0.04-0.18-0.06-0.32-0.11
				c0.01,0.16,0.01,0.29,0.03,0.41c0.6,3.09,1.55,6.05,3.18,8.77c1.06,1.76,2.35,3.31,4.08,4.44c2.67,1.75,5.6,2.22,8.71,1.6
				c0.53-0.11,1.06-0.31,1.55-0.54c1.6-0.76,2.38-2.07,2.41-3.81c0.02-1.21-0.62-2.12-1.45-2.91c-0.14-0.13-0.3-0.24-0.43-0.37
				c-0.35-0.33-0.41-0.83-0.14-1.18c0.24-0.32,0.73-0.4,1.13-0.19c0.05,0.03,0.1,0.06,0.14,0.09c1.78,1.45,2.78,3.24,2.36,5.61
				c-0.05,0.28-0.03,0.49,0.19,0.71c1.84,1.83,3.19,3.99,4.12,6.41c0.03,0.07,0.07,0.13,0.16,0.2c0.39-3.36,1.06-6.66,2.29-9.83
				c-0.23-0.13-0.4-0.24-0.58-0.34c-1.67-0.97-2.84-2.37-3.54-4.17c-1.47-3.79-0.78-7.33,1.33-10.67c0.99-1.57,2.3-2.86,3.76-4
				c0.34-0.27,0.68-0.31,1.11-0.21c0.55,0.13,1.12,0.21,1.68,0.21c0.7-0.01,1.25-0.39,1.68-0.94c0.44-0.56,0.73-1.2,0.85-1.9
				c0.09-0.5,0.34-0.8,0.74-1.07c2.4-1.64,4.67-3.44,6.67-5.56c0.87-0.93,1.69-1.9,2.32-3.01c0.2-0.35,0.49-0.54,0.89-0.49
				c0.4,0.05,0.64,0.31,0.75,0.69c0.47,1.76,0.93,3.52,1.38,5.28c0.09,0.35,0.16,0.7,0.21,1.06c0.1,0.64-0.13,0.95-0.75,1.13
				c-0.38,0.11-0.76,0.23-1.11,0.41c-0.72,0.37-1.18,0.95-1.24,1.78c-0.04,0.51-0.29,0.83-0.78,0.99c-0.32,0.11-0.63,0.28-0.9,0.47
				c-0.74,0.53-1.05,1.27-0.94,2.18c0.07,0.58-0.13,0.97-0.58,1.09c-0.52,0.14-0.98-0.15-1.08-0.71c-0.23-1.3,0.09-2.46,1-3.41
				c0.37-0.39,0.86-0.67,1.32-0.97c0.16-0.11,0.3-0.2,0.35-0.4c0.35-1.38,1.28-2.24,2.55-2.79c0.1-0.04,0.2-0.1,0.36-0.18
				c-0.29-1.23-0.59-2.46-0.9-3.75c-0.14,0.13-0.21,0.19-0.27,0.26c-2.16,2.69-4.78,4.86-7.56,6.85c-0.14,0.1-0.27,0.21-0.42,0.29
				c-0.25,0.14-0.37,0.35-0.44,0.62c-0.18,0.7-0.47,1.36-0.9,1.95c-1.15,1.62-2.74,2.13-4.64,1.75c-0.41-0.08-0.67,0-0.96,0.26
				c-1.69,1.48-3.07,3.19-3.88,5.32c-0.63,1.67-0.85,3.39-0.53,5.14c0.17,0.92,0.49,1.81,0.97,2.64c1.12,1.94,2.92,2.84,4.97,3.4
				c0.16,0.04,0.33,0.07,0.49,0.13c0.43,0.16,0.64,0.57,0.53,1.01c-0.1,0.42-0.49,0.7-0.95,0.62c-0.44-0.08-0.88-0.21-1.35-0.33
				c-0.07,0.17-0.15,0.32-0.21,0.47c-0.93,2.56-1.51,5.2-1.84,7.9c-0.38,3.15-0.45,6.31-0.55,9.48c0,0.13,0,0.27-0.01,0.4
				c-0.05,0.49-0.41,0.81-0.87,0.79c-0.44-0.01-0.79-0.33-0.81-0.79c-0.02-0.47,0.02-0.95,0.01-1.42
				c-0.08-4.63-1.45-8.79-4.48-12.35c-0.1-0.12-0.21-0.22-0.31-0.33C80.49,36.92,80.45,36.91,80.41,36.9z"/>
			<linearGradient id="SVGID_3_" gradientUnits="userSpaceOnUse" x1="56.969" y1="25.9913" x2="108.8929" y2="25.9913">
				<stop  offset="0" style="stop-color:#07BADA"/>
				<stop  offset="1" style="stop-color:#13F11F"/>
			</linearGradient>
			<path class="st2" d="M100.92,18.21c1.89,0.55,2.07,0.65,3.1,1.8c0.25-0.2,0.29-0.46,0.21-0.74c-0.05-0.18-0.13-0.36-0.18-0.54
				c-0.11-0.46,0.08-0.86,0.5-1.02c0.41-0.16,0.83-0.01,1.07,0.4c0.7,1.18,0.37,2.71-0.78,3.47c-0.24,0.16-0.34,0.33-0.4,0.62
				c-0.11,0.57-0.26,1.14-0.47,1.69c-0.13,0.34-0.21,0.63-0.08,0.98c0.09,0.23,0.11,0.48,0.18,0.8c0.28,0,0.56,0.01,0.84,0
				c0.53-0.03,0.85,0.22,1.04,0.71c0.14,0.37,0.31,0.73,0.45,1.1c0.19,0.51,0.01,0.96-0.42,1.15c-0.46,0.2-0.91,0-1.16-0.51
				c-0.07-0.15-0.14-0.31-0.2-0.47c-0.1-0.26-0.26-0.35-0.53-0.24c-0.2,0.69-0.4,1.38-0.61,2.14c0.16,0.08,0.35,0.19,0.55,0.28
				c0.4,0.17,0.62,0.47,0.67,0.91c0.04,0.43,0.12,0.87,0.14,1.3c0.03,0.51-0.27,0.87-0.72,0.93c-0.48,0.06-0.86-0.24-0.96-0.76
				c-0.03-0.19-0.07-0.38-0.07-0.56c0-0.34-0.18-0.52-0.52-0.58c-0.52,0.5-1.05,1-1.63,1.56c0.12,0.19,0.24,0.42,0.38,0.64
				c0.19,0.29,0.25,0.58,0.15,0.92c-0.12,0.4-0.18,0.81-0.29,1.21c-0.14,0.52-0.54,0.78-1.01,0.69c-0.48-0.1-0.73-0.48-0.66-1.03
				c0.03-0.19,0.06-0.38,0.13-0.55c0.17-0.43,0.04-0.77-0.31-1.1c-1.63,0.52-3.26,0.5-4.8-0.38c-1.55-0.88-2.4-2.27-2.78-3.98
				c-0.45-0.16-0.82-0.09-1.12,0.28c-0.12,0.14-0.27,0.27-0.41,0.39c-0.38,0.31-0.87,0.3-1.19-0.02c-0.3-0.31-0.34-0.77-0.03-1.13
				c0.36-0.41,0.75-0.79,1.18-1.14c0.17-0.14,0.45-0.15,0.69-0.18c0.24-0.03,0.49-0.01,0.76-0.01c0.16-0.73,0.31-1.44,0.46-2.14
				c-0.21-0.33-0.48-0.33-0.8-0.19c-0.21,0.09-0.42,0.18-0.64,0.24c-0.42,0.12-0.77-0.02-0.91-0.34c-0.19-0.42-0.12-0.94,0.23-1.13
				c0.53-0.28,1.1-0.51,1.67-0.71c0.31-0.11,0.59,0.05,0.84,0.23c0.15,0.11,0.31,0.21,0.37,0.18c0.55-0.49,1.09-0.99,1.66-1.5
				c-0.04-0.23-0.16-0.36-0.46-0.31c-0.2,0.04-0.41,0.06-0.62,0.07c-0.51,0.02-0.86-0.26-0.93-0.72c-0.06-0.43,0.19-0.84,0.65-0.93
				c0.54-0.11,1.09-0.16,1.63-0.21c0.33-0.03,0.58,0.15,0.75,0.43c0.17,0.27,0.34,0.54,0.52,0.83c0.36-0.11,0.71-0.19,1.04-0.32
				c0.14-0.06,0.29-0.18,0.38-0.31c0.41-0.58,0.86-1.11,1.46-1.5c0.19-0.12,0.22-0.27,0.23-0.47c0.09-1.36,0.94-2.29,2.29-2.49
				c0.11-0.02,0.23-0.02,0.34-0.02c0.49,0.01,0.85,0.33,0.88,0.79c0.03,0.43-0.26,0.8-0.71,0.89c-0.17,0.04-0.34,0.05-0.5,0.1
				C101.19,17.77,100.98,17.91,100.92,18.21z M93.37,27.95c0.03,0.3,0.03,0.61,0.09,0.9c0.55,2.46,2.92,3.75,5.29,2.89
				c2.31-0.84,3.81-3.21,3.61-5.72c-0.21-2.8-2.8-4.46-5.43-3.49C95.03,23.23,93.26,25.31,93.37,27.95z M102.64,22.41
				c0.27-1.06-0.09-1.8-1.05-2.23c-0.79-0.36-1.54-0.19-2,0.47C100.78,20.9,101.77,21.48,102.64,22.41z"/>
			<linearGradient id="SVGID_4_" gradientUnits="userSpaceOnUse" x1="56.969" y1="28.5069" x2="108.8929" y2="28.5069">
				<stop  offset="0" style="stop-color:#07BADA"/>
				<stop  offset="1" style="stop-color:#13F11F"/>
			</linearGradient>
			<path class="st3" d="M75.2,31.44c0.28,0.07,0.48,0.11,0.67,0.18c0.5,0.16,0.75,0.57,0.63,1.05c-0.11,0.43-0.53,0.7-1.01,0.61
				c-0.32-0.06-0.65-0.1-0.93-0.24c-0.28-0.13-0.51-0.36-0.85-0.62c-0.16,0.06-0.44,0.16-0.79,0.29c0.16,0.14,0.28,0.24,0.39,0.35
				c0.32,0.32,0.36,0.8,0.1,1.14c-0.26,0.34-0.68,0.45-1.07,0.23c-0.33-0.18-0.68-0.37-0.93-0.64c-0.21-0.23-0.3-0.58-0.49-0.95
				c-0.09-0.02-0.29-0.05-0.54-0.1c0.07,0.18,0.13,0.29,0.16,0.41c0.1,0.37-0.05,0.74-0.37,0.94c-0.31,0.2-0.73,0.19-1-0.08
				c-0.3-0.29-0.58-0.6-0.8-0.96c-0.11-0.18-0.08-0.47-0.07-0.7c0.01-0.16,0.12-0.31,0.19-0.5c-0.19-0.17-0.37-0.33-0.5-0.45
				c-0.58,0.07-1.1,0.18-1.62,0.19c-0.64,0.02-1.22-0.23-1.73-0.63c-0.45-0.36-0.54-0.84-0.26-1.24c0.29-0.4,0.78-0.47,1.25-0.14
				c0.41,0.29,0.83,0.42,1.32,0.25c-0.04-0.58-0.07-1.14-0.11-1.74c-0.44-0.14-0.8,0.08-1.17,0.32c-0.2,0.13-0.41,0.28-0.64,0.32
				c-0.39,0.08-0.74-0.14-0.88-0.47c-0.16-0.38-0.02-0.7,0.22-0.99c0.58-0.71,1.38-0.98,2.23-0.9c0.74,0.08,1.16-0.23,1.55-0.75
				c-0.11-0.2-0.25-0.38-0.31-0.59c-0.16-0.54,0.7-1.81,1.26-1.89c0.51-0.08,0.98,0.34,0.95,0.88c-0.01,0.15-0.06,0.3-0.1,0.5
				c0.21-0.05,0.4-0.09,0.64-0.14c-0.18-0.93,0.54-1.27,1.09-1.7c0.36-0.29,0.85-0.21,1.13,0.12c0.3,0.35,0.29,0.81-0.05,1.18
				c-0.09,0.1-0.19,0.18-0.33,0.31c0.34,0.1,0.62,0.18,0.86,0.25c0.25-0.26,0.45-0.55,0.73-0.71c0.28-0.17,0.64-0.23,0.96-0.32
				c0.44-0.13,0.88,0.06,1.04,0.44c0.16,0.4-0.02,0.93-0.4,1.13c-0.2,0.1-0.41,0.17-0.68,0.28C76.74,27.27,76.93,29.28,75.2,31.44z
				 M71.66,31.15c1.05-0.05,2.01-0.43,2.64-1.4c0.44-0.67,0.57-1.4,0.21-2.15c-0.4-0.82-1.1-1.29-1.94-1.51
				c-1.1-0.29-2.1-0.05-3.02,0.64c-1.12,0.84-1.34,2.49-0.22,3.55C69.96,30.87,70.73,31.13,71.66,31.15z"/>
		</g>
	</g>
</g>
</svg>
