<?xml version="1.0" encoding="utf-8"?>
<!-- Generator: Adobe Illustrator 24.0.1, SVG Export Plug-In . SVG Version: 6.00 Build 0)  -->
<svg version="1.1" id="Layer_1" xmlns="http://www.w3.org/2000/svg" xmlns:xlink="http://www.w3.org/1999/xlink" x="0px" y="0px"
	 viewBox="0 0 113.31 51.83" style="enable-background:new 0 0 113.31 51.83;" xml:space="preserve">
<style type="text/css">
	.st0{fill:url(#SVGID_1_);}
	.st1{fill:url(#SVGID_2_);}
	.st2{fill:url(#SVGID_3_);}
	.st3{fill:url(#SVGID_4_);}
	.st4{fill:url(#SVGID_5_);}
	.st5{fill:url(#SVGID_6_);}
</style>
<g>
	<linearGradient id="SVGID_1_" gradientUnits="userSpaceOnUse" x1="0" y1="25.0944" x2="32.2858" y2="25.0944">
		<stop  offset="0" style="stop-color:#07BADA"/>
		<stop  offset="1" style="stop-color:#13F11F"/>
	</linearGradient>
	<path class="st0" d="M32.29,25.07c0-0.01,0-0.02,0-0.04c0-0.01,0-0.02,0-0.02c0-0.01,0-0.03-0.01-0.04c0-0.01-0.01-0.03-0.01-0.04
		c0-0.01,0-0.02-0.01-0.02c0-0.01-0.01-0.02-0.01-0.03c0-0.01-0.01-0.02-0.01-0.02l0,0c0-0.01-0.01-0.02-0.01-0.02
		c-0.01-0.01-0.01-0.03-0.02-0.04c0-0.01-0.01-0.02-0.01-0.03c-0.01-0.01-0.01-0.02-0.02-0.03c0-0.01-0.01-0.01-0.01-0.02
		c-0.01-0.01-0.01-0.02-0.02-0.03c0-0.01-0.01-0.01-0.01-0.02c-0.01-0.01-0.02-0.02-0.03-0.03c0,0-0.01-0.01-0.01-0.01l-7.82-7.82
		l0,0c-0.13-0.13-0.3-0.19-0.48-0.19c-0.18,0-0.35,0.08-0.48,0.21c-0.06,0.06-0.1,0.13-0.13,0.2l0,0.01
		c-0.01,0.02-0.01,0.03-0.02,0.05l0,0.01c-0.01,0.02-0.01,0.03-0.01,0.05c0,0.01,0,0.01,0,0.01c0,0.02-0.01,0.03-0.01,0.05
		c0,0.01,0,0.01,0,0.02c0,0.01,0,0.02,0,0.04l0.24,0.01l-0.24-0.01c0,0.01,0,0.02,0,0.02c0,0.01,0,0.02,0,0.03c0,0.01,0,0.02,0,0.04
		c0,0.01,0,0.01,0,0.02c0,0.01,0,0.03,0.01,0.04l0,0c0,0,0,0,0,0l0,0.01c0.03,0.13,0.09,0.25,0.18,0.34l6.66,6.66H0.68
		c-0.27,0-0.52,0.16-0.63,0.41C0.02,24.91,0,25,0,25.09c0,0.02,0,0.05,0,0.07c0.04,0.35,0.33,0.61,0.68,0.61h29.29l-6.66,6.66
		c-0.02,0.02-0.03,0.03-0.04,0.05c-0.23,0.27-0.21,0.66,0.03,0.91c0.13,0.14,0.31,0.21,0.49,0.21c0.17,0,0.34-0.06,0.47-0.19
		c0.01,0,0.01-0.01,0.01-0.01l7.81-7.81l0.02-0.02c0.07-0.07,0.12-0.15,0.15-0.24c0-0.01,0.01-0.01,0.01-0.02l0,0
		c0-0.01,0.01-0.02,0.01-0.03c0-0.01,0-0.02,0.01-0.03c0-0.01,0-0.02,0.01-0.03c0-0.01,0-0.02,0.01-0.04c0-0.01,0-0.01,0-0.02
		c0-0.02,0-0.03,0-0.05l0-0.01C32.29,25.08,32.29,25.08,32.29,25.07z"/>
	<g>
		<linearGradient id="SVGID_2_" gradientUnits="userSpaceOnUse" x1="66.4413" y1="33.0878" x2="114.9453" y2="33.0878">
			<stop  offset="0" style="stop-color:#07BADA"/>
			<stop  offset="1" style="stop-color:#13F11F"/>
		</linearGradient>
		<path class="st1" d="M83.05,32.96l0.75,0.27C83.56,33.11,83.3,33.05,83.05,32.96z"/>
		<linearGradient id="SVGID_3_" gradientUnits="userSpaceOnUse" x1="66.4413" y1="37.0454" x2="114.9453" y2="37.0454">
			<stop  offset="0" style="stop-color:#07BADA"/>
			<stop  offset="1" style="stop-color:#13F11F"/>
		</linearGradient>
		<path class="st2" d="M111.78,26.04c-0.04,0.78-0.07,1.59-0.11,2.5c-6.16,2.13-12.3,4.25-18.39,6.35
			c-4.94-1.72-9.81-3.42-14.74-5.14c-0.78,1.09-0.75,1.33,0.26,1.7c1.41,0.52,2.85,0.98,4.26,1.5c0.25,0.09,0.51,0.16,0.75,0.27
			l4.55,1.61l0,0c1.38,0.47,2.77,0.95,4.17,1.44c0.51,0.18,0.97,0.21,1.5,0.01c1.57-0.59,3.16-1.14,4.74-1.68
			c0.75-0.26,1.5-0.49,2.23-0.72l4.31-1.48l0,0c2.06-0.76,4.14-1.48,6.35-2.12c0,1.46,0,2.74,0,4.09c-1.29,0.68-2.67,1.1-3.9,1.46
			l-3.14,1.06c-3.45,1.22-6.86,2.46-10.3,3.62c-0.58,0.2-1.32,0.23-1.89,0.05C90.7,40,89,39.36,87.3,38.73l-4.17-1.41
			c-1.06-0.37-2.11-0.76-3.17-1.13c-0.6-0.21-1.21-0.5-1.84-0.11c-0.14,0.96-0.01,1.17,0.79,1.44c1.88,0.63,3.75,1.26,5.62,1.92
			c2.52,0.89,5.02,1.81,7.54,2.7c0.93,0.33,1.84,0.23,2.76-0.15c1.15-0.48,2.34-0.87,3.53-1.27c1.87-0.64,3.75-1.26,5.61-1.91
			c1.87-0.65,3.73-1.33,5.6-1.97c0.64-0.22,1.3-0.37,2.07-0.59c0,1.47,0,2.83,0,4.21c-6.17,2.13-12.27,4.24-18.34,6.34
			c-4.97-1.69-9.87-3.51-14.81-5.09c-0.64,0.93-0.63,1.2,0.03,1.56c0.38,0.2,0.79,0.34,1.2,0.48c1.79,0.61,3.6,1.18,5.38,1.81
			c2.56,0.9,5.1,1.85,7.66,2.74c0.33,0.12,0.78,0.09,1.12-0.03c2.97-1,5.94-2.04,8.9-3.06c2.97-1.02,5.95-2.03,8.91-3.07
			c0.55-0.19,1.05-0.54,1.53-0.79c0-5.19,0-10.24,0-15.26C112.74,25.63,112.29,25.58,111.78,26.04z"/>
		<linearGradient id="SVGID_4_" gradientUnits="userSpaceOnUse" x1="66.4413" y1="31.8533" x2="114.9453" y2="31.8533">
			<stop  offset="0" style="stop-color:#07BADA"/>
			<stop  offset="1" style="stop-color:#13F11F"/>
		</linearGradient>
		<path class="st3" d="M76.71,12.18c-0.42-0.17-0.92-0.22-1.39-0.23c-1.38-0.03-2.77-0.01-4.15-0.01c0,0,0,0,0,0
			c-1.47,0-2.94-0.02-4.41,0.01c-1.11,0.02-2.09,0.72-2.35,1.71c-0.24,0.95,0.21,1.69,0.96,2.22c0.49,0.35,0.64,0.78,0.64,1.32
			c0,0.35,0,0.69,0,1.04c0,9.21,0,18.41-0.01,27.62c0,1.06,0.13,2.07,0.57,3.03c1.27,2.74,4.58,3.55,7.03,2.33
			c1.89-0.94,2.7-2.57,2.85-4.59c0.03-0.47,0.01-0.95,0.01-1.43c0-9.12,0-18.24,0-27.36c0-0.82,0.04-1.51,0.86-2.13
			C78.68,14.69,78.3,12.84,76.71,12.18z M73.67,15.19c-0.45,1.01,0.79,0.91,1.21,1.52c0.01,0.29,0.05,0.67,0.05,1.05
			c0,9.39,0,18.78,0.01,28.17c0,1.21-0.21,2.32-1.09,3.22c-1.14,1.17-2.56,1.25-3.96,0.8c-1.27-0.41-1.99-1.48-2.24-2.79
			c-0.09-0.46-0.07-0.95-0.07-1.42c0-6.79,0-13.59,0-20.38c0-0.46,0.04-0.92,0.08-1.58c1.45,0,2.7,0.01,3.95,0
			c0.34,0,0.72,0.03,1.02-0.1c0.23-0.1,0.5-0.41,0.51-0.63c0.01-0.23-0.23-0.55-0.46-0.68c-0.24-0.14-0.58-0.12-0.88-0.13
			c-0.95-0.01-1.9,0.01-2.86-0.01c-0.41-0.01-0.83-0.09-1.29-0.15c0-1.93,0-3.72,0-5.64c0.57-0.05,1.07-0.12,1.57-0.14
			c0.78-0.03,1.57,0.04,2.33-0.08c0.28-0.04,0.64-0.46,0.71-0.75c0.1-0.46-0.33-0.68-0.75-0.69c-1.38-0.03-2.77-0.01-4.15-0.03
			c-0.5-0.01-1.07,0.09-1.32-0.63c0.22-0.67,0.82-0.61,1.36-0.61c2.55-0.01,5.11,0,7.66,0c0.26,0,0.54-0.02,0.77,0.06
			c0.25,0.09,0.46,0.3,0.72,0.48C75.86,15.35,74.46,14.25,73.67,15.19z"/>
		<linearGradient id="SVGID_5_" gradientUnits="userSpaceOnUse" x1="66.4413" y1="11.3417" x2="114.9453" y2="11.3417">
			<stop  offset="0" style="stop-color:#07BADA"/>
			<stop  offset="1" style="stop-color:#13F11F"/>
		</linearGradient>
		<path class="st4" d="M78.96,22.24c1.23-0.39,2.46-0.79,3.67-1.22c2.59-0.92,5.18-1.87,7.77-2.8c0.59-0.21,1.19-0.35,1.96-0.58
			c0,1.27,0.02,2.38-0.01,3.49c-0.02,0.72,0.18,1.25,0.88,1.48c0.75-0.27,0.67-0.87,0.67-1.43c0.01-2.59-0.01-5.19,0.01-7.78
			c0-0.5,0.1-1,0.14-1.42c1.19-0.29,2.24-0.53,3.27-0.82c0.95-0.27,1.91-0.54,2.81-0.93c1.04-0.45,1.84-1.19,2.4-2.22
			c1.21-2.21,1.56-4.63,1.82-7.08c0.02-0.2-0.09-0.41-0.18-0.81c-0.43,0-0.76,0.01-1.1,0c-1.72-0.06-3.34,0.47-4.93,0.97
			c-2.14,0.67-3.8,1.98-4.4,4.3c-0.09,0.33-0.31,0.63-0.53,1.08c-0.35-0.77-0.65-1.35-0.89-1.94c-0.53-1.35-1.41-2.36-2.79-2.86
			c-1.37-0.5-2.75-1.03-4.17-1.35c-1.01-0.22-2.1-0.41-3.21-0.08c-0.24,2.27,0.41,4.32,1.09,6.36c0.23,0.69,0.56,1.37,0.97,1.96
			c1.03,1.46,2.63,2.04,4.25,2.5c1.24,0.35,2.5,0.6,3.82,0.9c0,1.29,0,2.56,0,3.94c-0.92,0.33-1.8,0.65-2.68,0.96
			c-1.9,0.67-3.81,1.34-5.71,2.01c-1.7,0.6-3.42,1.18-5.11,1.8c-0.45,0.17-0.85,0.5-1.27,0.75C78.08,22.4,78.21,22.48,78.96,22.24z
			 M95.67,4.78c0.47-0.94,1.27-1.55,2.21-1.89c1.25-0.45,2.56-0.77,3.85-1.11c0.26-0.07,0.57,0.03,0.85,0.05
			c0.04,1.8-0.48,3.4-1.12,4.95c-0.45,1.1-1.34,1.85-2.5,2.29c-1.46,0.56-2.96,0.86-4.41,1.18c-0.13-0.16-0.24-0.23-0.24-0.28
			C94.47,8.16,94.85,6.41,95.67,4.78z M91.86,10.21c-1.38-0.33-2.77-0.63-4.13-1.04c-1.39-0.42-2.34-1.36-2.91-2.73
			c-0.4-0.97-1.04-3.46-1.02-4.62c0.25-0.03,0.43-0.09,0.58-0.07c1.79,0.31,3.56,0.7,5.14,1.64c0.77,0.45,1.17,1.23,1.51,2.03
			c0.62,1.48,0.92,3.03,1.23,4.59C92.08,10.11,91.95,10.23,91.86,10.21z"/>
		<linearGradient id="SVGID_6_" gradientUnits="userSpaceOnUse" x1="66.4413" y1="23.769" x2="114.9453" y2="23.769">
			<stop  offset="0" style="stop-color:#07BADA"/>
			<stop  offset="1" style="stop-color:#13F11F"/>
		</linearGradient>
		<path class="st5" d="M78.42,25.4c0.29,0.18,0.62,0.3,0.94,0.41c2.85,0.99,5.7,1.96,8.54,2.95c1.58,0.55,3.16,1.13,4.75,1.65
			c0.35,0.11,0.8,0.14,1.14,0.03c2.49-0.84,4.96-1.72,7.44-2.59c1.82-0.64,3.64-1.3,5.47-1.93c1.79-0.61,3.59-1.18,5.37-1.8
			c0.43-0.15,0.81-0.45,1.23-0.69c-0.08-0.29-0.07-0.58-0.2-0.67c-0.38-0.28-0.79-0.52-1.23-0.7c-0.52-0.21-1.08-0.31-1.6-0.49
			c-1.74-0.61-3.47-1.26-5.22-1.86c-2.07-0.72-4.15-1.41-6.23-2.11c-0.65-0.22-1.31-0.46-1.98-0.57c-0.25-0.04-0.71,0.22-0.8,0.45
			c-0.08,0.22,0.13,0.63,0.33,0.85c0.19,0.21,0.51,0.31,0.79,0.41c0.77,0.28,1.55,0.53,2.32,0.79c3.22,1.08,6.44,2.16,9.65,3.26
			c0.16,0.06,0.24,0.36,0.35,0.54c-5.46,1.88-10.82,3.73-16.21,5.6c-2.5-0.85-4.9-1.65-7.3-2.49c-1.86-0.65-3.71-1.35-5.57-2.01
			c-0.45-0.16-0.91-0.25-1.37-0.37c-0.42-0.11-0.79-0.06-1,0.36C77.82,24.87,78.08,25.19,78.42,25.4z"/>
	</g>
</g>
</svg>
