<?xml version="1.0" encoding="utf-8"?>
<!-- Generator: Adobe Illustrator 24.0.1, SVG Export Plug-In . SVG Version: 6.00 Build 0)  -->
<svg version="1.1" id="Layer_1" xmlns="http://www.w3.org/2000/svg" xmlns:xlink="http://www.w3.org/1999/xlink" x="0px" y="0px"
	 viewBox="0 0 93.21 44.08" style="enable-background:new 0 0 93.21 44.08;" xml:space="preserve">
<style type="text/css">
	.st0{fill:url(#SVGID_1_);}
	.st1{fill:url(#SVGID_2_);}
	.st2{fill:url(#SVGID_3_);}
	.st3{fill:url(#SVGID_4_);}
	.st4{fill:url(#SVGID_5_);}
	.st5{fill:url(#SVGID_6_);}
	.st6{fill:url(#SVGID_7_);}
	.st7{fill:url(#SVGID_8_);}
	.st8{fill:url(#SVGID_9_);}
	.st9{fill:url(#SVGID_10_);}
	.st10{fill:url(#SVGID_11_);}
</style>
<linearGradient id="SVGID_1_" gradientUnits="userSpaceOnUse" x1="0" y1="22.0379" x2="32.2858" y2="22.0379">
	<stop  offset="0" style="stop-color:#07BADA"/>
	<stop  offset="1" style="stop-color:#13F11F"/>
</linearGradient>
<path class="st0" d="M32.29,22.01c0-0.01,0-0.02,0-0.04c0-0.01,0-0.02,0-0.02c0-0.01,0-0.03-0.01-0.04c0-0.01-0.01-0.03-0.01-0.04
	c0-0.01,0-0.02-0.01-0.02c0-0.01-0.01-0.02-0.01-0.03c0-0.01-0.01-0.02-0.01-0.02l0,0c0-0.01-0.01-0.02-0.01-0.02
	c-0.01-0.01-0.01-0.03-0.02-0.04c0-0.01-0.01-0.02-0.01-0.03c-0.01-0.01-0.01-0.02-0.02-0.03c0-0.01-0.01-0.01-0.01-0.02
	c-0.01-0.01-0.01-0.02-0.02-0.03c0-0.01-0.01-0.01-0.01-0.02c-0.01-0.01-0.02-0.02-0.03-0.03c0,0-0.01-0.01-0.01-0.01l-7.82-7.82
	l0,0c-0.13-0.13-0.3-0.19-0.48-0.19c-0.18,0-0.35,0.08-0.48,0.21c-0.06,0.06-0.1,0.13-0.13,0.2l0,0.01
	c-0.01,0.02-0.01,0.03-0.02,0.05l0,0.01c-0.01,0.02-0.01,0.03-0.01,0.05c0,0.01,0,0.01,0,0.01c0,0.02-0.01,0.03-0.01,0.05
	c0,0.01,0,0.01,0,0.02c0,0.01,0,0.02,0,0.04l0.24,0.01l-0.24-0.01c0,0.01,0,0.02,0,0.02c0,0.01,0,0.02,0,0.03c0,0.01,0,0.02,0,0.04
	c0,0.01,0,0.01,0,0.02c0,0.01,0,0.03,0.01,0.04l0,0c0,0,0,0,0,0l0,0.01c0.03,0.13,0.09,0.25,0.18,0.34l6.66,6.66H0.68
	c-0.27,0-0.52,0.16-0.63,0.41C0.02,21.85,0,21.94,0,22.03c0,0.02,0,0.05,0,0.07c0.04,0.35,0.33,0.61,0.68,0.61h29.29l-6.66,6.66
	c-0.02,0.02-0.03,0.03-0.04,0.05c-0.23,0.27-0.21,0.66,0.03,0.91c0.13,0.14,0.31,0.21,0.49,0.21c0.17,0,0.34-0.06,0.47-0.19
	c0.01,0,0.01-0.01,0.01-0.01l7.81-7.81l0.02-0.02c0.07-0.07,0.12-0.15,0.15-0.24c0-0.01,0.01-0.01,0.01-0.02l0,0
	c0-0.01,0.01-0.02,0.01-0.03c0-0.01,0-0.02,0.01-0.03c0-0.01,0-0.02,0.01-0.03c0-0.01,0-0.02,0.01-0.04c0-0.01,0-0.01,0-0.02
	c0-0.02,0-0.03,0-0.05l0-0.01C32.29,22.03,32.29,22.02,32.29,22.01z"/>
<g>
	<linearGradient id="SVGID_2_" gradientUnits="userSpaceOnUse" x1="55.2414" y1="22.0379" x2="91.9485" y2="22.0379">
		<stop  offset="0" style="stop-color:#07BADA"/>
		<stop  offset="1" style="stop-color:#13F11F"/>
	</linearGradient>
	<path class="st1" d="M81.23,10.96c-0.4-0.4-0.94-0.62-1.5-0.62s-1.1,0.22-1.5,0.62c-0.4,0.4-0.62,0.94-0.62,1.5s0.22,1.1,0.62,1.5
		l3.62,3.62c0.4,0.4,0.94,0.62,1.5,0.62s1.1-0.22,1.5-0.62l7.73-7.73c0.4-0.4,0.62-0.94,0.62-1.5c0-0.57-0.22-1.1-0.62-1.5
		c-0.4-0.4-0.94-0.62-1.5-0.62s-1.1,0.22-1.5,0.62l-0.85,0.85c-0.63-0.48-1.33-0.87-2.06-1.15V5.58c0-1.17-0.95-2.13-2.12-2.13
		h-6.66V2.72c0-1.5-1.22-2.72-2.72-2.72h-7.43c-1.5,0-2.72,1.22-2.72,2.72v3.07c0,0.83,0.68,1.51,1.51,1.51h9.85
		c0.83,0,1.51-0.68,1.51-1.51V4.75h6.66c0.46,0,0.83,0.37,0.83,0.83v0.6c-0.53-0.11-1.08-0.16-1.63-0.16
		c-4.53,0-8.21,3.68-8.21,8.21s3.68,8.21,8.21,8.21c0.55,0,1.1-0.06,1.63-0.16v19.68c0,0.46-0.37,0.83-0.83,0.83H58.35
		c-0.46,0-0.83-0.37-0.83-0.83V5.58c0-0.46,0.37-0.83,0.83-0.83h4.3c0.36,0,0.65-0.29,0.65-0.65c0-0.36-0.29-0.65-0.65-0.65h-4.3
		c-1.17,0-2.12,0.95-2.12,2.13v36.37c0,1.17,0.95,2.12,2.12,2.12h26.19c1.17,0,2.12-0.95,2.12-2.12V21.9
		c1.03-0.39,1.98-0.99,2.79-1.78c1.54-1.49,2.42-3.48,2.5-5.62c0.01-0.36-0.27-0.66-0.62-0.67c-0.35-0.01-0.66,0.27-0.67,0.62
		c-0.1,3-2.08,5.48-4.79,6.35c-0.04,0.01-0.07,0.02-0.11,0.04c-0.64,0.19-1.32,0.29-2.02,0.29c-3.82,0-6.92-3.1-6.92-6.92
		s3.1-6.92,6.92-6.92c1.47,0,2.88,0.46,4.06,1.32l-4.46,4.46L81.23,10.96z M76.58,5.78c0,0.12-0.1,0.22-0.22,0.22h-9.85
		c-0.12,0-0.22-0.1-0.22-0.22V2.72c0-0.78,0.64-1.42,1.42-1.42h7.43c0.78,0,1.42,0.64,1.42,1.42V5.78z M90.49,7.76
		c0.16-0.16,0.37-0.24,0.59-0.24c0.22,0,0.43,0.09,0.59,0.24c0.32,0.32,0.32,0.85,0,1.18l-7.74,7.73c-0.16,0.16-0.37,0.24-0.59,0.24
		s-0.43-0.09-0.59-0.24l-3.62-3.62c-0.16-0.16-0.24-0.37-0.24-0.59s0.09-0.43,0.24-0.59c0.16-0.16,0.37-0.24,0.59-0.24
		c0.22,0,0.43,0.09,0.59,0.24l2.57,2.57c0.25,0.25,0.66,0.25,0.91,0L90.49,7.76z"/>
	<linearGradient id="SVGID_3_" gradientUnits="userSpaceOnUse" x1="55.2414" y1="16.8777" x2="91.9485" y2="16.8777">
		<stop  offset="0" style="stop-color:#07BADA"/>
		<stop  offset="1" style="stop-color:#13F11F"/>
	</linearGradient>
	<path class="st2" d="M73.82,16.23h-7.88c-0.36,0-0.65,0.29-0.65,0.65c0,0.36,0.29,0.65,0.65,0.65h7.88c0.36,0,0.65-0.29,0.65-0.65
		C74.47,16.52,74.18,16.23,73.82,16.23z"/>
	<linearGradient id="SVGID_4_" gradientUnits="userSpaceOnUse" x1="55.2414" y1="19.8775" x2="91.9485" y2="19.8775">
		<stop  offset="0" style="stop-color:#07BADA"/>
		<stop  offset="1" style="stop-color:#13F11F"/>
	</linearGradient>
	<path class="st3" d="M65.95,20.52h7.88c0.36,0,0.65-0.29,0.65-0.65c0-0.36-0.29-0.65-0.65-0.65h-7.88c-0.36,0-0.65,0.29-0.65,0.65
		C65.3,20.23,65.59,20.52,65.95,20.52z"/>
	<linearGradient id="SVGID_5_" gradientUnits="userSpaceOnUse" x1="55.2414" y1="24.7204" x2="91.9485" y2="24.7204">
		<stop  offset="0" style="stop-color:#07BADA"/>
		<stop  offset="1" style="stop-color:#13F11F"/>
	</linearGradient>
	<path class="st4" d="M76.55,24.07h-10.6c-0.36,0-0.65,0.29-0.65,0.65s0.29,0.65,0.65,0.65h10.6c0.36,0,0.65-0.29,0.65-0.65
		S76.9,24.07,76.55,24.07z"/>
	<linearGradient id="SVGID_6_" gradientUnits="userSpaceOnUse" x1="55.2414" y1="27.7202" x2="91.9485" y2="27.7202">
		<stop  offset="0" style="stop-color:#07BADA"/>
		<stop  offset="1" style="stop-color:#13F11F"/>
	</linearGradient>
	<path class="st5" d="M65.95,28.37h5.3c0.36,0,0.65-0.29,0.65-0.65c0-0.36-0.29-0.65-0.65-0.65h-5.3c-0.36,0-0.65,0.29-0.65,0.65
		C65.3,28.08,65.59,28.37,65.95,28.37z"/>
	<linearGradient id="SVGID_7_" gradientUnits="userSpaceOnUse" x1="55.2414" y1="32.5713" x2="91.9485" y2="32.5713">
		<stop  offset="0" style="stop-color:#07BADA"/>
		<stop  offset="1" style="stop-color:#13F11F"/>
	</linearGradient>
	<path class="st6" d="M65.95,33.22h7.88c0.36,0,0.65-0.29,0.65-0.65s-0.29-0.65-0.65-0.65h-7.88c-0.36,0-0.65,0.29-0.65,0.65
		S65.59,33.22,65.95,33.22z"/>
	<linearGradient id="SVGID_8_" gradientUnits="userSpaceOnUse" x1="55.2414" y1="35.571" x2="91.9485" y2="35.571">
		<stop  offset="0" style="stop-color:#07BADA"/>
		<stop  offset="1" style="stop-color:#13F11F"/>
	</linearGradient>
	<path class="st7" d="M65.95,36.22h10.6c0.36,0,0.65-0.29,0.65-0.65c0-0.36-0.29-0.65-0.65-0.65h-10.6c-0.36,0-0.65,0.29-0.65,0.65
		C65.3,35.93,65.59,36.22,65.95,36.22z"/>
	<linearGradient id="SVGID_9_" gradientUnits="userSpaceOnUse" x1="55.2414" y1="18.2824" x2="91.9485" y2="18.2824">
		<stop  offset="0" style="stop-color:#07BADA"/>
		<stop  offset="1" style="stop-color:#13F11F"/>
	</linearGradient>
	<path class="st8" d="M61.73,15.67c-1.44,0-2.61,1.17-2.61,2.61s1.17,2.61,2.61,2.61c1.44,0,2.61-1.17,2.61-2.61
		S63.17,15.67,61.73,15.67z M61.73,19.6c-0.73,0-1.32-0.59-1.32-1.32s0.59-1.32,1.32-1.32c0.73,0,1.32,0.59,1.32,1.32
		S62.46,19.6,61.73,19.6z"/>
	<linearGradient id="SVGID_10_" gradientUnits="userSpaceOnUse" x1="55.2414" y1="26.2201" x2="91.9485" y2="26.2201">
		<stop  offset="0" style="stop-color:#07BADA"/>
		<stop  offset="1" style="stop-color:#13F11F"/>
	</linearGradient>
	<path class="st9" d="M61.73,23.61c-1.44,0-2.61,1.17-2.61,2.61c0,1.44,1.17,2.61,2.61,2.61c1.44,0,2.61-1.17,2.61-2.61
		C64.34,24.78,63.17,23.61,61.73,23.61z M61.73,27.54c-0.73,0-1.32-0.59-1.32-1.32c0-0.73,0.59-1.32,1.32-1.32
		c0.73,0,1.32,0.59,1.32,1.32C63.05,26.95,62.46,27.54,61.73,27.54z"/>
	<linearGradient id="SVGID_11_" gradientUnits="userSpaceOnUse" x1="55.2414" y1="34.0711" x2="91.9485" y2="34.0711">
		<stop  offset="0" style="stop-color:#07BADA"/>
		<stop  offset="1" style="stop-color:#13F11F"/>
	</linearGradient>
	<path class="st10" d="M61.73,31.46c-1.44,0-2.61,1.17-2.61,2.61c0,1.44,1.17,2.61,2.61,2.61c1.44,0,2.61-1.17,2.61-2.61
		C64.34,32.63,63.17,31.46,61.73,31.46z M61.73,35.39c-0.73,0-1.32-0.59-1.32-1.32s0.59-1.32,1.32-1.32c0.73,0,1.32,0.59,1.32,1.32
		S62.46,35.39,61.73,35.39z"/>
</g>
</svg>
