<?xml version="1.0" encoding="utf-8"?>
<!-- Generator: Adobe Illustrator 24.0.1, SVG Export Plug-In . SVG Version: 6.00 Build 0)  -->
<svg version="1.1" id="Layer_1" xmlns="http://www.w3.org/2000/svg" xmlns:xlink="http://www.w3.org/1999/xlink" x="0px" y="0px"
	 viewBox="0 0 100.22 44.08" style="enable-background:new 0 0 100.22 44.08;" xml:space="preserve">
<style type="text/css">
	.st0{fill:url(#SVGID_1_);}
	.st1{fill:url(#SVGID_2_);}
	.st2{fill:url(#SVGID_3_);}
	.st3{fill:url(#SVGID_4_);}
	.st4{fill:url(#SVGID_5_);}
	.st5{fill:url(#SVGID_6_);}
	.st6{fill:url(#SVGID_7_);}
	.st7{fill:url(#SVGID_8_);}
	.st8{fill:url(#SVGID_9_);}
	.st9{fill:url(#SVGID_10_);}
	.st10{fill:url(#SVGID_11_);}
	.st11{fill:url(#SVGID_12_);}
</style>
<linearGradient id="SVGID_1_" gradientUnits="userSpaceOnUse" x1="0" y1="22.0379" x2="32.2858" y2="22.0379">
	<stop  offset="0" style="stop-color:#07BADA"/>
	<stop  offset="1" style="stop-color:#13F11F"/>
</linearGradient>
<path class="st0" d="M32.29,22.01c0-0.01,0-0.02,0-0.04c0-0.01,0-0.02,0-0.02c0-0.01,0-0.03-0.01-0.04c0-0.01-0.01-0.03-0.01-0.04
	c0-0.01,0-0.02-0.01-0.02c0-0.01-0.01-0.02-0.01-0.03c0-0.01-0.01-0.02-0.01-0.02l0,0c0-0.01-0.01-0.02-0.01-0.02
	c-0.01-0.01-0.01-0.03-0.02-0.04c0-0.01-0.01-0.02-0.01-0.03c-0.01-0.01-0.01-0.02-0.02-0.03c0-0.01-0.01-0.01-0.01-0.02
	c-0.01-0.01-0.01-0.02-0.02-0.03c0-0.01-0.01-0.01-0.01-0.02c-0.01-0.01-0.02-0.02-0.03-0.03c0,0-0.01-0.01-0.01-0.01l-7.82-7.82
	l0,0c-0.13-0.13-0.3-0.19-0.48-0.19c-0.18,0-0.35,0.08-0.48,0.21c-0.06,0.06-0.1,0.13-0.13,0.2l0,0.01
	c-0.01,0.02-0.01,0.03-0.02,0.05l0,0.01c-0.01,0.02-0.01,0.03-0.01,0.05c0,0.01,0,0.01,0,0.01c0,0.02-0.01,0.03-0.01,0.05
	c0,0.01,0,0.01,0,0.02c0,0.01,0,0.02,0,0.04l0.24,0.01l-0.24-0.01c0,0.01,0,0.02,0,0.02c0,0.01,0,0.02,0,0.03c0,0.01,0,0.02,0,0.04
	c0,0.01,0,0.01,0,0.02c0,0.01,0,0.03,0.01,0.04l0,0c0,0,0,0,0,0l0,0.01c0.03,0.13,0.09,0.25,0.18,0.34l6.66,6.66H0.68
	c-0.27,0-0.52,0.16-0.63,0.41C0.02,21.85,0,21.94,0,22.03c0,0.02,0,0.05,0,0.07c0.04,0.35,0.33,0.61,0.68,0.61h29.29l-6.66,6.66
	c-0.02,0.02-0.03,0.03-0.04,0.05c-0.23,0.27-0.21,0.66,0.03,0.91c0.13,0.14,0.31,0.21,0.49,0.21c0.17,0,0.34-0.06,0.47-0.19
	c0.01,0,0.01-0.01,0.01-0.01l7.81-7.81l0.02-0.02c0.07-0.07,0.12-0.15,0.15-0.24c0-0.01,0.01-0.01,0.01-0.02l0,0
	c0-0.01,0.01-0.02,0.01-0.03c0-0.01,0-0.02,0.01-0.03c0-0.01,0-0.02,0.01-0.03c0-0.01,0-0.02,0.01-0.04c0-0.01,0-0.01,0-0.02
	c0-0.02,0-0.03,0-0.05l0-0.01C32.29,22.03,32.29,22.02,32.29,22.01z"/>
<g>
	<linearGradient id="SVGID_2_" gradientUnits="userSpaceOnUse" x1="60.9236" y1="34.623" x2="70.3493" y2="34.623">
		<stop  offset="0" style="stop-color:#07BADA"/>
		<stop  offset="1" style="stop-color:#13F11F"/>
	</linearGradient>
	<path class="st1" d="M65.08,30l-0.06-0.09l-0.08,0.08l-3.96,3.96l-0.06,0.06l0.06,0.06l5.2,5.2l0.06,0.06l0.06-0.06l3.96-3.96
		l0.08-0.08l-0.09-0.06C68.15,33.9,66.36,32.11,65.08,30z M66.25,39.21l-5.2-5.2l3.96-3.96c1.29,2.13,3.08,3.91,5.2,5.2L66.25,39.21
		z"/>
	<linearGradient id="SVGID_3_" gradientUnits="userSpaceOnUse" x1="86.0945" y1="35.7962" x2="95.5194" y2="35.7962">
		<stop  offset="0" style="stop-color:#07BADA"/>
		<stop  offset="1" style="stop-color:#13F11F"/>
	</linearGradient>
	<path class="st2" d="M89.7,32.26l-0.03,0.03c-1.01,1.13-2.19,2.11-3.49,2.9l-0.09,0.06l0.08,0.08l3.96,3.96l0.06,0.06l0.06-0.06
		l5.2-5.2l0.06-0.06l-0.06-0.06l-1.67-1.67l-0.03-0.03h-0.04h-3.99H89.7z M95.4,34.01l-5.2,5.2l-3.96-3.96
		c1.31-0.79,2.49-1.77,3.51-2.91h3.99L95.4,34.01z"/>
	<linearGradient id="SVGID_4_" gradientUnits="userSpaceOnUse" x1="94.3288" y1="19.0936" x2="98.9178" y2="19.0936">
		<stop  offset="0" style="stop-color:#07BADA"/>
		<stop  offset="1" style="stop-color:#13F11F"/>
	</linearGradient>
	<path class="st3" d="M98.83,30.96h0.09v-0.09V7.32V7.23h-0.09h-4.42h-0.09v0.09v23.55v0.09h0.09H98.83z M94.42,7.32h4.42v23.55
		h-4.42V7.32z"/>
	<linearGradient id="SVGID_5_" gradientUnits="userSpaceOnUse" x1="74.4549" y1="39.8371" x2="81.9882" y2="39.8371">
		<stop  offset="0" style="stop-color:#07BADA"/>
		<stop  offset="1" style="stop-color:#13F11F"/>
	</linearGradient>
	<path class="st4" d="M78.22,37.41c-1.23,0-2.46-0.15-3.66-0.44l-0.11-0.03v0.11v5.6v0.09h0.09h7.36h0.09v-0.09v-5.6v-0.11
		l-0.11,0.03C80.68,37.26,79.45,37.41,78.22,37.41z M81.9,42.65h-7.36v-5.6c1.21,0.3,2.44,0.44,3.68,0.44
		c1.24,0,2.47-0.15,3.68-0.45V42.65z"/>
	<linearGradient id="SVGID_6_" gradientUnits="userSpaceOnUse" x1="76.6631" y1="16.1493" x2="78.3078" y2="16.1493">
		<stop  offset="0" style="stop-color:#07BADA"/>
		<stop  offset="1" style="stop-color:#13F11F"/>
	</linearGradient>
	<path class="st5" d="M78.22,16.97h0.09v-0.09v-1.47v-0.09h-0.09h-1.47h-0.09v0.09v1.47v0.09h0.09H78.22z M76.75,15.41h1.47v1.47
		h-1.47V15.41z"/>
	<linearGradient id="SVGID_7_" gradientUnits="userSpaceOnUse" x1="88.4403" y1="4.3722" x2="90.0849" y2="4.3722">
		<stop  offset="0" style="stop-color:#07BADA"/>
		<stop  offset="1" style="stop-color:#13F11F"/>
	</linearGradient>
	<path class="st6" d="M90,5.19h0.09V5.11V3.64V3.55H90h-1.47h-0.09v0.09v1.47v0.09h0.09H90z M88.53,3.64H90v1.47h-1.47V3.64z"/>
	<linearGradient id="SVGID_8_" gradientUnits="userSpaceOnUse" x1="82.5517" y1="10.2608" x2="84.1964" y2="10.2608">
		<stop  offset="0" style="stop-color:#07BADA"/>
		<stop  offset="1" style="stop-color:#13F11F"/>
	</linearGradient>
	<path class="st7" d="M84.11,11.08h0.09V11V9.52V9.44h-0.09h-1.47h-0.09v0.09V11v0.09h0.09H84.11z M82.64,9.52h1.47V11h-1.47V9.52z"
		/>
	<linearGradient id="SVGID_9_" gradientUnits="userSpaceOnUse" x1="76.6631" y1="26.8224" x2="81.2521" y2="26.8224">
		<stop  offset="0" style="stop-color:#07BADA"/>
		<stop  offset="1" style="stop-color:#13F11F"/>
	</linearGradient>
	<path class="st8" d="M78.22,30.96L78.22,30.96h2.94h0.09v-0.09v-8.1v-0.09h-0.09h-4.42h-0.09v0.09v7.97v0.07l0.07,0.01
		C77.22,30.92,77.72,30.96,78.22,30.96z M76.75,22.77h4.42v8.1h-2.94c-0.49,0-0.99-0.04-1.47-0.12V22.77z"/>
	<linearGradient id="SVGID_10_" gradientUnits="userSpaceOnUse" x1="82.5517" y1="24.2461" x2="87.1406" y2="24.2461">
		<stop  offset="0" style="stop-color:#07BADA"/>
		<stop  offset="1" style="stop-color:#13F11F"/>
	</linearGradient>
	<path class="st9" d="M87.05,30.96h0.09v-0.09V17.62v-0.09h-0.09h-4.42h-0.09v0.09v13.25v0.09h0.09H87.05z M82.64,17.62h4.42v13.25
		h-4.42V17.62z"/>
	<linearGradient id="SVGID_11_" gradientUnits="userSpaceOnUse" x1="88.4403" y1="22.0379" x2="93.0292" y2="22.0379">
		<stop  offset="0" style="stop-color:#07BADA"/>
		<stop  offset="1" style="stop-color:#13F11F"/>
	</linearGradient>
	<path class="st10" d="M92.94,30.96h0.09v-0.09V13.21v-0.09h-0.09h-4.42h-0.09v0.09v17.67v0.09h0.09H92.94z M88.53,13.21h4.42v17.67
		h-4.42V13.21z"/>
	<linearGradient id="SVGID_12_" gradientUnits="userSpaceOnUse" x1="56.2257" y1="22.0379" x2="100.2174" y2="22.0379">
		<stop  offset="0" style="stop-color:#07BADA"/>
		<stop  offset="1" style="stop-color:#13F11F"/>
	</linearGradient>
	<path class="st11" d="M69.39,21.95h2.94c0.17,0,0.34-0.07,0.46-0.19l3.46-3.46l0.03-0.03h0.04h2.64c0.36,0,0.65-0.29,0.65-0.65
		v-2.64v-0.04l0.03-0.03l2.51-2.51l0.03-0.03h0.04h2.64c0.36,0,0.65-0.29,0.65-0.65V9.09V9.06l0.03-0.03l2.51-2.51l0.03-0.03h0.04
		h2.64c0.36,0,0.65-0.29,0.65-0.65V3.21V3.17l0.03-0.03l1.78-1.78l0.03-0.03h0.04h6.97v-1.3h-7.27c-0.17,0-0.34,0.07-0.46,0.19
		l-1.99,1.99l-0.03,0.03h-0.04h-2.64c-0.36,0-0.65,0.29-0.65,0.65v2.64v0.04L87.12,5.6L84.6,8.11l-0.03,0.03h-0.04H81.9
		c-0.36,0-0.65,0.29-0.65,0.65v2.64v0.04l-0.03,0.03L78.71,14l-0.03,0.03h-0.04h-2.64c-0.36,0-0.65,0.29-0.65,0.65v2.64v0.04
		l-0.03,0.03l-3.25,3.25l-0.03,0.03h-0.04h-2.52h-0.1l0.02-0.1c0.41-2.45,1.84-4.63,3.92-5.98l-0.7-1.09
		c-2.26,1.47-3.82,3.73-4.4,6.37c-0.59,2.67-0.1,5.4,1.37,7.7c0.92,1.44,2.2,2.64,3.7,3.46c1.5,0.82,3.2,1.26,4.91,1.26h9.45h0.22
		l-0.16,0.15c-2.6,2.39-5.98,3.7-9.51,3.7c-6.46,0-11.91-4.37-13.56-10.31h-1.35l0,0h-0.11h-5.6h-0.09v-0.09v-7.36v-0.09h0.09h5.89
		c0.26,0,0.5-0.16,0.6-0.4L65.29,15c0.1-0.24,0.05-0.52-0.14-0.71l-4.16-4.16l-0.06-0.06l0.06-0.06l5.2-5.2l0.06-0.06l0.06,0.06
		l4.16,4.16c0.12,0.12,0.29,0.19,0.46,0.19c0.09,0,0.17-0.02,0.25-0.05l2.87-1.19c0.24-0.1,0.4-0.34,0.4-0.6V1.43V1.34h0.09h7.36
		h0.09v0.09v4.33h1.3V0.69c0-0.36-0.29-0.65-0.65-0.65h-8.83c-0.36,0-0.65,0.29-0.65,0.65v6.13v0.06L73.1,6.9l-1.96,0.81l-0.05,0.02
		L71.05,7.7l-4.34-4.34c-0.12-0.12-0.29-0.19-0.46-0.19c-0.17,0-0.34,0.07-0.46,0.19l-6.25,6.25c-0.25,0.25-0.25,0.67,0,0.92
		l4.34,4.34l0.04,0.04l-0.02,0.05l-0.81,1.96l-0.02,0.05h-0.06h-6.13c-0.36,0-0.65,0.29-0.65,0.65v8.83c0,0.36,0.29,0.65,0.65,0.65
		h6.13h0.06l0.02,0.05l0.81,1.96l0.02,0.05l-0.04,0.04l-4.34,4.34c-0.25,0.25-0.25,0.67,0,0.92l6.25,6.25
		c0.12,0.12,0.29,0.19,0.46,0.19c0.17,0,0.34-0.07,0.46-0.19l4.34-4.34l0.04-0.04l0.05,0.02l1.96,0.81l0.05,0.02v0.06v6.13
		c0,0.36,0.29,0.65,0.65,0.65h8.83c0.36,0,0.65-0.29,0.65-0.65v-6.13v-0.06l0.05-0.02l1.96-0.81l0.05-0.02l0.04,0.04l4.34,4.34
		c0.12,0.12,0.29,0.19,0.46,0.19s0.34-0.07,0.46-0.19l6.25-6.25c0.25-0.25,0.25-0.67,0-0.92l-1.15-1.15l-0.15-0.15h0.21h3.75
		c0.36,0,0.65-0.29,0.65-0.65V6.58c0-0.36-0.29-0.65-0.65-0.65h-5.89c-0.36,0-0.65,0.29-0.65,0.65v5.15v0.09h-0.09h-5.15
		c-0.36,0-0.65,0.29-0.65,0.65v3.68v0.09h-0.09H81.9c-0.36,0-0.65,0.29-0.65,0.65v4.42v0.09h-0.09h-5.15
		c-0.36,0-0.65,0.29-0.65,0.65v2.39v0.55v0.09v1.3v0.09v0.91v3v0.12l-0.12-0.04c-2-0.71-3.68-2.11-4.75-3.95l-0.69-1.49
		c-0.34-0.96-0.51-1.96-0.51-2.97l0-0.09H69.39z M88.44,5.11V3.64V3.55h0.09H90h0.09v0.09v1.47v0.09H90h-1.47h-0.09V5.11z M82.55,11
		V9.52V9.44h0.09h1.47h0.09v0.09V11v0.09h-0.09h-1.47h-0.09V11z M76.66,16.89v-1.47v-0.09h0.09h1.47h0.09v0.09v1.47v0.09h-0.09
		h-1.47h-0.09V16.89z M70.27,35.31l-3.96,3.96l-0.06,0.06l-0.06-0.06l-5.2-5.2l-0.06-0.06l0.06-0.06l3.96-3.96l0.08-0.08L65.08,30
		c1.28,2.1,3.07,3.89,5.18,5.18l0.09,0.06L70.27,35.31z M81.99,37.05v5.6v0.09H81.9h-7.36h-0.09v-0.09v-5.6v-0.11l0.11,0.03
		c1.2,0.29,2.43,0.44,3.66,0.44c1.23,0,2.47-0.15,3.66-0.44l0.11-0.03V37.05z M94.33,30.87V7.32V7.23h0.09h4.42h0.09v0.09v23.55
		v0.09h-0.09h-4.42h-0.09V30.87z M93.73,32.26h0.04l0.03,0.03l1.67,1.67l0.06,0.06l-0.06,0.06l-5.2,5.2l-0.06,0.06l-0.06-0.06
		l-3.96-3.96l-0.08-0.08l0.09-0.06c1.3-0.79,2.47-1.76,3.49-2.9l0.03-0.03h0.04H93.73z M88.44,30.87V13.21v-0.09h0.09h4.42h0.09
		v0.09v17.67v0.09h-0.09h-4.42h-0.09V30.87z M82.55,30.87V17.62v-0.09h0.09h4.42h0.09v0.09v13.25v0.09h-0.09h-4.42h-0.09V30.87z
		 M76.66,30.75v-7.97v-0.09h0.09h4.42h0.09v0.09v8.1v0.09h-0.09h-2.94h0c-0.5,0-1-0.04-1.49-0.12l-0.07-0.01V30.75z"/>
</g>
</svg>
