<?xml version="1.0" encoding="utf-8"?>
<!-- Generator: Adobe Illustrator 24.0.1, SVG Export Plug-In . SVG Version: 6.00 Build 0)  -->
<svg version="1.1" id="Layer_1" xmlns="http://www.w3.org/2000/svg" xmlns:xlink="http://www.w3.org/1999/xlink" x="0px" y="0px"
	 viewBox="0 0 100.22 44.08" style="enable-background:new 0 0 100.22 44.08;" xml:space="preserve">
<style type="text/css">
	.st0{fill:url(#SVGID_1_);}
	.st1{fill:url(#SVGID_2_);}
</style>
<linearGradient id="SVGID_1_" gradientUnits="userSpaceOnUse" x1="0" y1="22.0379" x2="32.2858" y2="22.0379">
	<stop  offset="0" style="stop-color:#07BADA"/>
	<stop  offset="1" style="stop-color:#13F11F"/>
</linearGradient>
<path class="st0" d="M32.29,22.01c0-0.01,0-0.02,0-0.04c0-0.01,0-0.02,0-0.02c0-0.01,0-0.03-0.01-0.04c0-0.01-0.01-0.03-0.01-0.04
	c0-0.01,0-0.02-0.01-0.02c0-0.01-0.01-0.02-0.01-0.03c0-0.01-0.01-0.02-0.01-0.02l0,0c0-0.01-0.01-0.02-0.01-0.02
	c-0.01-0.01-0.01-0.03-0.02-0.04c0-0.01-0.01-0.02-0.01-0.03c-0.01-0.01-0.01-0.02-0.02-0.03c0-0.01-0.01-0.01-0.01-0.02
	c-0.01-0.01-0.01-0.02-0.02-0.03c0-0.01-0.01-0.01-0.01-0.02c-0.01-0.01-0.02-0.02-0.03-0.03c0,0-0.01-0.01-0.01-0.01l-7.82-7.82
	l0,0c-0.13-0.13-0.3-0.19-0.48-0.19c-0.18,0-0.35,0.08-0.48,0.21c-0.06,0.06-0.1,0.13-0.13,0.2l0,0.01
	c-0.01,0.02-0.01,0.03-0.02,0.05l0,0.01c-0.01,0.02-0.01,0.03-0.01,0.05c0,0.01,0,0.01,0,0.01c0,0.02-0.01,0.03-0.01,0.05
	c0,0.01,0,0.01,0,0.02c0,0.01,0,0.02,0,0.04l0.24,0.01l-0.24-0.01c0,0.01,0,0.02,0,0.02c0,0.01,0,0.02,0,0.03c0,0.01,0,0.02,0,0.04
	c0,0.01,0,0.01,0,0.02c0,0.01,0,0.03,0.01,0.04l0,0c0,0,0,0,0,0l0,0.01c0.03,0.13,0.09,0.25,0.18,0.34l6.66,6.66H0.68
	c-0.27,0-0.52,0.16-0.63,0.41C0.02,21.85,0,21.94,0,22.03c0,0.02,0,0.05,0,0.07c0.04,0.35,0.33,0.61,0.68,0.61h29.29l-6.66,6.66
	c-0.02,0.02-0.03,0.03-0.04,0.05c-0.23,0.27-0.21,0.66,0.03,0.91c0.13,0.14,0.31,0.21,0.49,0.21c0.17,0,0.34-0.06,0.47-0.19
	c0.01,0,0.01-0.01,0.01-0.01l7.81-7.81l0.02-0.02c0.07-0.07,0.12-0.15,0.15-0.24c0-0.01,0.01-0.01,0.01-0.02l0,0
	c0-0.01,0.01-0.02,0.01-0.03c0-0.01,0-0.02,0.01-0.03c0-0.01,0-0.02,0.01-0.03c0-0.01,0-0.02,0.01-0.04c0-0.01,0-0.01,0-0.02
	c0-0.02,0-0.03,0-0.05l0-0.01C32.29,22.03,32.29,22.02,32.29,22.01z"/>
<linearGradient id="SVGID_2_" gradientUnits="userSpaceOnUse" x1="56.2257" y1="22.0379" x2="99.9855" y2="22.0379">
	<stop  offset="0" style="stop-color:#07BADA"/>
	<stop  offset="1" style="stop-color:#13F11F"/>
</linearGradient>
<path class="st1" d="M91.49,15.67v-0.06h0.06h6.37c1.14,0,2.06-0.93,2.06-2.06V2.22c0-1.14-0.93-2.06-2.06-2.06h-4.95
	c-0.65,0-1.26,0.31-1.65,0.83l-1.49,1.98l-0.02,0.02h-0.03h-6.02c-1.14,0-2.06,0.93-2.06,2.06v2.83v0.06h-0.06h-6.41h-0.06l0-0.06
	C75,5.79,74.05,3.84,72.5,2.4c-1.56-1.45-3.59-2.24-5.72-2.24c-4.65,0-8.43,3.78-8.43,8.43c0,2.13,0.8,4.16,2.24,5.72
	c1.44,1.55,3.39,2.5,5.49,2.68l0.06,0v0.06v4.3v0.06l-0.06,0c-2.75,0.08-5.26,0.61-7.06,1.51c-1.8,0.89-2.79,2.09-2.79,3.37v13.45
	c0,1.58,1.82,2.56,3.34,3.1c1.93,0.69,4.57,1.09,7.22,1.09c2.65,0,5.28-0.4,7.22-1.09c1.52-0.54,3.34-1.52,3.34-3.1v-4.25v-0.06
	h0.06h4.28h0.06l0,0.06c0.18,2.29,1.2,4.41,2.89,5.99c1.7,1.58,3.9,2.45,6.22,2.45c5.04,0,9.14-4.1,9.14-9.14
	c0-2.31-0.87-4.52-2.45-6.22c-1.57-1.69-3.7-2.71-5.99-2.89l-0.06,0v-0.06V15.67z M83,5.76V5.05c0-0.42,0.34-0.77,0.77-0.77h6.69
	l1.89-2.52c0.14-0.19,0.37-0.31,0.61-0.31h4.95c0.42,0,0.77,0.34,0.77,0.77v3.54v0.06h-0.06H83.06H83V5.76z M73.58,6.41l0.01,0.04
	c0.22,0.69,0.33,1.41,0.33,2.14c0,0.73-0.11,1.45-0.33,2.14l-0.01,0.04h-0.04h-2.72h-0.07l0.01-0.07c0.14-0.72,0.21-1.41,0.21-2.11
	c0-0.7-0.07-1.39-0.21-2.11l-0.01-0.07h0.07h2.72H73.58z M70.38,12.11l0.01-0.04h0.04h2.46h0.1l-0.05,0.09
	c-0.95,1.63-2.47,2.81-4.28,3.31l-0.17,0.05l0.11-0.14C69.39,14.37,69.98,13.27,70.38,12.11z M69.36,10.77H64.2h-0.05l-0.01-0.05
	c-0.17-0.72-0.25-1.42-0.25-2.14c0-0.71,0.08-1.41,0.25-2.14l0.01-0.05h0.05h5.16h0.05l0.01,0.05c0.17,0.72,0.25,1.42,0.25,2.14
	c0,0.71-0.08,1.41-0.25,2.14l-0.01,0.05H69.36z M68.67,1.72c1.81,0.5,3.33,1.67,4.28,3.31l0.05,0.09h-0.1h-2.46H70.4l-0.01-0.04
	c-0.4-1.16-1-2.26-1.77-3.26L68.5,1.67L68.67,1.72z M66.78,1.69l0.04,0.04c0.52,0.53,1.49,1.66,2.15,3.3l0.03,0.08h-0.09h-4.27
	h-0.09l0.03-0.08c0.66-1.63,1.63-2.77,2.15-3.3L66.78,1.69z M60.61,5.02c0.95-1.63,2.47-2.81,4.28-3.31l0.17-0.05l-0.11,0.14
	c-0.78,1-1.37,2.1-1.77,3.26l-0.01,0.04h-0.04h-2.46h-0.1L60.61,5.02z M59.99,10.77l-0.01-0.04c-0.22-0.69-0.33-1.41-0.33-2.14
	c0-0.73,0.11-1.45,0.33-2.14l0.01-0.04h0.04h2.72h0.07l-0.01,0.07C62.66,7.2,62.6,7.89,62.6,8.59c0,0.7,0.07,1.39,0.21,2.11
	l0.01,0.07h-0.07h-2.72H59.99z M64.89,15.47c-1.81-0.5-3.33-1.67-4.28-3.31l-0.05-0.09h0.1h2.46h0.04l0.01,0.04
	c0.4,1.16,1,2.26,1.77,3.26l0.11,0.14L64.89,15.47z M64.59,12.15l-0.03-0.08h0.09h4.27H69l-0.03,0.08c-0.66,1.63-1.63,2.77-2.15,3.3
	l-0.04,0.04l-0.04-0.04C66.22,14.92,65.25,13.79,64.59,12.15z M76.04,37.68v2.05c0,0.63-0.95,1.35-2.53,1.9
	c-1.8,0.64-4.19,0.99-6.73,0.99s-4.92-0.35-6.73-0.99c-1.59-0.56-2.53-1.27-2.53-1.9v-2.05v-0.11l0.09,0.06
	c1.83,1.26,5.35,2.04,9.17,2.04c3.82,0,7.33-0.78,9.17-2.04l0.09-0.06V37.68z M76.04,33.44v2.05c0,0.63-0.95,1.35-2.53,1.9
	c-1.8,0.64-4.19,0.99-6.73,0.99s-4.92-0.35-6.73-0.99c-1.59-0.56-2.53-1.27-2.53-1.9v-2.05v-0.11l0.09,0.06
	c1.83,1.26,5.35,2.04,9.17,2.04c3.82,0,7.33-0.78,9.17-2.04l0.09-0.06V33.44z M76.04,28.82v2.42c0,0.63-0.95,1.35-2.53,1.9
	c-1.8,0.64-4.19,0.99-6.73,0.99s-4.92-0.35-6.73-0.99c-1.59-0.56-2.53-1.27-2.53-1.9v-2.42v-0.13l0.1,0.08
	c1.85,1.51,5.27,2.4,9.16,2.4c3.89,0,7.32-0.9,9.16-2.4l0.1-0.08V28.82z M73.44,28.74c-1.78,0.74-4.14,1.15-6.66,1.15
	c-2.52,0-4.88-0.41-6.66-1.15c-1.65-0.69-2.6-1.58-2.6-2.45c0-0.87,0.95-1.76,2.6-2.45c1.78-0.74,4.14-1.15,6.66-1.15
	c2.52,0,4.88,0.41,6.66,1.15c1.65,0.69,2.6,1.58,2.6,2.45C76.04,27.15,75.09,28.05,73.44,28.74z M81.74,34.13h-0.06H77.4h-0.06
	v-0.06v-7.79c0-1.28-0.99-2.48-2.79-3.37c-1.8-0.89-4.31-1.43-7.06-1.51l-0.06,0v-0.06v-4.3v-0.06l0.06,0
	c1.98-0.16,3.84-1.03,5.25-2.44c1.41-1.41,2.28-3.28,2.44-5.25l0-0.06h0.06h6.41h0.06V9.3v4.25c0,1.14,0.93,2.06,2.06,2.06h6.37
	h0.06v0.06v9.94v0.06l-0.06,0c-2.17,0.17-4.21,1.11-5.75,2.65c-1.54,1.54-2.48,3.59-2.65,5.75L81.74,34.13z M96.3,40.4
	c-1.48,1.43-3.41,2.22-5.46,2.22c-2.04,0-3.98-0.79-5.46-2.22l-0.03-0.03l0.01-0.04c0.66-2.09,2.58-3.5,4.76-3.5h1.42
	c2.19,0,4.1,1.41,4.76,3.5l0.01,0.04L96.3,40.4z M87.95,32.65c0-1.59,1.3-2.89,2.89-2.89c1.59,0,2.89,1.3,2.89,2.89
	c0,1.59-1.3,2.89-2.89,2.89C89.25,35.54,87.95,34.25,87.95,32.65z M98.69,34.78c0,1.56-0.46,3.08-1.34,4.38l-0.06,0.09l-0.05-0.1
	c-0.72-1.52-2.04-2.71-3.62-3.25l-0.1-0.03l0.08-0.07c0.9-0.8,1.42-1.94,1.42-3.14c0-2.31-1.88-4.19-4.19-4.19
	c-2.31,0-4.19,1.88-4.19,4.19c0,1.2,0.52,2.34,1.42,3.14l0.08,0.07l-0.1,0.03c-1.58,0.55-2.9,1.73-3.62,3.25l-0.05,0.1l-0.06-0.09
	c-0.87-1.3-1.34-2.81-1.34-4.38c0-4.33,3.52-7.85,7.85-7.85C95.17,26.93,98.69,30.45,98.69,34.78z M83.77,14.31
	c-0.42,0-0.77-0.34-0.77-0.77V7.18V7.12h0.06h15.57h0.06v0.06v6.37c0,0.42-0.34,0.77-0.77,0.77H83.77z"/>
</svg>
