<?xml version="1.0" encoding="utf-8"?>
<!-- Generator: Adobe Illustrator 24.0.1, SVG Export Plug-In . SVG Version: 6.00 Build 0)  -->
<svg version="1.1" id="Layer_1" xmlns="http://www.w3.org/2000/svg" xmlns:xlink="http://www.w3.org/1999/xlink" x="0px" y="0px"
	 viewBox="0 0 100.22 44.08" style="enable-background:new 0 0 100.22 44.08;" xml:space="preserve">
<style type="text/css">
	.st0{fill:url(#SVGID_1_);}
	.st1{fill:url(#SVGID_2_);}
	.st2{fill:url(#SVGID_3_);}
	.st3{fill:url(#SVGID_4_);}
	.st4{fill:url(#SVGID_5_);}
</style>
<linearGradient id="SVGID_1_" gradientUnits="userSpaceOnUse" x1="0" y1="23.95" x2="32.3" y2="23.95" gradientTransform="matrix(1 0 0 -1 0 46)">
	<stop  offset="0" style="stop-color:#07BADA"/>
	<stop  offset="1" style="stop-color:#13F11F"/>
</linearGradient>
<path class="st0" d="M32.29,22.01c0-0.01,0-0.02,0-0.04c0-0.01,0-0.02,0-0.02c0-0.01,0-0.03-0.01-0.04c0-0.01-0.01-0.03-0.01-0.04
	s0-0.02-0.01-0.02c0-0.01-0.01-0.02-0.01-0.03s-0.01-0.02-0.01-0.02l0,0c0-0.01-0.01-0.02-0.01-0.02c-0.01-0.01-0.01-0.03-0.02-0.04
	c0-0.01-0.01-0.02-0.01-0.03c-0.01-0.01-0.01-0.02-0.02-0.03c0-0.01-0.01-0.01-0.01-0.02c-0.01-0.01-0.01-0.02-0.02-0.03
	c0-0.01-0.01-0.01-0.01-0.02c-0.01-0.01-0.02-0.02-0.03-0.03l-0.01-0.01l-7.82-7.82l0,0c-0.13-0.13-0.3-0.19-0.48-0.19
	s-0.35,0.08-0.48,0.21c-0.06,0.06-0.1,0.13-0.13,0.2v0.01c-0.01,0.02-0.01,0.03-0.02,0.05v0.01c-0.01,0.02-0.01,0.03-0.01,0.05
	c0,0.01,0,0.01,0,0.01c0,0.02-0.01,0.03-0.01,0.05c0,0.01,0,0.01,0,0.02s0,0.02,0,0.04l0.24,0.01l-0.24-0.01c0,0.01,0,0.02,0,0.02
	c0,0.01,0,0.02,0,0.03c0,0.01,0,0.02,0,0.04c0,0.01,0,0.01,0,0.02s0,0.03,0.01,0.04l0,0l0,0v0.01c0.03,0.13,0.09,0.25,0.18,0.34
	L30,21.37H0.68c-0.27,0-0.52,0.16-0.63,0.41C0.02,21.85,0,21.94,0,22.03c0,0.02,0,0.05,0,0.07c0.04,0.35,0.33,0.61,0.68,0.61h29.29
	l-6.66,6.66c-0.02,0.02-0.03,0.03-0.04,0.05c-0.23,0.27-0.21,0.66,0.03,0.91c0.13,0.14,0.31,0.21,0.49,0.21
	c0.17,0,0.34-0.06,0.47-0.19c0.01,0,0.01-0.01,0.01-0.01l7.81-7.81l0.02-0.02c0.07-0.07,0.12-0.15,0.15-0.24
	c0-0.01,0.01-0.01,0.01-0.02l0,0c0-0.01,0.01-0.02,0.01-0.03s0-0.02,0.01-0.03c0-0.01,0-0.02,0.01-0.03c0-0.01,0-0.02,0.01-0.04
	c0-0.01,0-0.01,0-0.02c0-0.02,0-0.03,0-0.05v-0.01C32.29,22.03,32.29,22.02,32.29,22.01z"/>
<g>
	
		<linearGradient id="SVGID_2_" gradientUnits="userSpaceOnUse" x1="55.4143" y1="6.5001" x2="101.3288" y2="6.5001" gradientTransform="matrix(1 0 0 -1 0 46)">
		<stop  offset="0" style="stop-color:#07BADA"/>
		<stop  offset="1" style="stop-color:#13F11F"/>
	</linearGradient>
	<path class="st1" d="M79.19,38.62c-0.48,0-0.87,0.4-0.87,0.89c0,0.48,0.4,0.87,0.88,0.87c0.48,0,0.87-0.4,0.87-0.89
		S79.67,38.61,79.19,38.62z"/>
	
		<linearGradient id="SVGID_3_" gradientUnits="userSpaceOnUse" x1="55.4143" y1="15.7243" x2="101.3288" y2="15.7243" gradientTransform="matrix(1 0 0 -1 0 46)">
		<stop  offset="0" style="stop-color:#07BADA"/>
		<stop  offset="1" style="stop-color:#13F11F"/>
	</linearGradient>
	<path class="st2" d="M56.37,28.2c-0.03,0.21-0.07,0.41-0.1,0.61c-0.02,0.09-0.03,0.18-0.05,0.27v2.41
		c0.01,0.06,0.02,0.12,0.03,0.18c0.02,0.13,0.05,0.27,0.07,0.41c0.79,5.8,4.98,10.38,10.67,11.66c0.41,0.09,0.83,0.16,1.24,0.23
		c0.19,0.03,0.38,0.06,0.57,0.1h2.41c0.19-0.03,0.39-0.07,0.58-0.1c0.43-0.07,0.88-0.15,1.31-0.24c1.11-0.24,2.19-0.64,3.22-1.18
		c0.44-0.23,0.61-0.58,0.47-0.97c-0.07-0.22-0.21-0.38-0.39-0.46c-0.22-0.1-0.49-0.08-0.77,0.04l-0.22,0.09
		c-0.65,0.27-1.32,0.56-2,0.78c-0.35,0.12-0.73,0.19-1.08,0.26c-0.2,0.04-0.41,0.08-0.61,0.13c-0.31,0.07-0.43-0.07-0.52-0.32
		c-0.05-0.15-0.1-0.3-0.15-0.45c-0.25-0.75-0.52-1.53-0.84-2.26c-0.78-1.73-2.11-2.83-3.94-3.28c-0.49-0.12-0.92-0.25-1.3-0.39
		c-1.45-0.54-2.17-2.09-1.64-3.53c0.16-0.44,0.39-0.86,0.6-1.26c0.07-0.14,0.15-0.28,0.22-0.42c0.13-0.26,0.28-0.52,0.42-0.77
		c0.26-0.47,0.53-0.95,0.74-1.45c0.65-1.55,0.39-3.02-0.77-4.36c-0.61-0.71-1.39-1.32-2.51-2c-0.1-0.06-0.2-0.12-0.31-0.18
		l-0.28-0.16l0.09-0.1c0.03-0.03,0.06-0.06,0.08-0.09c0.05-0.06,0.11-0.12,0.17-0.17c1.82-1.64,3.98-2.67,6.42-3.06
		c0.13-0.02,0.27-0.03,0.36,0.05c0.09,0.07,0.11,0.19,0.12,0.34c0.02,0.48,0.07,0.85,0.14,1.19c0.27,1.25,1.01,2.09,2.2,2.49
		c0.21,0.07,0.43,0.14,0.64,0.2c0.21,0.06,0.43,0.13,0.64,0.2c0.61,0.21,0.82,0.57,0.7,1.23c-0.06,0.34-0.34,0.39-0.53,0.43
		c-0.29,0.06-0.58,0.1-0.87,0.14c-0.1,0.01-0.2,0.03-0.29,0.04c-0.77,0.12-1.35,0.44-1.72,0.96c-0.39,0.55-0.52,1.3-0.36,2.13
		c0.18,0.94,0.6,1.8,1.05,2.66c0.86,1.65,1.72,2.92,2.69,4c0.5,0.56,1.02,1.03,1.55,1.4c1.1,0.78,2.21,0.65,3.12-0.35
		c0.5-0.56,0.91-1.21,1.21-1.71c0.32-0.55,0.64-1.11,0.94-1.66c0.26-0.47,0.53-0.96,0.8-1.44c0.26-0.45,0.55-0.89,0.84-1.31
		c0.13-0.19,0.26-0.39,0.38-0.58l0.04-0.06l0.28,0.06l0.02,0.24c0.01,0.12,0.02,0.24,0.03,0.35c0.21,2.16-0.17,4.31-1.14,6.38
		c-0.02,0.05-0.05,0.1-0.07,0.15c-0.04,0.09-0.09,0.18-0.13,0.28c-0.19,0.45-0.05,0.88,0.36,1.07c0.4,0.19,0.8,0.03,1.03-0.39
		c0.57-1.07,0.95-2.09,1.17-3.13c1.11-5.17-0.2-9.62-3.9-13.23c-2.82-2.76-6.32-4.03-10.4-3.79C62.68,16.9,57.33,21.81,56.37,28.2z
		 M70.31,18.12c0.09-0.09,0.22-0.08,0.42-0.06c2.26,0.17,4.31,0.87,6.09,2.08c2.19,1.49,3.76,3.48,4.66,5.92
		c0.07,0.19,0.15,0.41-0.08,0.66c-1.16,1.23-2.01,2.66-2.63,3.78l-0.23,0.42c-0.46,0.83-0.94,1.69-1.43,2.53
		c-0.17,0.28-0.4,0.57-0.72,0.9c-0.16,0.17-0.32,0.25-0.49,0.25c-0.13,0-0.28-0.05-0.43-0.16c-0.35-0.24-0.64-0.48-0.89-0.73
		c-1.32-1.36-2.43-3.03-3.38-5.11c-0.22-0.48-0.38-0.96-0.49-1.41c-0.08-0.33-0.05-0.59,0.07-0.78c0.13-0.2,0.36-0.32,0.73-0.39
		c0.17-0.03,0.35-0.06,0.51-0.09c0.31-0.05,0.62-0.1,0.93-0.17c0.75-0.19,1.23-0.6,1.43-1.22c0.24-0.76,0.2-1.58-0.12-2.19
		c-0.29-0.55-0.78-0.95-1.47-1.16c-0.19-0.06-0.37-0.12-0.56-0.18c-0.27-0.08-0.54-0.17-0.8-0.26c-0.6-0.19-0.97-0.61-1.12-1.25
		c-0.04-0.17-0.06-0.34-0.09-0.51c-0.01-0.08-0.02-0.15-0.04-0.23v-0.02C70.21,18.39,70.21,18.22,70.31,18.12z M60.6,22.92
		c0.91,0.53,1.93,1.12,2.74,2.02c0.8,0.89,0.95,1.87,0.47,2.93c-0.18,0.39-0.39,0.77-0.6,1.14c-0.12,0.22-0.25,0.44-0.36,0.66
		c-0.08,0.15-0.16,0.3-0.24,0.45c-0.24,0.45-0.5,0.92-0.7,1.39c-0.47,1.12-0.41,2.41,0.15,3.55c0.55,1.12,1.5,1.93,2.6,2.21
		c0.34,0.09,0.69,0.19,1.02,0.28c0.13,0.04,0.27,0.08,0.4,0.12c1.03,0.29,1.83,0.88,2.38,1.75c0.47,0.73,0.82,1.57,1.16,2.73
		c0.03,0.1,0.05,0.22-0.02,0.3c-0.05,0.06-0.12,0.07-0.19,0.07c-0.03,0-0.07,0-0.1-0.01c-0.15-0.02-0.31-0.03-0.47-0.05
		c-0.32-0.03-0.64-0.06-0.96-0.12c-5.86-1.01-10.11-6.18-10.11-12.3c0.01-0.97,0.17-2.04,0.45-3.02c0.4-1.43,1.03-2.74,1.86-3.88
		c0.01-0.02,0.03-0.04,0.04-0.06C60.17,22.98,60.3,22.75,60.6,22.92z"/>
	
		<linearGradient id="SVGID_4_" gradientUnits="userSpaceOnUse" x1="55.4143" y1="36.16" x2="101.3288" y2="36.16" gradientTransform="matrix(1 0 0 -1 0 46)">
		<stop  offset="0" style="stop-color:#07BADA"/>
		<stop  offset="1" style="stop-color:#13F11F"/>
	</linearGradient>
	<path class="st3" d="M100.04,14.77c-0.14-0.15-0.23-0.25-0.29-0.31l-0.12-0.12c-1.35-1.35-2.74-2.75-4.12-4.11
		c-0.12-0.12-0.23-0.25-0.23-0.43s0.12-0.32,0.22-0.42c0.74-0.72,1.48-1.47,2.2-2.19c0.15-0.15,0.29-0.3,0.44-0.44
		c0.47-0.48,0.48-0.78,0-1.26c-1.09-1.09-2.22-2.23-3.37-3.38c-0.24-0.24-0.44-0.35-0.62-0.35s-0.38,0.11-0.63,0.36
		c-0.48,0.47-0.95,0.95-1.42,1.42c-0.39,0.4-0.79,0.79-1.19,1.19c-0.02,0.02-0.05,0.05-0.07,0.07c-0.15,0.15-0.24,0.24-0.38,0.24
		s-0.23-0.09-0.35-0.22c-0.03-0.03-0.06-0.06-0.1-0.1c-1.39-1.38-4.18-4.18-4.2-4.2l-0.27-0.27C85.39,0.09,85.18,0,84.95,0
		c-0.22,0-0.43,0.09-0.58,0.24l-0.11,0.11C84.23,0.37,82.07,2.53,81,3.6c-0.55,0.55-0.55,0.8-0.01,1.35
		c0.57,0.58,1.15,1.15,1.72,1.73c0.9,0.9,1.79,1.79,2.69,2.69c0.19,0.19,0.22,0.37,0.21,0.49c-0.02,0.22-0.17,0.37-0.23,0.41
		l-2.48,2.49c-0.41,0.41-0.41,1.07,0,1.47c1.05,1.05,2.1,2.1,3.15,3.15c0.2,0.2,0.46,0.3,0.74,0.3s0.54-0.11,0.74-0.3
		c1.6-1.6,2.55-2.55,2.61-2.61c0.11-0.12,0.23-0.18,0.35-0.18c0.17,0,0.28,0.12,0.36,0.2c0.02,0.02,0.03,0.03,0.05,0.05
		c0.46,0.46,0.91,0.91,1.37,1.37c1.02,1.02,2.07,2.07,3.11,3.1c0.18,0.18,0.34,0.29,0.48,0.34c0.06,0.02,0.12,0.03,0.18,0.03
		c0.18,0,0.37-0.1,0.58-0.3l0.01-0.01l1.48-1.49c0.03-0.04,0.06-0.08,0.1-0.11c0.16-0.15,0.37-0.37,0.64-0.63
		c0.52-0.52,1.07-1.08,1.07-1.08l0.13-0.13C100.34,15.61,100.34,15.1,100.04,14.77z M85.34,7.42c-0.91-0.91-1.86-1.86-2.79-2.79
		c-0.07-0.06-0.19-0.19-0.19-0.36c0-0.15,0.1-0.26,0.17-0.33c0.69-0.67,1.38-1.36,2.05-2.05c0.08-0.08,0.2-0.18,0.36-0.18
		s0.28,0.1,0.37,0.19c1.23,1.24,2.53,2.54,3.86,3.87c0.08,0.08,0.18,0.2,0.18,0.35c0,0.16-0.1,0.27-0.17,0.34
		c-0.47,0.46-0.94,0.93-1.39,1.39c-0.23,0.23-0.46,0.47-0.7,0.7C87.05,8.59,87,8.63,86.95,8.66c-0.02,0.01-0.04,0.03-0.05,0.04
		l-0.14,0.11l-0.13-0.12c-0.02-0.02-0.04-0.04-0.06-0.05c-0.04-0.04-0.08-0.07-0.12-0.11C86.08,8.16,85.71,7.79,85.34,7.42z
		 M87.19,15.84c-0.1,0.1-0.23,0.21-0.4,0.21s-0.3-0.11-0.39-0.21c-0.4-0.41-0.81-0.82-1.21-1.22c-0.21-0.21-0.44-0.43-0.65-0.65
		c-0.04-0.04-0.07-0.07-0.1-0.1c-0.15-0.14-0.24-0.24-0.24-0.39c0-0.15,0.1-0.24,0.24-0.39c0.03-0.03,0.06-0.06,0.09-0.09
		c2.38-2.38,4.75-4.76,7.13-7.14l2.01-2.01c0.02-0.02,0.04-0.04,0.05-0.05c0.03-0.03,0.06-0.06,0.08-0.08
		c0.1-0.12,0.21-0.19,0.34-0.19c0.17,0,0.3,0.13,0.34,0.17c0.46,0.47,0.94,0.95,1.4,1.41c0.23,0.23,0.45,0.46,0.68,0.68
		c0.04,0.04,0.08,0.08,0.11,0.13c0.02,0.02,0.03,0.04,0.05,0.06l0.12,0.14l-0.12,0.14c-0.02,0.03-0.04,0.05-0.07,0.08
		C96.6,6.4,96.56,6.45,96.5,6.51c-0.78,0.78-1.57,1.57-2.35,2.35C91.87,11.15,89.51,13.51,87.19,15.84z M98.4,15.67
		c-0.47,0.46-0.95,0.94-1.4,1.4c-0.23,0.23-0.45,0.46-0.68,0.68c-0.04,0.04-0.09,0.08-0.13,0.11c-0.02,0.01-0.04,0.03-0.05,0.04
		L96,18.01l-0.14-0.12c-0.02-0.02-0.04-0.03-0.06-0.05c-0.04-0.03-0.09-0.07-0.13-0.11c-0.39-0.39-0.77-0.77-1.16-1.16
		c-0.91-0.91-1.85-1.85-2.77-2.77c-0.07-0.07-0.16-0.18-0.16-0.33s0.09-0.26,0.16-0.33c0.83-0.82,1.47-1.46,2.05-2.05
		c0.08-0.08,0.2-0.18,0.36-0.18s0.28,0.1,0.37,0.19c1.14,1.15,2.37,2.38,3.86,3.87c0.09,0.09,0.19,0.21,0.19,0.36
		C98.56,15.45,98.51,15.56,98.4,15.67z"/>
	
		<linearGradient id="SVGID_5_" gradientUnits="userSpaceOnUse" x1="98.97" y1="28.71" x2="98.97" y2="28.71" gradientTransform="matrix(1 0 0 -1 0 46)">
		<stop  offset="0" style="stop-color:#07BADA"/>
		<stop  offset="1" style="stop-color:#13F11F"/>
	</linearGradient>
	<path class="st4" d="M98.97,17.29L98.97,17.29L98.97,17.29z"/>
</g>
</svg>
