<?xml version="1.0" encoding="utf-8"?>
<!-- Generator: Adobe Illustrator 24.0.1, SVG Export Plug-In . SVG Version: 6.00 Build 0)  -->
<svg version="1.1" id="Layer_1" xmlns="http://www.w3.org/2000/svg" xmlns:xlink="http://www.w3.org/1999/xlink" x="0px" y="0px"
	 viewBox="0 0 100.22 44.08" style="enable-background:new 0 0 100.22 44.08;" xml:space="preserve">
<style type="text/css">
	.st0{fill:url(#SVGID_1_);}
	.st1{fill:url(#SVGID_2_);}
	.st2{fill:url(#SVGID_3_);}
	.st3{fill:url(#SVGID_4_);}
	.st4{fill:url(#SVGID_5_);}
	.st5{fill:url(#SVGID_6_);}
</style>
<linearGradient id="SVGID_1_" gradientUnits="userSpaceOnUse" x1="0" y1="22.0379" x2="32.2858" y2="22.0379">
	<stop  offset="0" style="stop-color:#07BADA"/>
	<stop  offset="1" style="stop-color:#13F11F"/>
</linearGradient>
<path class="st0" d="M32.29,22.01c0-0.01,0-0.02,0-0.04c0-0.01,0-0.02,0-0.02c0-0.01,0-0.03-0.01-0.04c0-0.01-0.01-0.03-0.01-0.04
	c0-0.01,0-0.02-0.01-0.02c0-0.01-0.01-0.02-0.01-0.03c0-0.01-0.01-0.02-0.01-0.02l0,0c0-0.01-0.01-0.02-0.01-0.02
	c-0.01-0.01-0.01-0.03-0.02-0.04c0-0.01-0.01-0.02-0.01-0.03c-0.01-0.01-0.01-0.02-0.02-0.03c0-0.01-0.01-0.01-0.01-0.02
	c-0.01-0.01-0.01-0.02-0.02-0.03c0-0.01-0.01-0.01-0.01-0.02c-0.01-0.01-0.02-0.02-0.03-0.03c0,0-0.01-0.01-0.01-0.01l-7.82-7.82
	l0,0c-0.13-0.13-0.3-0.19-0.48-0.19c-0.18,0-0.35,0.08-0.48,0.21c-0.06,0.06-0.1,0.13-0.13,0.2l0,0.01
	c-0.01,0.02-0.01,0.03-0.02,0.05l0,0.01c-0.01,0.02-0.01,0.03-0.01,0.05c0,0.01,0,0.01,0,0.01c0,0.02-0.01,0.03-0.01,0.05
	c0,0.01,0,0.01,0,0.02c0,0.01,0,0.02,0,0.04l0.24,0.01l-0.24-0.01c0,0.01,0,0.02,0,0.02c0,0.01,0,0.02,0,0.03c0,0.01,0,0.02,0,0.04
	c0,0.01,0,0.01,0,0.02c0,0.01,0,0.03,0.01,0.04l0,0c0,0,0,0,0,0l0,0.01c0.03,0.13,0.09,0.25,0.18,0.34l6.66,6.66H0.68
	c-0.27,0-0.52,0.16-0.63,0.41C0.02,21.85,0,21.94,0,22.03c0,0.02,0,0.05,0,0.07c0.04,0.35,0.33,0.61,0.68,0.61h29.29l-6.66,6.66
	c-0.02,0.02-0.03,0.03-0.04,0.05c-0.23,0.27-0.21,0.66,0.03,0.91c0.13,0.14,0.31,0.21,0.49,0.21c0.17,0,0.34-0.06,0.47-0.19
	c0.01,0,0.01-0.01,0.01-0.01l7.81-7.81l0.02-0.02c0.07-0.07,0.12-0.15,0.15-0.24c0-0.01,0.01-0.01,0.01-0.02l0,0
	c0-0.01,0.01-0.02,0.01-0.03c0-0.01,0-0.02,0.01-0.03c0-0.01,0-0.02,0.01-0.03c0-0.01,0-0.02,0.01-0.04c0-0.01,0-0.01,0-0.02
	c0-0.02,0-0.03,0-0.05l0-0.01C32.29,22.03,32.29,22.02,32.29,22.01z"/>
<g>
	<linearGradient id="SVGID_2_" gradientUnits="userSpaceOnUse" x1="56.7537" y1="22.0379" x2="99.8311" y2="22.0379">
		<stop  offset="0" style="stop-color:#07BADA"/>
		<stop  offset="1" style="stop-color:#13F11F"/>
	</linearGradient>
	<path class="st1" d="M100.08,19.01c-0.37-1.92-1.44-3.32-3.18-4.16c-0.15-0.07-0.29-0.14-0.45-0.21c-0.07-0.03-0.15-0.06-0.22-0.1
		l-0.05-0.02l0.02-0.05c0.59-1.93,0.46-3.62-0.4-5.18c-0.87-1.59-2.3-2.49-4.24-2.67l-0.04,0l-0.01-0.04
		c-0.07-0.23-0.12-0.45-0.18-0.66c-0.12-0.44-0.23-0.86-0.4-1.25c-0.67-1.49-2.02-2.35-3.69-2.35c-0.4,0-0.82,0.05-1.24,0.15
		c-0.09,0.02-0.16,0.03-0.22,0.03c-0.17,0-0.3-0.08-0.43-0.28c-0.78-1.15-1.84-1.87-3.15-2.12c-0.05-0.01-0.09-0.03-0.12-0.05
		c-0.01-0.01-0.02-0.01-0.03-0.02h-1.27c-0.04,0.01-0.08,0.02-0.12,0.03c-0.09,0.03-0.19,0.05-0.28,0.08
		c-0.85,0.22-1.54,0.67-2.1,1.39l-0.05,0.06l-0.05-0.06c-0.51-0.62-1.12-1.04-1.87-1.29c-0.16-0.05-0.33-0.1-0.5-0.15
		c-0.07-0.02-0.15-0.04-0.22-0.06h-1.27c-0.02,0.01-0.04,0.02-0.06,0.02c-0.05,0.02-0.11,0.05-0.17,0.06
		c-1.22,0.27-2.19,0.89-2.86,1.84c-0.25,0.36-0.49,0.5-0.82,0.5c-0.11,0-0.23-0.02-0.38-0.05c-0.32-0.07-0.64-0.11-0.95-0.11
		c-1.79,0-3.31,1.14-3.87,2.91c-0.09,0.29-0.15,0.59-0.2,0.91c-0.03,0.15-0.05,0.3-0.09,0.45l-0.01,0.04l-0.04,0.01l-0.11,0.02
		l-0.25,0.04c-1.69,0.24-2.92,0.99-3.76,2.29c-0.77,1.19-1.07,2.58-0.89,4.12c0.04,0.32,0.11,0.65,0.18,0.97
		c0.03,0.14,0.06,0.29,0.09,0.44l0.01,0.03l-0.03,0.02c-0.01,0.01-0.01,0.01-0.02,0.02c-0.01,0.01-0.02,0.02-0.04,0.03
		c-0.04,0.02-0.09,0.04-0.13,0.05c-0.04,0.01-0.07,0.03-0.11,0.05c-1.88,0.8-3.05,2.18-3.49,4.11c-0.03,0.11-0.06,0.23-0.08,0.34
		c-0.01,0.05-0.03,0.1-0.04,0.15v1.54c0.01,0.03,0.02,0.05,0.03,0.08c0.02,0.07,0.04,0.13,0.06,0.2c0.2,1.1,0.61,2,1.25,2.76
		c0.17,0.2,0.36,0.38,0.55,0.56c0.09,0.08,0.18,0.17,0.27,0.25l0.05,0.05l-0.05,0.04c-0.71,0.61-1.22,1.41-1.46,2.32
		c-0.22,0.83-0.22,1.73,0,2.6c0.46,1.77,1.73,3.07,3.31,3.39l0.06,0.01l-0.01,0.06c0,0.03-0.01,0.05-0.01,0.08
		c-0.01,0.05-0.02,0.11-0.02,0.17c-0.02,0.23-0.05,0.46-0.08,0.69c-0.07,0.5-0.14,1.02-0.12,1.52c0.08,1.82,0.85,3.26,2.28,4.27
		c1.07,0.76,2.27,1.14,3.54,1.14c0.66,0,1.35-0.1,2.07-0.3c0.1-0.03,0.2-0.05,0.3-0.08c0.05-0.01,0.09-0.02,0.14-0.04l0.05-0.01
		l0.02,0.05l0.06,0.12c0.03,0.07,0.06,0.13,0.09,0.19c0.73,1.58,1.97,2.58,3.69,2.99c0.1,0.02,0.21,0.05,0.31,0.08
		c0.05,0.01,0.09,0.02,0.14,0.03h1.36c0.02-0.01,0.04-0.01,0.07-0.02c0.06-0.02,0.11-0.04,0.18-0.05c1.38-0.24,2.51-0.93,3.37-2.04
		c0.12-0.16,0.23-0.33,0.35-0.5c0.06-0.08,0.11-0.17,0.17-0.25l0.05-0.08l0.05,0.08c0.03,0.05,0.06,0.1,0.09,0.14
		c0.06,0.09,0.11,0.18,0.17,0.27c0.71,1.12,1.72,1.88,2.98,2.25c0.19,0.05,0.38,0.1,0.56,0.14c0.09,0.02,0.17,0.04,0.26,0.06h1.36
		c0.02-0.01,0.03-0.01,0.05-0.02c0.05-0.02,0.1-0.04,0.15-0.05c1.84-0.34,3.18-1.37,3.96-3.07c0.03-0.06,0.06-0.12,0.09-0.18
		c0.01-0.03,0.03-0.05,0.04-0.08l0.02-0.05l0.05,0.02c0.79,0.28,1.6,0.42,2.39,0.42c1.96,0,3.72-0.85,4.84-2.33
		c1.14-1.51,1.45-3.49,0.86-5.55l-0.02-0.06l0.06-0.01c0.78-0.15,1.5-0.55,2.08-1.16c0.56-0.58,0.97-1.33,1.2-2.15
		c0.24-0.87,0.25-1.78,0.04-2.62c-0.23-0.92-0.74-1.73-1.46-2.36l-0.05-0.04l0.05-0.05c0.02-0.02,0.04-0.04,0.06-0.06
		c0.04-0.04,0.08-0.08,0.13-0.12c0.84-0.75,1.43-1.71,1.74-2.87c0.05-0.19,0.1-0.38,0.14-0.56c0.02-0.08,0.04-0.17,0.06-0.25v-1.54
		c-0.01-0.03-0.02-0.05-0.03-0.08C100.12,19.15,100.09,19.08,100.08,19.01z M77.61,26.32c0,2.63,0,5.36,0,8.04v0.58v0.13l-0.1-0.08
		c-1.28-1.05-2.48-1.51-3.89-1.51c-0.14,0-0.27,0-0.42,0.01c-0.98,0.06-1.87,0.34-2.65,0.83c-0.36,0.23-0.47,0.59-0.29,0.91
		c0.12,0.19,0.29,0.3,0.51,0.3c0.13,0,0.26-0.03,0.39-0.1c0.03-0.01,0.06-0.03,0.09-0.05l0.02-0.01c0.7-0.4,1.46-0.6,2.25-0.6
		c0.31,0,0.63,0.03,0.95,0.09c1.54,0.29,3.1,1.44,3.1,3.33c0,0.52-0.08,1.06-0.24,1.58c-0.56,1.84-2.13,3.03-3.99,3.03
		c-0.03,0-0.05,0-0.08,0c-1.85-0.03-3.29-1.2-3.84-3.11c-0.12-0.41-0.31-0.6-0.6-0.6c-0.12,0-0.26,0.03-0.42,0.1
		c-0.68,0.3-1.35,0.48-2.04,0.55c-0.2,0.02-0.39,0.03-0.58,0.03c-1.33,0-2.52-0.5-3.36-1.4c-0.85-0.91-1.27-2.16-1.17-3.52
		c0.04-0.58,0.12-1.25,0.4-1.77c0.5-0.93,1.17-1.62,2.01-2.07c0.22-0.12,0.36-0.27,0.41-0.45c0.04-0.15,0.02-0.31-0.07-0.47
		c-0.12-0.2-0.3-0.31-0.52-0.31c-0.14,0-0.29,0.04-0.45,0.13c-0.77,0.42-1.4,0.97-1.87,1.64c-0.14,0.19-0.29,0.28-0.5,0.28
		c-0.04,0-0.09,0-0.14-0.01c-0.85-0.13-1.5-0.58-1.98-1.39c-1.01-1.67-0.65-3.73,0.83-4.78c0.17-0.12,0.32-0.17,0.48-0.17
		c0.08,0,0.16,0.01,0.25,0.04c0.49,0.15,1.02,0.22,1.63,0.22c0.22,0,0.44-0.01,0.69-0.03c0.42-0.03,0.68-0.31,0.66-0.69
		c-0.02-0.36-0.3-0.58-0.71-0.58l-0.02,0c-0.11,0-0.21,0-0.32,0.01c-0.11,0-0.22,0.01-0.32,0.01c-0.15,0-0.27-0.01-0.38-0.02
		c-0.76-0.09-1.56-0.21-2.24-0.76c-0.97-0.78-1.57-2.01-1.62-3.36c-0.06-1.35,0.42-2.61,1.32-3.48c0.58-0.55,1.3-0.94,2.28-1.21
		c0.29-0.08,0.48-0.21,0.56-0.38c0.08-0.17,0.06-0.4-0.07-0.68c-0.47-1.05-0.6-2.13-0.41-3.19c0.32-1.74,1.28-2.85,2.86-3.3
		c0.42-0.12,0.87-0.15,1.3-0.18c0.08-0.01,0.16-0.01,0.24-0.02c0.52-0.04,0.73-0.27,0.71-0.76c0-0.06-0.01-0.12-0.01-0.18
		c-0.01-0.15-0.02-0.31-0.01-0.47c0.13-1.72,1.29-2.88,2.88-2.88c0.45,0,0.9,0.1,1.34,0.29l0.03,0.01l0,0.04c0,0.04,0,0.08,0,0.12
		c0,0.08,0,0.17,0.02,0.25c0.02,0.12,0.04,0.23,0.06,0.35c0.06,0.35,0.13,0.72,0.24,1.07c0.08,0.26,0.31,0.43,0.58,0.43
		c0.07,0,0.14-0.01,0.21-0.03c0.32-0.11,0.49-0.44,0.4-0.8c-0.01-0.06-0.03-0.12-0.05-0.18C71.93,5.06,71.91,5,71.89,4.93
		c-0.13-0.59-0.23-1.28,0.12-1.89c0.45-0.8,1.17-1.36,2.09-1.63c0.27-0.08,0.55-0.12,0.83-0.12c0.76,0,1.48,0.28,1.97,0.77
		c0.49,0.49,0.74,1.18,0.74,1.99C77.6,11.48,77.61,19.02,77.61,26.32z M96.56,24.09c-0.33,0.18-0.47,0.37-0.48,0.64
		c-0.01,0.27,0.14,0.47,0.46,0.64c1.2,0.64,1.62,1.6,1.77,2.29c0.22,1.08-0.08,2.29-0.79,3.16c-0.54,0.66-1.22,1-2.02,1
		c-0.04,0-0.08,0-0.13,0c-0.03,0-0.05,0-0.08,0c-0.3,0-0.51,0.08-0.62,0.23c-0.12,0.17-0.14,0.42-0.03,0.76l0.02,0.07
		c0.16,0.52,0.32,1.06,0.39,1.61c0.19,1.44-0.17,2.77-1.02,3.74c-0.86,0.98-2.13,1.52-3.57,1.52c-0.12,0-0.24,0-0.37-0.01
		c-0.69-0.04-1.39-0.23-2.21-0.57c-0.13-0.06-0.25-0.08-0.36-0.08c-0.28,0-0.48,0.18-0.59,0.53c-0.02,0.05-0.03,0.11-0.05,0.16
		c-0.01,0.06-0.03,0.11-0.05,0.17c-0.52,1.69-1.99,2.81-3.74,2.85c-0.03,0-0.07,0-0.1,0c-2.07,0-3.72-1.45-4-3.53
		c-0.09-0.63-0.09-1.27-0.09-1.9c0-0.27,0-0.54-0.01-0.81c0-0.08,0.01-0.16,0.02-0.23c0-0.04,0.01-0.07,0.01-0.11l0.01-0.05h0.05
		h3.37h0.04l0.02,0.03c0.5,0.98,1.18,1.48,2.04,1.48c0.17,0,0.35-0.02,0.53-0.06c0.94-0.21,1.64-1.05,1.68-2
		c0.03-1.01-0.57-1.88-1.51-2.17c-0.22-0.07-0.44-0.1-0.65-0.1c-0.26,0-0.52,0.05-0.79,0.15c-0.59,0.22-1.01,0.65-1.29,1.32
		l-0.02,0.04h-0.04h-3.38h-0.06v-0.06v-7.21v-0.06h0.06c0.39,0,0.79,0,1.17,0.01c0.38,0,0.76,0.01,1.14,0.01
		c0.58,0,1.06-0.01,1.5-0.03c0.04,0,0.08,0,0.13,0c0.67,0,1.25,0.24,1.81,0.48c0.22,0.09,0.45,0.19,0.68,0.27l0.05,0.02l-0.01,0.05
		c-0.24,1.92,0.57,3.38,2.18,3.91c0.33,0.11,0.67,0.16,1.02,0.16c1.21,0,2.32-0.65,2.9-1.71c0.75-1.37,0.41-3.1-0.8-4.09
		c-0.61-0.5-1.3-0.75-2.06-0.75c-0.01,0-0.03,0-0.04,0c-1,0.01-1.87,0.43-2.58,1.25l-0.03,0.03L86,27.07
		c-0.18-0.07-0.35-0.14-0.52-0.21c-0.42-0.17-0.81-0.33-1.22-0.47c-0.3-0.1-0.59-0.16-0.85-0.16c-0.54-0.01-1.12-0.01-1.86-0.01
		c-0.35,0-0.7,0-1.05,0c-0.35,0-0.7,0-1.05,0h-0.47h-0.06v-0.06v-4.15v-0.06h0.06h10.02h0.04l0.02,0.04c0.7,1.69,1.8,2.59,3.16,2.59
		c0.2,0,0.4-0.02,0.6-0.06c1.59-0.29,2.73-1.59,2.78-3.16c0.04-1.51-1.01-2.88-2.51-3.25c-0.27-0.07-0.54-0.1-0.81-0.1
		c-0.46,0-0.91,0.1-1.34,0.3c-0.94,0.43-1.56,1.19-1.85,2.26l-0.01,0.04h-0.05H78.98h-0.06v-0.06v-4.01v-0.06h0.06l0.18,0l0.15,0
		l0.17,0c0.34,0,0.69,0,1.03,0c0.41,0,0.82,0,1.23,0c0.64,0,1.16,0,1.65-0.01c0.25,0,0.53-0.06,0.81-0.16
		c0.43-0.15,0.86-0.33,1.27-0.49c0.17-0.07,0.34-0.14,0.51-0.2l0.04-0.02l0.03,0.03c0.92,1.03,1.93,1.25,2.61,1.25
		c0.65,0,1.3-0.2,1.84-0.57c1.3-0.89,1.8-2.57,1.18-4c-0.52-1.21-1.7-1.99-3-1.99c-0.24,0-0.48,0.03-0.71,0.08
		c-0.8,0.18-1.45,0.59-1.92,1.22c-0.6,0.79-0.79,1.7-0.59,2.78l0.01,0.05l-0.05,0.02c-0.13,0.05-0.26,0.1-0.39,0.16
		c-0.3,0.12-0.58,0.23-0.86,0.35c-0.35,0.16-0.72,0.23-1.14,0.23c-0.02,0-0.03,0-0.05,0c-0.45-0.01-0.94-0.01-1.54-0.01
		c-0.33,0-0.66,0-1,0c-0.33,0-0.66,0-1,0h-0.48h-0.06v-0.06V8.42V8.36l0.05-0.01c0.04,0,0.08-0.01,0.12-0.01
		c0.08-0.01,0.16-0.02,0.24-0.02c0.09,0,0.18,0,0.27,0c0.16,0,0.33,0,0.49,0c0.16,0,0.33,0,0.49,0c0.38,0,0.67,0,0.94-0.01l0.02,0
		c0.28,0,0.41,0.13,0.52,0.34c0.42,0.78,1.07,1.18,1.93,1.18c0.07,0,0.14,0,0.21-0.01c1.07-0.08,1.92-1,1.94-2.1
		c0.02-1.12-0.81-2.09-1.89-2.19C84.17,5.53,84.08,5.53,84,5.53c-0.84,0-1.52,0.42-1.96,1.2c-0.07,0.12-0.22,0.3-0.37,0.31
		c-0.52,0.01-1.03,0.01-1.43,0.01c-0.21,0-0.42,0-0.63,0c-0.22,0-0.44,0-0.66,0h-0.06V6.99c0-0.36,0-0.72,0-1.07
		c0-0.8,0-1.56,0-2.32c0.01-1.01,0.59-1.81,1.55-2.14c0.32-0.11,0.64-0.16,0.96-0.16c0.38,0,0.77,0.08,1.14,0.23
		c0.93,0.38,1.63,1.05,2.09,2.01c0.16,0.33,0.34,0.47,0.6,0.47c0.11,0,0.23-0.02,0.38-0.07c0.05-0.02,0.1-0.03,0.15-0.05
		C86,3.8,86.24,3.72,86.48,3.66c0.25-0.06,0.5-0.08,0.74-0.08c1.17,0,2.15,0.65,2.62,1.74c0.23,0.53,0.31,1.1,0.26,1.76
		c-0.02,0.27,0.02,0.46,0.13,0.58c0.11,0.13,0.3,0.19,0.56,0.21l0.06,0c0.29,0.01,0.59,0.03,0.88,0.07c1.25,0.18,2.2,0.78,2.83,1.77
		c0.43,0.67,0.66,1.47,0.7,2.36c0.03,0.84-0.13,1.67-0.47,2.46c-0.14,0.32-0.17,0.55-0.09,0.72c0.08,0.17,0.27,0.29,0.6,0.38
		c0.24,0.07,0.49,0.14,0.74,0.25c1.78,0.74,2.73,2.05,2.81,3.91C98.97,21.77,98.19,23.22,96.56,24.09z M83.62,35.5
		c-0.01-0.5,0.36-0.89,0.85-0.9c0.01,0,0.02,0,0.03,0c0,0,0,0,0,0c0.23,0,0.45,0.09,0.62,0.27c0.17,0.17,0.26,0.4,0.26,0.64
		c-0.01,0.48-0.41,0.88-0.88,0.88h0h0C84.01,36.38,83.62,35.99,83.62,35.5z M86.66,29.09c0-0.53,0.21-1.03,0.58-1.41
		c0.38-0.38,0.88-0.59,1.42-0.59c1.12,0,2,0.88,2,2c0,1.12-0.88,1.99-1.99,2l-0.01,0C87.56,31.08,86.66,30.19,86.66,29.09z
		 M90.29,21.29c0-0.53,0.2-1.03,0.58-1.4c0.38-0.38,0.89-0.59,1.43-0.59c0,0,0,0,0,0c0.55,0,1.06,0.21,1.44,0.59
		c0.37,0.37,0.58,0.87,0.57,1.4c0,1.1-0.9,2-2.01,2h0C91.19,23.29,90.29,22.4,90.29,21.29z M86.66,13.6
		c0.01-1.11,0.89-1.97,2.01-1.97l0.01,0c0.55,0,1.06,0.21,1.43,0.59c0.37,0.37,0.56,0.87,0.56,1.42c-0.01,1.12-0.89,1.99-2,1.99
		l-0.01,0C87.55,15.61,86.65,14.7,86.66,13.6z M83.11,7.71c-0.01-0.5,0.35-0.89,0.84-0.91c0.01,0,0.03,0,0.04,0
		c0.49,0,0.86,0.35,0.88,0.83c0.01,0.25-0.07,0.48-0.23,0.66C84.47,8.46,84.25,8.56,84,8.56l-0.02,0
		C83.5,8.56,83.12,8.19,83.11,7.71z"/>
	<linearGradient id="SVGID_3_" gradientUnits="userSpaceOnUse" x1="56.7537" y1="20.0784" x2="99.8311" y2="20.0784">
		<stop  offset="0" style="stop-color:#07BADA"/>
		<stop  offset="1" style="stop-color:#13F11F"/>
	</linearGradient>
	<path class="st2" d="M72.5,20.46c-0.93-0.71-2.07-1.1-3.22-1.1c-0.18,0-0.36,0.01-0.54,0.03c-0.02,0-0.05,0-0.08,0
		c-0.02,0-0.05,0-0.07,0c-0.02,0-0.05,0-0.08,0h-0.05l-0.01-0.04c-0.02-0.06-0.03-0.11-0.05-0.17c-0.03-0.12-0.06-0.22-0.1-0.33
		c-0.64-1.93-1.93-3.25-3.84-3.93c-0.09-0.03-0.18-0.05-0.27-0.05c-0.16,0-0.3,0.06-0.43,0.18c-0.17,0.15-0.23,0.36-0.17,0.61
		c0.06,0.23,0.22,0.38,0.53,0.49c0.84,0.3,1.55,0.8,2.11,1.49c0.49,0.61,0.81,1.28,0.96,2.06l0.01,0.04l-0.04,0.02
		c-0.07,0.04-0.13,0.07-0.2,0.11c-0.14,0.08-0.29,0.16-0.43,0.24c-0.71,0.42-1.28,0.96-1.69,1.59c-0.18,0.28-0.17,0.53,0.01,0.77
		c0.13,0.16,0.29,0.24,0.46,0.24c0.07,0,0.14-0.01,0.21-0.04c0.19-0.08,0.35-0.25,0.45-0.38c0.58-0.75,1.3-1.25,2.15-1.49
		c0.37-0.11,0.75-0.16,1.13-0.16c2.06,0,3.74,1.53,4,3.64c0.01,0.07,0.01,0.15,0.02,0.22c0,0.07,0.01,0.14,0.02,0.21
		c0.04,0.36,0.28,0.59,0.63,0.59c0.01,0,0.02,0,0.03,0c0.36-0.01,0.61-0.26,0.6-0.6c-0.02-0.54-0.07-0.99-0.17-1.39
		C74.11,22.18,73.44,21.17,72.5,20.46z"/>
	<linearGradient id="SVGID_4_" gradientUnits="userSpaceOnUse" x1="56.7537" y1="28.1802" x2="99.8311" y2="28.1802">
		<stop  offset="0" style="stop-color:#07BADA"/>
		<stop  offset="1" style="stop-color:#13F11F"/>
	</linearGradient>
	<path class="st3" d="M72.51,29.8c-0.01,0-0.02,0-0.03,0c-0.16,0.01-0.33,0.08-0.49,0.15l-0.06,0.03c-0.29,0.12-0.59,0.18-0.89,0.18
		c-0.85,0-1.6-0.46-1.97-1.21c-0.45-0.91-0.22-1.99,0.56-2.64c0.05-0.05,0.11-0.09,0.17-0.12c0.04-0.03,0.07-0.05,0.11-0.08
		c0.35-0.26,0.43-0.62,0.22-0.92c-0.12-0.17-0.29-0.27-0.49-0.27c-0.14,0-0.28,0.04-0.42,0.13c-0.84,0.52-1.37,1.27-1.59,2.25
		c-0.03,0.16-0.05,0.33-0.07,0.49c-0.01,0.08-0.02,0.15-0.03,0.23c0.01,0.94,0.4,1.82,1.09,2.47c0.66,0.62,1.55,0.98,2.43,0.98
		c0.57,0,1.11-0.14,1.61-0.43c0.33-0.19,0.46-0.43,0.39-0.74C73,30.01,72.76,29.8,72.51,29.8z"/>
	<linearGradient id="SVGID_5_" gradientUnits="userSpaceOnUse" x1="56.7537" y1="9.5448" x2="99.8311" y2="9.5448">
		<stop  offset="0" style="stop-color:#07BADA"/>
		<stop  offset="1" style="stop-color:#13F11F"/>
	</linearGradient>
	<path class="st4" d="M75.46,8.28c-0.4-0.25-1.14-0.4-1.95-0.4c-0.77,0.01-1.65,0.42-2.44,1.11c-0.27,0.24-0.58,0.52-0.92,0.72
		c-0.28,0.17-0.56,0.25-0.83,0.25c-0.4,0-0.77-0.18-1.12-0.53c-0.03-0.03-0.06-0.07-0.09-0.1c-0.04-0.04-0.07-0.08-0.11-0.12
		c-0.15-0.14-0.31-0.22-0.48-0.22c-0.14,0-0.28,0.06-0.41,0.16c-0.27,0.23-0.3,0.57-0.08,0.89c0.51,0.74,1.37,1.18,2.28,1.18
		c0.31,0,0.61-0.05,0.9-0.15c0.55-0.19,1.06-0.52,1.56-1c0.45-0.44,0.89-0.7,1.37-0.83c0.22-0.06,0.44-0.09,0.65-0.09
		c0.32,0,0.64,0.07,0.95,0.2c0.18,0.08,0.34,0.11,0.47,0.11c0.01,0,0.02,0,0.04,0c0.27-0.01,0.48-0.27,0.53-0.51
		C75.83,8.69,75.71,8.43,75.46,8.28z"/>
	<linearGradient id="SVGID_6_" gradientUnits="userSpaceOnUse" x1="56.7537" y1="14.7387" x2="99.8311" y2="14.7387">
		<stop  offset="0" style="stop-color:#07BADA"/>
		<stop  offset="1" style="stop-color:#13F11F"/>
	</linearGradient>
	<path class="st5" d="M72.77,11.91L72.77,11.91c-0.44,0-0.72,0.23-0.74,0.6c-0.02,0.38,0.23,0.63,0.67,0.67
		c0.9,0.1,1.49,0.69,1.51,1.52c0.01,0.84-0.56,1.46-1.45,1.58c-0.02,0-0.05,0-0.07,0.01c-0.02,0-0.04,0-0.06,0.01
		c-0.39,0.06-0.62,0.31-0.6,0.65c0.02,0.34,0.29,0.6,0.63,0.6c0.01,0,0.01,0,0.02,0c0.29-0.01,0.59-0.06,0.87-0.15
		c1.17-0.37,1.97-1.49,1.94-2.72c-0.02-0.73-0.31-1.43-0.83-1.96C74.14,12.21,73.47,11.92,72.77,11.91z"/>
</g>
</svg>
