<?xml version="1.0" encoding="utf-8"?>
<!-- Generator: Adobe Illustrator 24.0.1, SVG Export Plug-In . SVG Version: 6.00 Build 0)  -->
<svg version="1.1" id="Layer_1" xmlns="http://www.w3.org/2000/svg" xmlns:xlink="http://www.w3.org/1999/xlink" x="0px" y="0px"
	 viewBox="0 0 100.22 44.08" style="enable-background:new 0 0 100.22 44.08;" xml:space="preserve">
<style type="text/css">
	.st0{fill:url(#SVGID_1_);}
	.st1{fill:url(#SVGID_2_);}
	.st2{fill:url(#SVGID_3_);}
</style>
<linearGradient id="SVGID_1_" gradientUnits="userSpaceOnUse" x1="0" y1="22.0379" x2="32.2858" y2="22.0379">
	<stop  offset="0" style="stop-color:#07BADA"/>
	<stop  offset="1" style="stop-color:#13F11F"/>
</linearGradient>
<path class="st0" d="M32.29,22.01c0-0.01,0-0.02,0-0.04c0-0.01,0-0.02,0-0.02c0-0.01,0-0.03-0.01-0.04c0-0.01-0.01-0.03-0.01-0.04
	c0-0.01,0-0.02-0.01-0.02c0-0.01-0.01-0.02-0.01-0.03c0-0.01-0.01-0.02-0.01-0.02l0,0c0-0.01-0.01-0.02-0.01-0.02
	c-0.01-0.01-0.01-0.03-0.02-0.04c0-0.01-0.01-0.02-0.01-0.03c-0.01-0.01-0.01-0.02-0.02-0.03c0-0.01-0.01-0.01-0.01-0.02
	c-0.01-0.01-0.01-0.02-0.02-0.03c0-0.01-0.01-0.01-0.01-0.02c-0.01-0.01-0.02-0.02-0.03-0.03c0,0-0.01-0.01-0.01-0.01l-7.82-7.82
	l0,0c-0.13-0.13-0.3-0.19-0.48-0.19c-0.18,0-0.35,0.08-0.48,0.21c-0.06,0.06-0.1,0.13-0.13,0.2l0,0.01
	c-0.01,0.02-0.01,0.03-0.02,0.05l0,0.01c-0.01,0.02-0.01,0.03-0.01,0.05c0,0.01,0,0.01,0,0.01c0,0.02-0.01,0.03-0.01,0.05
	c0,0.01,0,0.01,0,0.02c0,0.01,0,0.02,0,0.04l0.24,0.01l-0.24-0.01c0,0.01,0,0.02,0,0.02c0,0.01,0,0.02,0,0.03c0,0.01,0,0.02,0,0.04
	c0,0.01,0,0.01,0,0.02c0,0.01,0,0.03,0.01,0.04l0,0c0,0,0,0,0,0l0,0.01c0.03,0.13,0.09,0.25,0.18,0.34l6.66,6.66H0.68
	c-0.27,0-0.52,0.16-0.63,0.41C0.02,21.85,0,21.94,0,22.03c0,0.02,0,0.05,0,0.07c0.04,0.35,0.33,0.61,0.68,0.61h29.29l-6.66,6.66
	c-0.02,0.02-0.03,0.03-0.04,0.05c-0.23,0.27-0.21,0.66,0.03,0.91c0.13,0.14,0.31,0.21,0.49,0.21c0.17,0,0.34-0.06,0.47-0.19
	c0.01,0,0.01-0.01,0.01-0.01l7.81-7.81l0.02-0.02c0.07-0.07,0.12-0.15,0.15-0.24c0-0.01,0.01-0.01,0.01-0.02l0,0
	c0-0.01,0.01-0.02,0.01-0.03c0-0.01,0-0.02,0.01-0.03c0-0.01,0-0.02,0.01-0.03c0-0.01,0-0.02,0.01-0.04c0-0.01,0-0.01,0-0.02
	c0-0.02,0-0.03,0-0.05l0-0.01C32.29,22.03,32.29,22.02,32.29,22.01z"/>
<g>
	<linearGradient id="SVGID_2_" gradientUnits="userSpaceOnUse" x1="56.2896" y1="22.0379" x2="100.333" y2="22.0379">
		<stop  offset="0" style="stop-color:#07BADA"/>
		<stop  offset="1" style="stop-color:#13F11F"/>
	</linearGradient>
	<path class="st1" d="M100.33,2.28c0.03-1.21-0.92-2.22-2.13-2.26H58.41c-1.2,0.04-2.16,1.05-2.12,2.26l0,32.16
		c-0.03,1.21,0.92,2.22,2.13,2.26l12.81,0h0.14l-0.06,0.13l-1.47,2.95l-0.02,0.05h-0.05h-2.49c-1.17,0-2.12,0.95-2.12,2.12
		c0,1.17,0.95,2.12,2.12,2.12h22.11c1.17,0,2.12-0.95,2.12-2.12c0-1.17-0.95-2.12-2.12-2.12h-2.49h-0.05l-0.02-0.05l-1.47-2.95
		l-0.06-0.13h0.14h12.81c1.2-0.04,2.16-1.05,2.12-2.26L100.33,2.28z M89.36,41.11c0.45,0,0.82,0.37,0.82,0.82
		c0,0.45-0.37,0.82-0.82,0.82H67.26c-0.45,0-0.82-0.37-0.82-0.82c0-0.45,0.37-0.82,0.82-0.82h19.16H89.36z M85.3,39.69l0.06,0.13
		h-0.14H71.4h-0.14l0.06-0.13l1.47-2.95l0.02-0.05h0.05h10.88h0.05l0.02,0.05L85.3,39.69z M98.22,35.39L98.22,35.39L98.22,35.39
		l-39.8,0h0l0,0c-0.49-0.05-0.84-0.47-0.81-0.96v-2.07v-0.09h0.09h41.27h0.09v0.09v2.07C99.06,34.92,98.7,35.34,98.22,35.39z
		 M99.03,2.28v28.6v0.09h-0.09h-7.02h-3.29h-1.47h-1.23H57.68h-0.09v-0.09V2.28c-0.03-0.49,0.33-0.91,0.81-0.96l0,0h0h27.51h1.23
		h1.47h3.29h6.29h0l0,0C98.7,1.37,99.06,1.79,99.03,2.28z"/>
	<linearGradient id="SVGID_3_" gradientUnits="userSpaceOnUse" x1="65.2858" y1="16.0677" x2="91.3524" y2="16.0677">
		<stop  offset="0" style="stop-color:#07BADA"/>
		<stop  offset="1" style="stop-color:#13F11F"/>
	</linearGradient>
	<path class="st2" d="M89.4,6.69c-0.65-0.76-1.74-0.98-2.63-0.53C82.38,2.41,76.05,2,71.21,5.15s-7.03,9.1-5.39,14.63
		c1.64,5.53,6.73,9.32,12.49,9.32c4.7,0.01,9.03-2.52,11.34-6.6c2.31-4.09,2.25-9.1-0.18-13.12C90.08,8.56,90.04,7.45,89.4,6.69z
		 M87.73,7.37c0.4,0,0.72,0.32,0.72,0.72s-0.32,0.72-0.72,0.72c-0.4,0-0.72-0.32-0.72-0.72S87.33,7.37,87.73,7.37z M79.04,8.13
		c4.22,0.41,7.38,4.05,7.19,8.29c-0.19,4.24-3.67,7.58-7.92,7.6c-1.61,0.01-3.17-0.48-4.5-1.39c0.26-0.67,0.18-1.42-0.22-2.02
		s-1.08-0.95-1.8-0.94c-0.18,0-0.35,0.03-0.52,0.07c-1.25-2.34-1.23-5.16,0.04-7.49l1.82,1.22c-1.12,2.26-0.66,4.98,1.15,6.74
		c1.81,1.76,4.55,2.14,6.77,0.95c2.22-1.19,3.42-3.68,2.96-6.16s-2.47-4.38-4.98-4.69V8.13z M72.53,21.85c0,0.4-0.32,0.72-0.72,0.72
		c-0.4,0-0.72-0.32-0.72-0.72c0-0.4,0.32-0.72,0.72-0.72C72.2,21.13,72.53,21.45,72.53,21.85z M72.13,11.06
		c1.35-1.67,3.32-2.73,5.47-2.92v2.17c-1.42,0.18-2.72,0.88-3.66,1.96L72.13,11.06z M80.17,12.12c1.95,0.92,2.93,3.12,2.31,5.18
		c-0.62,2.06-2.66,3.36-4.79,3.05c-2.13-0.31-3.71-2.14-3.71-4.29c0-0.86,0.25-1.69,0.72-2.41v0
		C75.89,11.86,78.22,11.21,80.17,12.12z M77.95,27.64c-6.25-0.2-11.22-5.32-11.22-11.58c-0.01-2.29,0.67-4.53,1.95-6.43
		c2-3.01,5.3-4.91,8.91-5.14v2.19c-3.18,0.24-6.03,2.08-7.55,4.89c-1.52,2.8-1.52,6.19,0.01,8.99c-0.62,0.82-0.57,1.97,0.11,2.73
		c0.68,0.77,1.82,0.95,2.7,0.43c2.76,1.97,6.37,2.29,9.44,0.85c3.07-1.44,5.13-4.42,5.38-7.8h2.17
		C89.48,23.03,84.2,27.83,77.95,27.64z M89.88,15.34H87.7c-0.36-4.62-4.03-8.29-8.65-8.65V4.51c2.47,0.15,4.83,1.09,6.72,2.69
		c-0.13,0.28-0.2,0.58-0.2,0.89c0,0.58,0.23,1.13,0.64,1.54c0.41,0.41,0.96,0.64,1.54,0.64c0.19,0,0.38-0.03,0.56-0.08
		C89.22,11.75,89.77,13.52,89.88,15.34z"/>
</g>
</svg>
