<?xml version="1.0" encoding="utf-8"?>
<!-- Generator: Adobe Illustrator 24.0.1, SVG Export Plug-In . SVG Version: 6.00 Build 0)  -->
<svg version="1.1" id="Layer_1" xmlns="http://www.w3.org/2000/svg" xmlns:xlink="http://www.w3.org/1999/xlink" x="0px" y="0px"
	 viewBox="0 0 100.22 44.08" style="enable-background:new 0 0 100.22 44.08;" xml:space="preserve">
<style type="text/css">
	.st0{fill:url(#SVGID_1_);}
	.st1{fill:url(#SVGID_2_);}
	.st2{fill:url(#SVGID_3_);}
	.st3{fill:url(#SVGID_4_);}
	.st4{fill:url(#SVGID_5_);}
	.st5{fill:url(#SVGID_6_);}
	.st6{fill:url(#SVGID_7_);}
	.st7{fill:url(#SVGID_8_);}
	.st8{fill:url(#SVGID_9_);}
	.st9{fill:url(#SVGID_10_);}
	.st10{fill:url(#SVGID_11_);}
	.st11{fill:url(#SVGID_12_);}
	.st12{fill:url(#SVGID_13_);}
	.st13{fill:url(#SVGID_14_);}
</style>
<linearGradient id="SVGID_1_" gradientUnits="userSpaceOnUse" x1="0" y1="22.0379" x2="32.2858" y2="22.0379">
	<stop  offset="0" style="stop-color:#07BADA"/>
	<stop  offset="1" style="stop-color:#13F11F"/>
</linearGradient>
<path class="st0" d="M32.29,22.01c0-0.01,0-0.02,0-0.04c0-0.01,0-0.02,0-0.02c0-0.01,0-0.03-0.01-0.04c0-0.01-0.01-0.03-0.01-0.04
	c0-0.01,0-0.02-0.01-0.02c0-0.01-0.01-0.02-0.01-0.03c0-0.01-0.01-0.02-0.01-0.02l0,0c0-0.01-0.01-0.02-0.01-0.02
	c-0.01-0.01-0.01-0.03-0.02-0.04c0-0.01-0.01-0.02-0.01-0.03c-0.01-0.01-0.01-0.02-0.02-0.03c0-0.01-0.01-0.01-0.01-0.02
	c-0.01-0.01-0.01-0.02-0.02-0.03c0-0.01-0.01-0.01-0.01-0.02c-0.01-0.01-0.02-0.02-0.03-0.03c0,0-0.01-0.01-0.01-0.01l-7.82-7.82
	l0,0c-0.13-0.13-0.3-0.19-0.48-0.19c-0.18,0-0.35,0.08-0.48,0.21c-0.06,0.06-0.1,0.13-0.13,0.2l0,0.01
	c-0.01,0.02-0.01,0.03-0.02,0.05l0,0.01c-0.01,0.02-0.01,0.03-0.01,0.05c0,0.01,0,0.01,0,0.01c0,0.02-0.01,0.03-0.01,0.05
	c0,0.01,0,0.01,0,0.02c0,0.01,0,0.02,0,0.04l0.24,0.01l-0.24-0.01c0,0.01,0,0.02,0,0.02c0,0.01,0,0.02,0,0.03c0,0.01,0,0.02,0,0.04
	c0,0.01,0,0.01,0,0.02c0,0.01,0,0.03,0.01,0.04l0,0c0,0,0,0,0,0l0,0.01c0.03,0.13,0.09,0.25,0.18,0.34l6.66,6.66H0.68
	c-0.27,0-0.52,0.16-0.63,0.41C0.02,21.85,0,21.94,0,22.03c0,0.02,0,0.05,0,0.07c0.04,0.35,0.33,0.61,0.68,0.61h29.29l-6.66,6.66
	c-0.02,0.02-0.03,0.03-0.04,0.05c-0.23,0.27-0.21,0.66,0.03,0.91c0.13,0.14,0.31,0.21,0.49,0.21c0.17,0,0.34-0.06,0.47-0.19
	c0.01,0,0.01-0.01,0.01-0.01l7.81-7.81l0.02-0.02c0.07-0.07,0.12-0.15,0.15-0.24c0-0.01,0.01-0.01,0.01-0.02l0,0
	c0-0.01,0.01-0.02,0.01-0.03c0-0.01,0-0.02,0.01-0.03c0-0.01,0-0.02,0.01-0.03c0-0.01,0-0.02,0.01-0.04c0-0.01,0-0.01,0-0.02
	c0-0.02,0-0.03,0-0.05l0-0.01C32.29,22.03,32.29,22.02,32.29,22.01z"/>
<g>
	<linearGradient id="SVGID_2_" gradientUnits="userSpaceOnUse" x1="56.4402" y1="16.1389" x2="99.947" y2="16.1389">
		<stop  offset="0" style="stop-color:#07BADA"/>
		<stop  offset="1" style="stop-color:#13F11F"/>
	</linearGradient>
	<path class="st1" d="M59.91,11.71v8.85c0,0.36,0.29,0.65,0.65,0.65h8.85c0.36,0,0.65-0.29,0.65-0.65v-4.04l-1.3,1.3v2v0.09h-0.09
		H61.3h-0.09v-0.09v-7.37v-0.09h0.09h6.42l1.3-1.3h-8.46C60.2,11.06,59.91,11.36,59.91,11.71z"/>
	<linearGradient id="SVGID_3_" gradientUnits="userSpaceOnUse" x1="56.4402" y1="14.79" x2="99.947" y2="14.79">
		<stop  offset="0" style="stop-color:#07BADA"/>
		<stop  offset="1" style="stop-color:#13F11F"/>
	</linearGradient>
	<path class="st2" d="M71.1,11.32l-5.32,5.32l-0.06,0.06l-0.06-0.06L64.03,15l-0.92,0.92l2.15,2.15c0.12,0.12,0.29,0.19,0.46,0.19
		c0.17,0,0.34-0.07,0.46-0.19l5.84-5.84L71.1,11.32z"/>
	<linearGradient id="SVGID_4_" gradientUnits="userSpaceOnUse" x1="56.4402" y1="28.6743" x2="99.947" y2="28.6743">
		<stop  offset="0" style="stop-color:#07BADA"/>
		<stop  offset="1" style="stop-color:#13F11F"/>
	</linearGradient>
	<path class="st3" d="M60.56,33.75h8.85c0.36,0,0.65-0.29,0.65-0.65v-4.04l-1.3,1.3v2v0.09h-0.09H61.3h-0.09v-0.09v-7.37V24.9h0.09
		h6.42l1.3-1.3h-8.46c-0.36,0-0.65,0.29-0.65,0.65v8.85C59.91,33.46,60.2,33.75,60.56,33.75z"/>
	<linearGradient id="SVGID_5_" gradientUnits="userSpaceOnUse" x1="56.4402" y1="27.3254" x2="99.947" y2="27.3254">
		<stop  offset="0" style="stop-color:#07BADA"/>
		<stop  offset="1" style="stop-color:#13F11F"/>
	</linearGradient>
	<path class="st4" d="M63.11,28.46l2.15,2.15c0.12,0.12,0.29,0.19,0.46,0.19c0.17,0,0.34-0.07,0.46-0.19l5.84-5.84l-0.92-0.92
		l-5.32,5.32l-0.06,0.06l-0.06-0.06l-1.63-1.63L63.11,28.46z"/>
	<linearGradient id="SVGID_6_" gradientUnits="userSpaceOnUse" x1="56.4402" y1="16.8763" x2="99.947" y2="16.8763">
		<stop  offset="0" style="stop-color:#07BADA"/>
		<stop  offset="1" style="stop-color:#13F11F"/>
	</linearGradient>
	<rect x="73.92" y="16.23" class="st5" width="9.41" height="1.3"/>
	<linearGradient id="SVGID_7_" gradientUnits="userSpaceOnUse" x1="56.4402" y1="13.1894" x2="99.947" y2="13.1894">
		<stop  offset="0" style="stop-color:#07BADA"/>
		<stop  offset="1" style="stop-color:#13F11F"/>
	</linearGradient>
	<rect x="73.92" y="12.54" class="st6" width="9.41" height="1.3"/>
	<linearGradient id="SVGID_8_" gradientUnits="userSpaceOnUse" x1="56.4402" y1="25.7248" x2="99.947" y2="25.7248">
		<stop  offset="0" style="stop-color:#07BADA"/>
		<stop  offset="1" style="stop-color:#13F11F"/>
	</linearGradient>
	<rect x="73.92" y="25.07" class="st7" width="4.25" height="1.3"/>
	<linearGradient id="SVGID_9_" gradientUnits="userSpaceOnUse" x1="56.4402" y1="29.4116" x2="99.947" y2="29.4116">
		<stop  offset="0" style="stop-color:#07BADA"/>
		<stop  offset="1" style="stop-color:#13F11F"/>
	</linearGradient>
	<rect x="73.92" y="28.76" class="st8" width="4.25" height="1.3"/>
	<linearGradient id="SVGID_10_" gradientUnits="userSpaceOnUse" x1="56.4402" y1="22.0379" x2="99.947" y2="22.0379">
		<stop  offset="0" style="stop-color:#07BADA"/>
		<stop  offset="1" style="stop-color:#13F11F"/>
	</linearGradient>
	<path class="st9" d="M57.61,42.77h-0.09v-0.09V1.39V1.3h0.09h28.02h0.09v0.09v15.63c0.44-0.16,0.87-0.33,1.3-0.51V0.65
		C87.02,0.3,86.73,0,86.37,0h-29.5c-0.36,0-0.65,0.29-0.65,0.65v42.77c0,0.36,0.29,0.65,0.65,0.65h29.5c-0.62-0.4-1.23-0.83-1.8-1.3
		H57.61z"/>
	<linearGradient id="SVGID_11_" gradientUnits="userSpaceOnUse" x1="56.4402" y1="30.5176" x2="99.947" y2="30.5176">
		<stop  offset="0" style="stop-color:#07BADA"/>
		<stop  offset="1" style="stop-color:#13F11F"/>
	</linearGradient>
	<path class="st10" d="M99.72,19.92c-3.29-0.36-6.43-1.32-9.35-2.88c-0.09-0.05-0.2-0.08-0.31-0.08s-0.21,0.03-0.31,0.08
		c-2.92,1.55-6.06,2.52-9.35,2.88c-0.33,0.04-0.58,0.31-0.58,0.65v8.73c0.02,3.18,0.97,6.25,2.76,8.88s4.28,4.65,7.23,5.85
		c0.08,0.03,0.16,0.05,0.25,0.05c0.09,0,0.17-0.02,0.25-0.05c2.95-1.2,5.45-3.22,7.23-5.85c1.78-2.63,2.74-5.7,2.76-8.88v-8.73
		C100.3,20.23,100.05,19.95,99.72,19.92z M98.99,21.22v8.08c-0.04,5.84-3.53,11.1-8.9,13.4l-0.03,0.01l-0.03-0.01
		c-5.37-2.3-8.86-7.56-8.9-13.4v-8.08v-0.08l0.08-0.01c3.08-0.41,6.05-1.34,8.82-2.76l0.04-0.02l0.04,0.02
		c2.77,1.42,5.74,2.35,8.82,2.76l0.08,0.01V21.22z"/>
	<linearGradient id="SVGID_12_" gradientUnits="userSpaceOnUse" x1="56.4402" y1="29.5375" x2="99.947" y2="29.5375">
		<stop  offset="0" style="stop-color:#07BADA"/>
		<stop  offset="1" style="stop-color:#13F11F"/>
	</linearGradient>
	<path class="st11" d="M83.02,29.93l4.36,4.36c0.12,0.12,0.29,0.19,0.46,0.19c0.17,0,0.34-0.07,0.46-0.19l8.79-8.79l-0.92-0.92
		l-8.27,8.27l-0.06,0.06l-0.06-0.06l-3.84-3.84L83.02,29.93z"/>
	<linearGradient id="SVGID_13_" gradientUnits="userSpaceOnUse" x1="56.4402" y1="39.7349" x2="99.947" y2="39.7349">
		<stop  offset="0" style="stop-color:#07BADA"/>
		<stop  offset="1" style="stop-color:#13F11F"/>
	</linearGradient>
	<rect x="73.19" y="39.08" class="st12" width="4.99" height="1.3"/>
	<linearGradient id="SVGID_14_" gradientUnits="userSpaceOnUse" x1="56.4402" y1="36.7854" x2="99.947" y2="36.7854">
		<stop  offset="0" style="stop-color:#07BADA"/>
		<stop  offset="1" style="stop-color:#13F11F"/>
	</linearGradient>
	<rect x="66.55" y="36.13" class="st13" width="11.63" height="1.3"/>
</g>
</svg>
