<?xml version="1.0" encoding="utf-8"?>
<!-- Generator: Adobe Illustrator 24.0.1, SVG Export Plug-In . SVG Version: 6.00 Build 0)  -->
<svg version="1.1" id="Layer_1" xmlns="http://www.w3.org/2000/svg" xmlns:xlink="http://www.w3.org/1999/xlink" x="0px" y="0px"
	 viewBox="0 0 113.53 44.08" style="enable-background:new 0 0 113.53 44.08;" xml:space="preserve">
<style type="text/css">
	.st0{fill:url(#SVGID_1_);}
	.st1{fill:url(#SVGID_2_);}
	.st2{fill:url(#SVGID_3_);}
</style>
<linearGradient id="SVGID_1_" gradientUnits="userSpaceOnUse" x1="0" y1="22.0379" x2="32.2858" y2="22.0379">
	<stop  offset="0" style="stop-color:#07BADA"/>
	<stop  offset="1" style="stop-color:#13F11F"/>
</linearGradient>
<path class="st0" d="M32.29,22.01c0-0.01,0-0.02,0-0.04c0-0.01,0-0.02,0-0.02c0-0.01,0-0.03-0.01-0.04c0-0.01-0.01-0.03-0.01-0.04
	c0-0.01,0-0.02-0.01-0.02c0-0.01-0.01-0.02-0.01-0.03c0-0.01-0.01-0.02-0.01-0.02l0,0c0-0.01-0.01-0.02-0.01-0.02
	c-0.01-0.01-0.01-0.03-0.02-0.04c0-0.01-0.01-0.02-0.01-0.03c-0.01-0.01-0.01-0.02-0.02-0.03c0-0.01-0.01-0.01-0.01-0.02
	c-0.01-0.01-0.01-0.02-0.02-0.03c0-0.01-0.01-0.01-0.01-0.02c-0.01-0.01-0.02-0.02-0.03-0.03c0,0-0.01-0.01-0.01-0.01l-7.82-7.82
	l0,0c-0.13-0.13-0.3-0.19-0.48-0.19c-0.18,0-0.35,0.08-0.48,0.21c-0.06,0.06-0.1,0.13-0.13,0.2l0,0.01
	c-0.01,0.02-0.01,0.03-0.02,0.05l0,0.01c-0.01,0.02-0.01,0.03-0.01,0.05c0,0.01,0,0.01,0,0.01c0,0.02-0.01,0.03-0.01,0.05
	c0,0.01,0,0.01,0,0.02c0,0.01,0,0.02,0,0.04l0.24,0.01l-0.24-0.01c0,0.01,0,0.02,0,0.02c0,0.01,0,0.02,0,0.03c0,0.01,0,0.02,0,0.04
	c0,0.01,0,0.01,0,0.02c0,0.01,0,0.03,0.01,0.04l0,0c0,0,0,0,0,0l0,0.01c0.03,0.13,0.09,0.25,0.18,0.34l6.66,6.66H0.68
	c-0.27,0-0.52,0.16-0.63,0.41C0.02,21.85,0,21.94,0,22.03c0,0.02,0,0.05,0,0.07c0.04,0.35,0.33,0.61,0.68,0.61h29.29l-6.66,6.66
	c-0.02,0.02-0.03,0.03-0.04,0.05c-0.23,0.27-0.21,0.66,0.03,0.91c0.13,0.14,0.31,0.21,0.49,0.21c0.17,0,0.34-0.06,0.47-0.19
	c0.01,0,0.01-0.01,0.01-0.01l7.81-7.81l0.02-0.02c0.07-0.07,0.12-0.15,0.15-0.24c0-0.01,0.01-0.01,0.01-0.02l0,0
	c0-0.01,0.01-0.02,0.01-0.03c0-0.01,0-0.02,0.01-0.03c0-0.01,0-0.02,0.01-0.03c0-0.01,0-0.02,0.01-0.04c0-0.01,0-0.01,0-0.02
	c0-0.02,0-0.03,0-0.05l0-0.01C32.29,22.03,32.29,22.02,32.29,22.01z"/>
<g>
	<linearGradient id="SVGID_2_" gradientUnits="userSpaceOnUse" x1="57.003" y1="22.0379" x2="114.7794" y2="22.0379">
		<stop  offset="0" style="stop-color:#07BADA"/>
		<stop  offset="1" style="stop-color:#13F11F"/>
	</linearGradient>
	<path class="st1" d="M98.15,2.66c-0.48,0.28-0.84,0.73-1.01,1.26l-0.08,0.24l-0.03,0.09h-0.09h-0.25H85.38
		c-1.46,0-2.84,0.57-3.87,1.6l-1.16,1.16l-0.13,0.13l-0.05,0.05l-0.07-0.02L79.9,7.13c-0.99-0.24-1.99-0.35-3-0.35h-3.51h-0.26h-0.1
		L73,6.68l-0.07-0.25c-0.15-0.59-0.52-1.08-1.05-1.38l-3.99-2.3c-0.34-0.2-0.73-0.3-1.11-0.3c-0.2,0-0.39,0.03-0.58,0.08
		c-0.58,0.15-1.06,0.52-1.36,1.04l-8.03,13.91c-0.3,0.52-0.38,1.12-0.22,1.7c0.15,0.58,0.52,1.06,1.04,1.36l3.99,2.3
		c0.34,0.2,0.72,0.3,1.11,0.3c0.13,0,0.27-0.01,0.41-0.04l0.18-0.03l0.07-0.01l0.05,0.05l0.13,0.13l3.27,3.27l0.13,0.13l0.05,0.05
		L67,26.73l-0.03,0.18c-0.04,0.23-0.07,0.46-0.07,0.7c0,0.96,0.37,1.87,1.06,2.55c0.63,0.63,1.46,1,2.35,1.05l0.36,0.02l0.14,0.01
		l-0.01,0.14l-0.04,0.35c-0.01,0.13-0.02,0.26-0.02,0.38c0,0.96,0.37,1.87,1.06,2.55c0.68,0.68,1.59,1.06,2.55,1.06
		c0.01,0,0.02,0,0.04,0l0,0l0.03,0l0.36-0.01l0.14,0l0,0.14l-0.01,0.36l0,0.03l0,0.01c0,0.01,0,0.02,0,0.04
		c0,0.96,0.37,1.87,1.06,2.55c0.68,0.68,1.59,1.06,2.55,1.06c0.01,0,0.03,0,0.04,0l0.04,0l0.36-0.01l0.14,0l0,0.14l-0.01,0.36
		l0,0.03c0,0.02,0,0.03,0,0.04c0,0.96,0.37,1.87,1.06,2.55c0.68,0.68,1.59,1.06,2.55,1.06c0.96,0,1.87-0.37,2.55-1.06l1.61-1.61
		c0.41-0.41,0.7-0.89,0.88-1.44l0.14-0.45l0.06-0.17l0.15,0.11l0.38,0.28c0.62,0.46,1.36,0.7,2.14,0.7c0.96,0,1.87-0.37,2.55-1.05
		c0.41-0.41,0.72-0.92,0.89-1.48l0.13-0.43l0.05-0.16l0.14,0.09l0.38,0.25c0.58,0.38,1.26,0.58,1.97,0.58
		c0.96,0,1.87-0.37,2.55-1.06c0.5-0.5,0.84-1.13,0.98-1.82l0.08-0.37l0.03-0.14l0.14,0.05l0.36,0.12c0.37,0.12,0.75,0.18,1.14,0.18
		c0.96,0,1.87-0.37,2.55-1.06c1.4-1.4,1.4-3.69,0-5.1l-2.64-2.64l-0.24-0.24l-0.09-0.09l0.09-0.09l0.24-0.24l4.82-4.82l0.12-0.12
		l0.04-0.04l0.06,0.01l0.16,0.02c0.09,0.01,0.18,0.02,0.27,0.02c0.39,0,0.77-0.1,1.11-0.3l3.99-2.3c0.52-0.3,0.89-0.78,1.04-1.36
		c0.15-0.58,0.08-1.18-0.22-1.7l-1.51-2.61c-0.12-0.2-0.34-0.33-0.57-0.33c-0.12,0-0.23,0.03-0.33,0.09
		c-0.15,0.09-0.26,0.23-0.31,0.4c-0.05,0.17-0.02,0.35,0.07,0.5l1.51,2.62c0.16,0.28,0.13,0.55,0.09,0.69
		c-0.04,0.14-0.14,0.39-0.42,0.55l-3.99,2.3c-0.14,0.08-0.3,0.12-0.45,0.12c-0.32,0-0.63-0.17-0.79-0.46L98.48,5.05
		c-0.25-0.44-0.1-0.99,0.33-1.24l3.99-2.3c0.14-0.08,0.3-0.12,0.46-0.12c0.33,0,0.63,0.17,0.79,0.46l1.43,2.47
		c0.12,0.2,0.34,0.33,0.57,0.33c0.12,0,0.23-0.03,0.33-0.09c0.15-0.09,0.26-0.23,0.31-0.4c0.05-0.17,0.02-0.35-0.07-0.5l-1.43-2.47
		c-0.4-0.69-1.14-1.12-1.94-1.12c-0.39,0-0.77,0.1-1.11,0.3L98.15,2.66z M63.53,21.35c-0.16,0.28-0.47,0.46-0.79,0.46
		c-0.16,0-0.32-0.04-0.45-0.12l-3.99-2.31c-0.28-0.16-0.39-0.42-0.42-0.55c-0.04-0.14-0.07-0.41,0.09-0.69l8.03-13.91
		c0.16-0.28,0.42-0.39,0.55-0.42c0.08-0.02,0.16-0.03,0.24-0.03c0.16,0,0.31,0.04,0.45,0.12l3.99,2.31
		c0.44,0.25,0.58,0.81,0.33,1.24L63.53,21.35z M70.5,29.89c-0.61,0-1.18-0.24-1.61-0.67c-0.43-0.43-0.67-1-0.67-1.61
		c0-0.61,0.24-1.18,0.67-1.61l0.98-0.98c0.43-0.43,1-0.67,1.61-0.67c0.61,0,1.18,0.24,1.61,0.67c0.43,0.43,0.67,1,0.67,1.61
		c0,0.61-0.24,1.18-0.67,1.61l-0.98,0.98C71.68,29.65,71.11,29.89,70.5,29.89z M74.32,34.38c-0.61,0-1.18-0.24-1.61-0.67
		c-0.43-0.43-0.67-1-0.67-1.61c0-0.61,0.24-1.18,0.67-1.61l1.61-1.61c0.43-0.43,1-0.67,1.61-0.67c0.61,0,1.18,0.24,1.61,0.67
		c0.43,0.43,0.67,1,0.67,1.61c0,0.61-0.24,1.18-0.67,1.61l-1.61,1.61C75.5,34.14,74.93,34.38,74.32,34.38z M78.48,38.54
		c-0.61,0-1.18-0.24-1.61-0.67c-0.43-0.43-0.67-1-0.67-1.61c0-0.61,0.24-1.18,0.67-1.61l1.61-1.61c0.43-0.43,1-0.67,1.61-0.67
		c0.61,0,1.18,0.24,1.61,0.67c0.43,0.43,0.67,1,0.67,1.61c0,0.61-0.24,1.18-0.67,1.61l-1.61,1.61
		C79.66,38.3,79.09,38.54,78.48,38.54z M85.86,40.42l-1.61,1.61c-0.43,0.43-1,0.67-1.61,0.67s-1.18-0.24-1.61-0.67
		c-0.43-0.43-0.67-1-0.67-1.61c0-0.61,0.24-1.18,0.67-1.61l1.61-1.61c0.43-0.43,1-0.67,1.61-0.67c0.61,0,1.18,0.24,1.61,0.67
		c0.43,0.43,0.67,1,0.67,1.61C86.52,39.42,86.29,39.99,85.86,40.42z M103.53,29.92c0.43,0.43,0.67,1,0.67,1.61
		c0,0.61-0.24,1.18-0.67,1.61c-0.43,0.43-1,0.67-1.61,0.67c-0.61,0-1.18-0.24-1.61-0.67l-10.8-10.8c-0.13-0.13-0.29-0.19-0.47-0.19
		c-0.18,0-0.34,0.07-0.47,0.19c-0.13,0.13-0.19,0.29-0.19,0.47s0.07,0.34,0.19,0.47l9.69,9.69c0.43,0.43,0.67,1,0.67,1.61
		c0,0.61-0.24,1.18-0.67,1.61c-0.43,0.43-1,0.67-1.61,0.67c-0.61,0-1.18-0.24-1.61-0.67L83.4,24.54c-0.13-0.13-0.29-0.19-0.47-0.19
		c-0.18,0-0.34,0.07-0.47,0.19c-0.13,0.13-0.19,0.29-0.19,0.47c0,0.18,0.07,0.34,0.19,0.47l9.69,9.69c0.43,0.43,0.67,1,0.67,1.61
		s-0.24,1.18-0.67,1.61c-0.43,0.43-1,0.67-1.61,0.67c-0.61,0-1.18-0.24-1.61-0.67l-2.12-2.12c0,0-0.01-0.01-0.01-0.01
		c-0.68-0.68-1.59-1.05-2.54-1.05c-0.03,0-0.05,0-0.08,0l-0.35,0.01l-0.14,0l0-0.14l0.01-0.35l0-0.04l0,0l0,0c0-0.01,0-0.03,0-0.04
		c0-0.96-0.37-1.87-1.06-2.55c-0.68-0.68-1.58-1.05-2.55-1.05c-0.03,0-0.05,0-0.08,0l-0.35,0.01l-0.14,0l0-0.14l0.01-0.35l0-0.04
		l0-0.01c0-0.01,0-0.03,0-0.04c0-0.96-0.37-1.87-1.06-2.55c-0.68-0.68-1.58-1.05-2.55-1.05c-0.11,0-0.23,0.01-0.34,0.02l-0.36,0.03
		l-0.14,0.01l-0.01-0.14l-0.02-0.36c-0.04-0.9-0.41-1.74-1.05-2.38c-0.68-0.68-1.58-1.05-2.55-1.05c-0.96,0-1.87,0.37-2.55,1.05
		l-0.97,0.97l-0.01,0.01l-0.24,0.24l-0.09,0.09l-0.09-0.09l-0.24-0.24l-2.51-2.51l-0.18-0.18l-0.07-0.07l0.05-0.09l0.13-0.23
		l7.88-13.65l0.1-0.17l0.04-0.06h0.07h0.2h3.92c0.4,0,0.8,0.02,1.2,0.06l0.71,0.07l0.27,0.03l-0.19,0.19l-0.5,0.5l-1.29,1.29
		c-0.68,0.68-1.06,1.59-1.06,2.55s0.37,1.87,1.06,2.55c0.68,0.68,1.58,1.05,2.55,1.05c0.96,0,1.87-0.37,2.55-1.05l3.06-3.06
		l0.24-0.24l0.09-0.09l0.09,0.09l0.24,0.24L103.53,29.92z M105.37,19.62c0.01,0.02,0.02,0.03,0.03,0.05l0,0l0.02,0.02l0.15,0.23
		l0.06,0.09l-0.07,0.07l-0.19,0.19l-4.46,4.46l-0.24,0.24l-0.09,0.09l-0.09-0.09l-0.24-0.24l-8.23-8.23l-0.28-0.28l-0.11-0.11
		l0.12-0.09l0.32-0.23c1.54-1.12,2.46-2.92,2.46-4.83c0-0.37-0.3-0.66-0.66-0.66c-0.37,0-0.66,0.3-0.66,0.66
		c0,1.62-0.86,3.14-2.26,3.98l-0.23,0.14l-0.09,0.05l-0.07-0.07l-0.19-0.19l-4.31-4.31c-0.13-0.13-0.3-0.2-0.48-0.2
		c-0.17,0-0.34,0.07-0.46,0.19l-3.86,3.86c-0.43,0.43-1,0.67-1.61,0.67c-0.61,0-1.18-0.24-1.61-0.67c-0.43-0.43-0.67-1-0.67-1.61
		c0-0.61,0.24-1.18,0.67-1.61l4.41-4.41c0.78-0.78,1.83-1.22,2.94-1.22h11.6h0.2h0.07l0.04,0.06l0.1,0.17L105.37,19.62z"/>
	<linearGradient id="SVGID_3_" gradientUnits="userSpaceOnUse" x1="57.003" y1="8.3869" x2="114.7794" y2="8.3869">
		<stop  offset="0" style="stop-color:#07BADA"/>
		<stop  offset="1" style="stop-color:#13F11F"/>
	</linearGradient>
	<path class="st2" d="M108.6,9.05c0.17,0,0.34-0.07,0.47-0.2c0.12-0.12,0.19-0.29,0.19-0.47c0-0.17-0.07-0.35-0.2-0.47
		c-0.12-0.12-0.29-0.19-0.47-0.19c-0.17,0-0.35,0.07-0.47,0.19c-0.12,0.12-0.19,0.29-0.19,0.47c0,0.17,0.07,0.35,0.19,0.47
		C108.26,8.98,108.43,9.05,108.6,9.05z"/>
</g>
</svg>
