<?xml version="1.0" encoding="utf-8"?>
<!-- Generator: Adobe Illustrator 24.0.1, SVG Export Plug-In . SVG Version: 6.00 Build 0)  -->
<svg version="1.1" id="Layer_1" xmlns="http://www.w3.org/2000/svg" xmlns:xlink="http://www.w3.org/1999/xlink" x="0px" y="0px"
	 viewBox="0 0 112.26 44.08" style="enable-background:new 0 0 112.26 44.08;" xml:space="preserve">
<style type="text/css">
	.st0{fill:url(#SVGID_1_);}
	.st1{fill:url(#SVGID_2_);}
	.st2{fill:url(#SVGID_3_);}
	.st3{fill:url(#SVGID_4_);}
	.st4{fill:url(#SVGID_5_);}
	.st5{fill:url(#SVGID_6_);}
	.st6{fill:url(#SVGID_7_);}
	.st7{fill:url(#SVGID_8_);}
	.st8{fill:url(#SVGID_9_);}
	.st9{fill:url(#SVGID_10_);}
</style>
<linearGradient id="SVGID_1_" gradientUnits="userSpaceOnUse" x1="0" y1="22.0379" x2="32.2858" y2="22.0379">
	<stop  offset="0" style="stop-color:#07BADA"/>
	<stop  offset="1" style="stop-color:#13F11F"/>
</linearGradient>
<path class="st0" d="M32.29,22.01c0-0.01,0-0.02,0-0.04c0-0.01,0-0.02,0-0.02c0-0.01,0-0.03-0.01-0.04c0-0.01-0.01-0.03-0.01-0.04
	c0-0.01,0-0.02-0.01-0.02c0-0.01-0.01-0.02-0.01-0.03c0-0.01-0.01-0.02-0.01-0.02l0,0c0-0.01-0.01-0.02-0.01-0.02
	c-0.01-0.01-0.01-0.03-0.02-0.04c0-0.01-0.01-0.02-0.01-0.03c-0.01-0.01-0.01-0.02-0.02-0.03c0-0.01-0.01-0.01-0.01-0.02
	c-0.01-0.01-0.01-0.02-0.02-0.03c0-0.01-0.01-0.01-0.01-0.02c-0.01-0.01-0.02-0.02-0.03-0.03c0,0-0.01-0.01-0.01-0.01l-7.82-7.82
	l0,0c-0.13-0.13-0.3-0.19-0.48-0.19c-0.18,0-0.35,0.08-0.48,0.21c-0.06,0.06-0.1,0.13-0.13,0.2l0,0.01
	c-0.01,0.02-0.01,0.03-0.02,0.05l0,0.01c-0.01,0.02-0.01,0.03-0.01,0.05c0,0.01,0,0.01,0,0.01c0,0.02-0.01,0.03-0.01,0.05
	c0,0.01,0,0.01,0,0.02c0,0.01,0,0.02,0,0.04l0.24,0.01l-0.24-0.01c0,0.01,0,0.02,0,0.02c0,0.01,0,0.02,0,0.03c0,0.01,0,0.02,0,0.04
	c0,0.01,0,0.01,0,0.02c0,0.01,0,0.03,0.01,0.04l0,0c0,0,0,0,0,0l0,0.01c0.03,0.13,0.09,0.25,0.18,0.34l6.66,6.66H0.68
	c-0.27,0-0.52,0.16-0.63,0.41C0.02,21.85,0,21.94,0,22.03c0,0.02,0,0.05,0,0.07c0.04,0.35,0.33,0.61,0.68,0.61h29.29l-6.66,6.66
	c-0.02,0.02-0.03,0.03-0.04,0.05c-0.23,0.27-0.21,0.66,0.03,0.91c0.13,0.14,0.31,0.21,0.49,0.21c0.17,0,0.34-0.06,0.47-0.19
	c0.01,0,0.01-0.01,0.01-0.01l7.81-7.81l0.02-0.02c0.07-0.07,0.12-0.15,0.15-0.24c0-0.01,0.01-0.01,0.01-0.02l0,0
	c0-0.01,0.01-0.02,0.01-0.03c0-0.01,0-0.02,0.01-0.03c0-0.01,0-0.02,0.01-0.03c0-0.01,0-0.02,0.01-0.04c0-0.01,0-0.01,0-0.02
	c0-0.02,0-0.03,0-0.05l0-0.01C32.29,22.03,32.29,22.02,32.29,22.01z"/>
<g>
	<g>
		<linearGradient id="SVGID_2_" gradientUnits="userSpaceOnUse" x1="56.7292" y1="16.1242" x2="112.4397" y2="16.1242">
			<stop  offset="0" style="stop-color:#07BADA"/>
			<stop  offset="1" style="stop-color:#13F11F"/>
		</linearGradient>
		<path class="st1" d="M77.43,3.21c0-0.78,0-1.56,0-2.38c1.93,0,3.79,0,5.71,0c0,5.45,0,10.87,0,16.28c0.03,0.02,0.07,0.03,0.1,0.05
			c0.11-0.12,0.22-0.24,0.32-0.36c2.16-2.58,4.31-5.17,6.47-7.74c0.13-0.15,0.38-0.3,0.57-0.3c2.09-0.02,4.19-0.01,6.28-0.01
			c0.1,0,0.2,0.03,0.4,0.05c-2.55,2.93-5.04,5.81-7.58,8.72c2.59,4.6,5.17,9.2,7.8,13.88c-0.24,0.02-0.4,0.05-0.56,0.05
			c-1.94,0-3.88-0.01-5.81,0.01c-0.36,0-0.55-0.13-0.71-0.44c-1.54-2.94-3.1-5.86-4.66-8.79c-0.07-0.14-0.15-0.26-0.25-0.43
			c-0.11,0.1-0.21,0.17-0.29,0.25c-0.57,0.61-1.13,1.24-1.71,1.83c-0.26,0.26-0.37,0.54-0.36,0.91c0.01,2.02,0.01,4.03,0.01,6.05
			c0,0.18,0,0.36,0,0.58c-1.92,0-3.79,0-5.71,0c0-0.5,0-0.97,0-1.51c-0.14,0.06-0.21,0.08-0.27,0.12c-2.52,1.7-5.34,2.24-8.31,2.2
			c-1.98-0.03-3.93-0.28-5.79-0.98c-3.86-1.47-6.15-4.71-6.25-8.84c0-0.13,0.02-0.27,0.03-0.43c1.96,0,3.87,0,5.83,0
			c0.02,0.16,0.05,0.31,0.07,0.46c0.19,1.95,1.19,3.33,3.04,3.96c2.34,0.8,4.71,0.73,7.01-0.16c1.66-0.64,2.45-2.17,2.14-3.84
			c-0.13-0.73-0.53-1.28-1.13-1.69c-0.97-0.66-2.08-0.95-3.19-1.24c-2.37-0.62-4.74-1.22-7.11-1.85c-1.49-0.39-2.85-1.03-3.98-2.11
			c-1.44-1.38-2.08-3.13-2.23-5.07c-0.22-2.91,0.49-5.51,2.62-7.61c1.4-1.38,3.14-2.13,5.06-2.49c2.93-0.55,5.83-0.51,8.67,0.5
			c1.28,0.45,2.39,1.17,3.37,2.1c0.09,0.08,0.18,0.17,0.27,0.25C77.3,3.21,77.34,3.2,77.43,3.21z M74.12,9.97
			c-0.06-0.09-0.07-0.1-0.08-0.12c-0.05-0.24-0.1-0.48-0.15-0.73c-0.35-1.67-1.31-2.82-2.94-3.36c-0.51-0.17-1.05-0.3-1.58-0.36
			c-1.64-0.18-3.26-0.1-4.74,0.75c-1.25,0.72-1.74,1.83-1.6,3.25c0.13,1.31,0.93,2.04,2.11,2.45c0.21,0.07,0.41,0.14,0.62,0.19
			c1.89,0.49,3.78,0.98,5.67,1.45c2,0.5,4.01,0.98,5.84,1.99c0.03,0.02,0.09,0,0.12-0.01c0-1.83,0-3.65,0-5.51
			c-0.58,0-1.12,0-1.66,0C75.17,9.97,74.62,9.97,74.12,9.97z"/>
		<linearGradient id="SVGID_3_" gradientUnits="userSpaceOnUse" x1="56.7292" y1="38.9488" x2="112.4397" y2="38.9488">
			<stop  offset="0" style="stop-color:#07BADA"/>
			<stop  offset="1" style="stop-color:#13F11F"/>
		</linearGradient>
		<path class="st2" d="M62.63,40.46c0.61,0,1.22,0,1.83,0c-0.05,1.5-1.18,2.85-2.32,3.3c-2.37,0.93-4.85-0.21-5.57-2.65
			c-0.53-1.8-0.49-3.59,0.42-5.28c0.81-1.51,2.47-2.22,4.33-1.94c1.6,0.24,2.81,1.36,3.14,2.9c0.03,0.14,0.04,0.29,0.07,0.48
			c-0.67,0-1.28,0-1.92,0c-0.05-0.11-0.11-0.22-0.15-0.33c-0.27-0.81-0.82-1.25-1.67-1.32c-0.87-0.07-1.59,0.26-1.99,1.02
			c-0.8,1.53-0.79,3.1,0,4.63c0.4,0.78,1.12,1.09,1.99,1c0.85-0.09,1.36-0.6,1.66-1.37c0.04-0.12,0.08-0.23,0.12-0.35
			C62.56,40.52,62.58,40.51,62.63,40.46z"/>
		<linearGradient id="SVGID_4_" gradientUnits="userSpaceOnUse" x1="56.7292" y1="40.2001" x2="112.4397" y2="40.2001">
			<stop  offset="0" style="stop-color:#07BADA"/>
			<stop  offset="1" style="stop-color:#13F11F"/>
		</linearGradient>
		<path class="st3" d="M103.81,40.02c1,0.43,1.39,1.16,1.24,2.18c-0.1,0.63-0.44,1.1-1.04,1.32c-0.37,0.14-0.78,0.25-1.17,0.26
			c-1.13,0.04-2.26,0.02-3.39,0.02c-0.09,0-0.18-0.02-0.31-0.04c0-2.37,0-4.73,0-7.08c0.04-0.03,0.06-0.06,0.09-0.06
			c1.3,0.02,2.6,0.01,3.9,0.08c0.58,0.03,1.11,0.31,1.46,0.81C105.16,38.34,104.9,39.25,103.81,40.02z M100.95,42.43
			c0.55,0,1.05,0.02,1.56-0.01c0.47-0.03,0.72-0.32,0.74-0.79c0.03-0.49-0.21-0.87-0.66-0.91c-0.53-0.05-1.07-0.01-1.64-0.01
			C100.95,41.27,100.95,41.81,100.95,42.43z M100.96,39.5c0.56-0.04,1.08-0.04,1.59-0.12c0.34-0.06,0.49-0.34,0.49-0.69
			c0-0.33-0.13-0.62-0.46-0.66c-0.54-0.08-1.08-0.08-1.67-0.12c0,0.45,0,0.79,0,1.13C100.92,39.15,100.94,39.27,100.96,39.5z"/>
		<linearGradient id="SVGID_5_" gradientUnits="userSpaceOnUse" x1="56.7292" y1="40.204" x2="112.4397" y2="40.204">
			<stop  offset="0" style="stop-color:#07BADA"/>
			<stop  offset="1" style="stop-color:#13F11F"/>
		</linearGradient>
		<path class="st4" d="M74.5,36.4c2.22,0.01,3.67,1.71,3.49,4.07c-0.1,1.33-0.56,2.47-1.81,3.1c-1.27,0.64-2.57,0.6-3.76-0.2
			c-1.24-0.83-1.56-2.12-1.46-3.52C71.11,37.66,72.46,36.38,74.5,36.4z M76.12,40.23c-0.06-0.38-0.09-0.77-0.2-1.13
			c-0.2-0.69-0.69-1.03-1.41-1.04c-0.75-0.01-1.27,0.32-1.49,1.01c-0.24,0.74-0.24,1.49,0.01,2.23c0.23,0.7,0.75,1.04,1.48,1.04
			c0.7-0.01,1.2-0.36,1.42-1.05C76.02,40.95,76.05,40.59,76.12,40.23z"/>
		<linearGradient id="SVGID_6_" gradientUnits="userSpaceOnUse" x1="56.7292" y1="40.1853" x2="112.4397" y2="40.1853">
			<stop  offset="0" style="stop-color:#07BADA"/>
			<stop  offset="1" style="stop-color:#13F11F"/>
		</linearGradient>
		<path class="st5" d="M95.28,43.98c-2.57,0.01-4.03-1.85-3.74-4.4c0.35-3.05,3.22-3.67,5.06-2.86c0.6,0.27,1.09,0.67,1.4,1.24
			c0.77,1.46,0.8,2.96,0.01,4.41C97.38,43.5,96.31,43.96,95.28,43.98z M96.69,40.22c-0.08-0.39-0.11-0.82-0.25-1.23
			c-0.22-0.64-0.7-0.94-1.39-0.94c-0.72-0.01-1.21,0.29-1.44,0.94c-0.28,0.78-0.28,1.58,0,2.36c0.24,0.67,0.75,0.99,1.47,0.98
			c0.68-0.01,1.17-0.36,1.39-1.02C96.58,40.98,96.61,40.62,96.69,40.22z"/>
		<linearGradient id="SVGID_7_" gradientUnits="userSpaceOnUse" x1="56.7292" y1="40.1742" x2="112.4397" y2="40.1742">
			<stop  offset="0" style="stop-color:#07BADA"/>
			<stop  offset="1" style="stop-color:#13F11F"/>
		</linearGradient>
		<path class="st6" d="M105.22,40.18c0.03-1.51,0.5-2.8,2-3.47c2.43-1.09,4.93,0.48,5.04,3.13c0.04,0.98-0.08,1.93-0.67,2.75
			c-0.83,1.16-2.35,1.66-3.82,1.27c-1.42-0.37-2.35-1.49-2.51-3.01C105.24,40.63,105.23,40.42,105.22,40.18z M107.11,40.11
			c0.02,0.29,0.03,0.51,0.07,0.72c0.03,0.18,0.08,0.36,0.15,0.53c0.25,0.64,0.74,0.97,1.43,0.97c0.69,0,1.18-0.33,1.42-0.99
			c0.24-0.64,0.24-1.3,0.11-1.96c-0.17-0.86-0.67-1.31-1.47-1.33c-0.85-0.02-1.38,0.39-1.58,1.26
			C107.16,39.59,107.14,39.89,107.11,40.11z"/>
		<linearGradient id="SVGID_8_" gradientUnits="userSpaceOnUse" x1="56.7292" y1="40.3006" x2="112.4397" y2="40.3006">
			<stop  offset="0" style="stop-color:#07BADA"/>
			<stop  offset="1" style="stop-color:#13F11F"/>
		</linearGradient>
		<path class="st7" d="M77.85,43.72c0-0.41,0-0.84,0-1.28c0.08-0.02,0.14-0.06,0.19-0.05c0.68,0.08,1-0.09,1.05-1.01
			c0.08-1.24,0.06-2.48,0.08-3.72c0.01-0.34,0-0.67,0-1.05c1.86,0,3.67,0,5.51,0c0,2.37,0,4.73,0,7.13c-0.58,0-1.14,0-1.78,0
			c0-1.85,0-3.68,0-5.56c-0.66,0-1.25,0-1.9,0c0,0.82,0.04,1.61-0.01,2.39c-0.05,0.71-0.11,1.43-0.32,2.1
			C80.3,43.87,78.99,44.32,77.85,43.72z"/>
		<linearGradient id="SVGID_9_" gradientUnits="userSpaceOnUse" x1="56.7292" y1="40.1828" x2="112.4397" y2="40.1828">
			<stop  offset="0" style="stop-color:#07BADA"/>
			<stop  offset="1" style="stop-color:#13F11F"/>
		</linearGradient>
		<path class="st8" d="M66.89,43.76c-0.65,0-1.21,0-1.81,0c0-2.39,0-4.75,0-7.14c0.59,0,1.16,0,1.79,0c0,0.8,0,1.6,0,2.39
			c0.04,0.02,0.08,0.03,0.12,0.05c0.09-0.09,0.19-0.16,0.27-0.26c0.55-0.65,1.09-1.31,1.64-1.96c0.1-0.12,0.27-0.24,0.41-0.25
			c0.63-0.03,1.27-0.01,1.98,0.09c-0.77,0.89-1.53,1.78-2.32,2.69c0.81,1.45,1.61,2.87,2.46,4.4c-0.77,0-1.42,0.02-2.08-0.02
			c-0.12-0.01-0.25-0.21-0.32-0.35c-0.39-0.72-0.77-1.45-1.16-2.17c-0.08-0.15-0.16-0.29-0.26-0.46c-0.45,0.38-0.78,0.73-0.73,1.35
			C66.93,42.65,66.89,43.19,66.89,43.76z"/>
		<linearGradient id="SVGID_10_" gradientUnits="userSpaceOnUse" x1="56.7292" y1="40.1815" x2="112.4397" y2="40.1815">
			<stop  offset="0" style="stop-color:#07BADA"/>
			<stop  offset="1" style="stop-color:#13F11F"/>
		</linearGradient>
		<path class="st9" d="M91.99,43.78c-0.77,0-1.43,0.02-2.09-0.02c-0.11-0.01-0.24-0.22-0.32-0.36c-0.47-0.86-0.92-1.72-1.39-2.62
			c-0.45,0.36-0.81,0.69-0.75,1.31c0.05,0.53,0.01,1.08,0.01,1.66c-0.62,0-1.19,0-1.79,0c0-2.38,0-4.74,0-7.13c0.57,0,1.14,0,1.78,0
			c0,0.81,0,1.62,0,2.43c0.04,0.01,0.08,0.03,0.12,0.04c0.15-0.17,0.3-0.33,0.44-0.5c0.49-0.58,0.97-1.17,1.46-1.75
			c0.1-0.12,0.27-0.24,0.41-0.25c0.63-0.03,1.27-0.01,1.98,0.09c-0.77,0.89-1.54,1.78-2.33,2.69
			C90.34,40.83,91.13,42.25,91.99,43.78z"/>
	</g>
</g>
</svg>
