<?xml version="1.0"?>
<svg width="1280" height="744" xmlns="http://www.w3.org/2000/svg" xmlns:svg="http://www.w3.org/2000/svg" preserveAspectRatio="xMidYMid meet">
 <metadata>Created by potrace 1.15, written by Peter Selinger 2001-2017</metadata>
 <defs>
  <linearGradient id="svg_50">
   <stop offset="0.264343" stop-color="#56ff56"/>
   <stop offset="1" stop-color="#a900a9"/>
  </linearGradient>
 </defs>
 <g class="layer">
  <title>Layer 1</title>
  <g fill="#000000" id="svg_1" transform="translate(0 744) scale(0.1 -0.1)">
   <path d="m11238,7426c-14,-6 -36,-23 -47,-38c-12,-15 -35,-29 -51,-33c-30,-7 -90,-68 -90,-92c0,-7 -3,-13 -8,-13c-4,0 -13,-23 -20,-52c-15,-66 -1,-76 98,-70l25,1l-25,-19c-28,-22 -46,-25 -56,-9c-3,6 -18,9 -33,6c-16,-3 -33,1 -43,10c-16,14 -21,14 -55,-2c-21,-10 -49,-28 -63,-40c-14,-12 -38,-27 -53,-32c-16,-5 -45,-23 -65,-41c-21,-18 -62,-54 -92,-81c-30,-27 -80,-61 -110,-76c-55,-27 -220,-178 -220,-201c0,-6 -13,-36 -30,-67c-16,-31 -30,-65 -30,-75c0,-10 -11,-24 -25,-30c-14,-6 -25,-20 -25,-30c0,-10 -11,-28 -25,-40c-18,-16 -25,-32 -25,-57c0,-30 3,-35 24,-35c13,0 26,-6 29,-14c3,-8 15,-12 31,-9c40,8 116,-27 116,-53c0,-14 -8,-24 -22,-27c-13,-3 -44,-13 -69,-23c-40,-15 -49,-16 -63,-5c-15,12 -15,16 -1,31c13,15 12,19 -14,44l-28,27l-27,-31c-26,-32 -34,-64 -17,-74c5,-3 12,-27 16,-52c6,-43 4,-48 -24,-73c-16,-14 -31,-37 -33,-51c-2,-16 -10,-26 -23,-28c-29,-5 -45,-31 -45,-72c0,-24 -7,-43 -20,-55c-11,-10 -20,-28 -20,-39c0,-20 -15,-34 -70,-63c-23,-12 -28,-10 -67,29l-42,41l-67,-6c-63,-5 -68,-7 -105,-48c-68,-77 -99,-126 -99,-159c0,-23 -11,-43 -43,-77c-43,-45 -44,-45 -78,-33c-30,11 -40,10 -70,-6c-18,-10 -39,-17 -45,-16c-6,1 -19,-7 -29,-18c-18,-20 -45,-27 -45,-12c0,4 7,15 15,26c13,17 12,21 -11,39l-25,20l-57,-25c-64,-27 -86,-57 -86,-121c-1,-35 -3,-38 -26,-33c-15,2 -33,-2 -45,-12c-16,-13 -15,-11 3,9c48,55 22,68 -69,32c-52,-20 -75,-35 -85,-55c-16,-32 -42,-48 -77,-48c-13,0 -32,-9 -43,-21c-16,-18 -17,-22 -4,-30c46,-27 46,-27 22,-52c-28,-30 -30,-82 -3,-97c12,-6 22,-6 25,-1c6,10 76,-47 76,-61c0,-4 -10,-8 -23,-8c-21,0 -77,-46 -77,-62c0,-4 8,-9 18,-11c14,-4 14,-5 -3,-6c-11,-1 -37,-6 -57,-12c-39,-10 -68,-48 -68,-87c0,-28 -62,-39 -92,-17c-13,8 -35,15 -50,15c-24,0 -28,-4 -28,-28c0,-15 5,-33 12,-40c11,-11 48,-115 48,-137c0,-5 -21,-11 -48,-12c-39,-2 -53,3 -84,28c-20,16 -44,29 -52,29c-8,0 -16,10 -18,23c-2,18 -9,22 -33,20c-30,-2 -30,-2 -8,15c35,28 20,103 -19,90c-19,-7 -61,48 -53,71c6,19 -14,29 -73,36c-13,2 -29,8 -37,15c-10,8 -18,7 -34,-7c-12,-9 -21,-24 -21,-31c0,-8 -6,-12 -12,-9c-7,2 -21,0 -31,-5c-14,-7 -24,-5 -37,7c-10,9 -25,15 -32,12c-7,-2 -21,2 -30,10c-15,13 -18,11 -27,-24c-15,-51 -14,-57 9,-100c27,-52 26,-71 -7,-79c-16,-4 -41,-18 -56,-31c-36,-29 -45,-29 -59,2c-12,27 -28,24 -28,-6c0,-17 -6,-20 -32,-17c-21,2 -33,8 -33,18c-1,8 -5,23 -11,33c-9,16 -14,17 -70,3c-32,-8 -72,-17 -87,-20c-16,-4 -48,-25 -73,-48c-41,-38 -44,-39 -44,-18c0,13 -8,32 -17,42c-17,19 -18,19 -43,-12c-23,-28 -28,-30 -53,-21c-16,6 -45,11 -66,11c-36,0 -37,1 -33,29c2,16 22,50 44,77c44,54 68,95 68,119c0,8 5,24 12,35c10,16 9,24 -10,49c-12,17 -22,43 -22,59c0,29 -47,86 -68,80c-5,-2 -21,13 -34,32c-18,25 -31,34 -48,32c-12,-1 -28,2 -35,8c-8,6 -18,5 -31,-5c-10,-8 -29,-15 -41,-15c-12,0 -34,-5 -48,-12c-22,-10 -29,-8 -49,11c-21,20 -31,22 -68,16l-43,-7l23,24c17,19 21,31 16,57c-5,21 -12,31 -23,30c-9,-1 -28,1 -43,5c-22,6 -34,2 -67,-25c-61,-49 -102,-174 -69,-207c18,-18 -7,-32 -59,-32c-35,0 -42,-3 -40,-20c1,-11 8,-22 17,-25c11,-5 6,-10 -17,-20c-18,-8 -33,-19 -33,-25c0,-5 -12,-10 -26,-10c-21,0 -24,4 -19,20c5,17 2,20 -25,20c-17,0 -33,-6 -36,-14c-3,-8 -25,-17 -49,-21c-48,-7 -100,-42 -77,-52c20,-8 -36,-39 -86,-48c-23,-4 -44,-11 -48,-16c-3,-5 -20,-16 -39,-23c-18,-8 -38,-24 -45,-35c-7,-14 -21,-21 -39,-21c-30,0 -33,-8 -43,-105c-1,-11 -14,-30 -28,-42l-25,-23l33,-28c17,-16 32,-31 32,-34c0,-15 -180,-34 -259,-28c-53,4 -69,2 -88,-13c-24,-19 -30,-55 -14,-86c7,-12 5,-31 -4,-59c-14,-39 -13,-43 12,-81c15,-23 30,-41 35,-41c8,0 38,-53 38,-70c0,-18 -36,-11 -56,11c-10,12 -18,31 -17,42c3,32 -75,87 -111,80c-23,-5 -27,-2 -24,13c2,11 -7,24 -24,33c-27,15 -29,15 -60,-17c-30,-30 -31,-34 -16,-43c10,-5 21,-10 25,-10c9,1 25,-51 18,-58c-3,-2 -18,7 -33,22c-26,25 -29,26 -50,11c-21,-14 -22,-14 -17,13c2,15 7,58 10,96l6,67l-27,0c-23,0 -25,2 -13,16c11,14 9,19 -11,34c-25,19 -25,19 -32,-8c-5,-17 -3,-32 6,-42c17,-19 14,-113 -3,-134c-8,-9 -23,-16 -35,-16c-13,0 -42,-20 -69,-48c-42,-43 -46,-50 -33,-62c9,-7 16,-24 16,-38c0,-13 5,-42 12,-63c9,-32 9,-42 -4,-56c-27,-32 -68,-124 -68,-154c0,-16 -5,-38 -11,-48c-19,-29 -3,-71 25,-71c14,0 26,-5 28,-12c3,-8 13,-7 36,4c29,15 34,15 72,-4c45,-23 80,-61 80,-89c0,-36 -18,-27 -41,21c-24,49 -24,49 -75,50c-44,0 -54,-4 -83,-34c-32,-33 -33,-37 -27,-90l7,-55l-45,-49c-25,-27 -46,-58 -46,-69c0,-14 -11,-25 -32,-33c-18,-7 -42,-16 -53,-20c-11,-5 -30,-12 -42,-15c-14,-4 -23,-14 -23,-26c0,-23 -22,-25 -40,-4c-7,8 -21,15 -31,15c-25,0 -77,32 -96,59c-22,32 -9,36 27,10c26,-19 34,-21 50,-11c11,6 26,9 35,6c29,-12 61,6 92,50c18,26 49,53 70,63c33,15 38,23 41,55c2,25 10,41 26,52c34,22 38,60 10,87c-29,27 -30,55 -4,137c11,35 20,76 20,91c0,14 11,42 24,62c14,20 30,64 36,98c10,55 9,65 -5,81c-21,23 -13,54 25,95c15,17 31,46 35,65c4,19 12,41 17,48c7,8 7,26 -2,57c-11,40 -16,45 -41,45c-15,0 -31,5 -34,10c-3,6 -16,10 -29,10c-13,0 -31,9 -41,20c-16,18 -19,18 -43,2c-14,-9 -40,-49 -62,-97c-40,-86 -76,-125 -137,-147c-27,-10 -41,-23 -54,-53c-16,-34 -16,-42 -4,-51c12,-9 12,-16 0,-50c-8,-21 -14,-45 -15,-53c0,-8 -14,-26 -31,-41c-31,-25 -31,-26 -16,-57c9,-17 24,-33 33,-37c12,-5 15,-14 10,-39c-4,-23 0,-42 15,-66c18,-31 19,-35 5,-43c-9,-5 -16,-20 -16,-33c0,-13 -5,-27 -11,-31c-14,-8 -29,14 -29,42c0,12 -22,50 -50,85c-27,35 -58,77 -67,93c-29,48 -164,191 -178,188c-7,-1 -18,5 -25,13c-8,10 -21,13 -37,9c-22,-6 -24,-5 -15,13c7,12 7,25 1,34c-5,7 -9,24 -9,36c0,31 -21,73 -36,73c-7,0 -25,-5 -39,-12c-25,-11 -26,-15 -20,-57c4,-24 13,-50 21,-58c8,-8 14,-19 14,-24c0,-5 9,-9 20,-9c11,0 20,-4 20,-10c0,-5 -4,-10 -10,-10c-5,0 -10,-25 -10,-55c0,-48 -2,-55 -20,-55c-11,0 -20,-7 -20,-15c0,-9 -9,-15 -25,-15c-14,0 -28,-7 -31,-15c-4,-8 -10,-15 -15,-15c-16,0 -10,25 11,43c11,9 20,23 20,30c0,19 -36,50 -49,43c-5,-4 -31,-10 -58,-15c-44,-9 -49,-7 -82,21c-35,31 -53,33 -147,13c-36,-8 -46,1 -37,33c4,15 13,22 30,22c23,0 24,3 18,32c-10,45 -12,48 -44,48c-43,0 -91,-20 -91,-38c-1,-14 -3,-14 -16,3c-9,12 -28,20 -52,22c-161,9 -222,10 -222,2c0,-4 -7,-6 -15,-3c-8,4 -31,3 -50,0c-26,-5 -35,-12 -35,-26c0,-32 -32,-42 -78,-24c-36,15 -40,20 -46,61c-10,78 -9,81 30,89c29,5 40,2 60,-17l24,-23l22,21c14,14 22,39 26,71c4,42 0,56 -19,84c-56,80 -84,108 -110,108c-25,0 -26,-1 -21,-53c4,-49 2,-55 -22,-70c-14,-10 -26,-24 -26,-32c0,-9 -11,-20 -24,-26c-26,-12 -46,-47 -46,-80c0,-64 -80,-113 -110,-67c-8,12 -25,34 -36,48c-21,24 -24,24 -68,12c-39,-10 -51,-10 -74,2c-20,11 -33,11 -47,4c-10,-6 -40,-10 -67,-9l-48,1l0,-39c0,-22 -6,-44 -15,-51c-9,-7 -14,-22 -13,-34c2,-16 -2,-20 -17,-18c-11,2 -24,10 -30,19c-5,9 -20,28 -32,43c-15,19 -27,53 -35,104c-11,73 -13,76 -38,76c-41,0 -70,-38 -70,-93c0,-25 4,-49 10,-52c18,-11 11,-50 -11,-64c-20,-12 -25,-10 -57,23c-33,32 -35,37 -23,60c11,20 11,32 -2,69c-14,42 -14,47 3,62c10,9 21,33 25,53c8,42 40,82 67,82c35,0 83,114 60,143c-13,16 -3,77 13,77c7,0 16,-16 19,-35c9,-46 69,-177 90,-194c9,-7 16,-28 16,-47c0,-37 33,-68 110,-103c59,-27 172,-20 208,13c65,58 106,203 69,244c-20,23 -29,72 -31,179c-1,75 -4,93 -24,117c-12,16 -22,39 -22,53c0,13 -7,26 -15,29c-8,4 -15,16 -15,28c0,11 -13,32 -29,46c-16,14 -31,39 -35,58c-5,30 6,44 19,22c3,-5 15,-15 26,-21c20,-10 20,-8 13,38c-8,53 -16,63 -58,63c-25,0 -28,2 -22,27c7,26 7,26 -18,9c-18,-11 -31,-13 -43,-7c-10,5 -41,14 -69,21c-50,11 -54,10 -128,-27l-76,-37l0,-54c0,-29 -7,-66 -15,-82c-14,-28 -20,-30 -69,-30c-50,0 -56,-3 -90,-40c-20,-22 -36,-47 -36,-57c0,-9 -16,-44 -35,-79c-25,-44 -40,-61 -50,-58c-8,3 -34,-8 -57,-25c-23,-17 -50,-31 -60,-31c-14,0 -18,-8 -18,-35c0,-22 -6,-38 -15,-41c-8,-4 -15,-18 -15,-34c0,-36 -29,-60 -72,-60c-35,0 -35,0 -42,-52c-3,-29 -6,-72 -6,-96c0,-65 -16,-69 -312,-73c-137,-2 -248,-6 -248,-8c0,-3 10,-15 22,-28c18,-19 21,-33 19,-75c-2,-43 1,-54 19,-68c15,-11 21,-24 18,-41l-4,-24l-12,28c-7,17 -26,34 -47,43c-19,8 -35,18 -35,23c0,4 -12,13 -27,20c-25,11 -30,10 -48,-11c-11,-13 -33,-24 -50,-25c-72,-5 -104,-16 -129,-44c-15,-16 -32,-29 -40,-29c-8,0 -19,-13 -25,-30c-7,-22 -16,-30 -34,-30c-29,0 -57,-29 -57,-57c0,-15 -12,-27 -40,-40c-33,-15 -40,-22 -37,-41c3,-16 -7,-36 -29,-64c-40,-47 -41,-58 -13,-108c18,-32 20,-43 11,-69c-10,-27 -8,-31 11,-37c35,-10 57,-35 57,-63c-1,-28 -47,-85 -77,-95c-13,-4 -27,-32 -47,-94c-16,-48 -32,-94 -37,-104c-5,-11 -3,-21 7,-29c16,-13 12,-74 -6,-93c-15,-16 -55,3 -72,34c-21,37 -56,38 -74,2c-6,-13 -25,-38 -42,-55c-51,-54 -56,-73 -31,-108c16,-23 27,-29 43,-25c15,4 26,-1 33,-14c7,-10 22,-20 35,-22c52,-7 60,-121 10,-143c-12,-5 -25,-17 -27,-26c-3,-10 -13,-20 -21,-23c-13,-5 -11,-13 11,-49c31,-54 32,-84 1,-126c-26,-35 -25,-64 4,-84c9,-7 20,-22 24,-34c4,-12 27,-38 52,-58c43,-36 45,-39 43,-85c-2,-43 1,-53 34,-89c20,-23 37,-47 37,-55c0,-7 7,-19 15,-26c8,-7 15,-22 15,-34c0,-12 5,-27 11,-33c20,-20 0,-53 -33,-53c-38,0 -98,-54 -99,-90c0,-15 -11,-34 -30,-49l-30,-24l-39,38c-31,30 -46,37 -83,40c-48,3 -102,-21 -113,-50c-6,-15 31,-54 52,-55c5,0 19,-7 30,-16c19,-15 19,-15 -2,-9c-11,3 -41,7 -66,9c-25,2 -57,11 -71,21c-42,27 -61,14 -53,-40l7,-45l-54,0c-41,0 -61,-5 -82,-22l-28,-22l-18,22c-20,26 -51,28 -70,6c-21,-26 -20,-109 2,-138c10,-13 19,-37 19,-53c0,-16 9,-46 20,-68c15,-30 20,-59 20,-123c0,-82 10,-122 31,-122c26,0 119,-131 119,-167c0,-7 17,-24 38,-38c42,-28 92,-96 92,-125c0,-10 7,-23 15,-30c8,-7 15,-27 15,-45c0,-36 21,-59 62,-69c15,-3 35,-17 44,-31c9,-14 23,-25 30,-25c8,0 14,-5 14,-12c0,-6 7,-19 16,-29c13,-15 14,-23 4,-51c-11,-29 -10,-38 9,-68c11,-19 21,-45 21,-58c0,-12 6,-25 13,-28c8,-3 22,-41 33,-86c14,-61 24,-82 39,-88c28,-11 127,-5 153,9c24,13 29,49 23,188c-3,60 1,79 20,112c12,23 26,41 31,41c4,0 8,5 8,12c0,6 7,19 15,28c9,10 18,40 22,69c5,41 2,55 -12,71c-28,31 -13,47 53,55c50,6 65,12 98,44l38,38l31,-18c40,-25 185,-27 209,-3c20,20 20,21 -4,51c-28,35 -27,58 1,41c17,-11 22,-10 35,7c11,15 13,39 8,110c-6,84 -9,92 -40,125c-31,34 -32,37 -22,76c10,37 9,44 -11,70l-23,29l27,22c14,13 35,23 46,23c30,0 59,18 59,37c0,25 50,73 76,73c12,0 31,11 42,25c11,14 27,25 35,25c13,0 15,-9 10,-47c-6,-55 11,-79 61,-85c25,-3 32,3 51,37c21,36 27,40 66,43c24,2 52,11 62,20c15,13 23,14 52,3c38,-13 70,-8 98,17c25,22 51,5 57,-39c5,-32 7,-34 46,-34c41,0 74,-17 74,-39c0,-6 16,-20 37,-31c31,-17 39,-30 60,-95c20,-61 22,-78 12,-96c-6,-13 -9,-30 -6,-38c8,-21 43,-20 57,2c9,16 11,16 27,-4c10,-12 23,-30 29,-40c12,-21 78,-23 114,-4c17,9 27,7 53,-9c18,-11 37,-29 44,-40c11,-17 16,-18 47,-9c42,13 66,-1 66,-38c0,-13 16,-46 36,-74c30,-42 41,-50 68,-50c18,0 37,5 42,10c7,7 17,0 32,-20c20,-26 29,-30 73,-30c46,0 55,4 85,37c39,42 40,46 19,63c-8,7 -15,18 -15,25c0,7 -16,32 -35,54c-39,48 -37,70 6,69c40,-1 61,21 62,68c2,36 5,39 33,42c20,2 36,-4 49,-18c23,-25 47,-26 70,0c18,20 18,21 -11,53c-29,31 -32,45 -25,115c2,19 35,14 74,-12c29,-20 51,-25 128,-29c52,-3 114,-10 139,-17c58,-15 87,-15 116,1c18,9 30,10 49,1c14,-7 52,-12 83,-12c31,0 63,-4 70,-8c16,-10 117,9 134,26c16,16 40,15 64,-3c10,-8 31,-15 45,-15c15,0 29,-6 32,-14c3,-7 21,-16 40,-20c23,-4 37,-13 40,-27c7,-26 -3,-90 -16,-106c-5,-7 -6,-24 -3,-37c7,-29 54,-43 85,-27c25,14 34,1 25,-33c-5,-22 -2,-27 21,-36c19,-7 31,-7 40,0c8,7 22,6 44,-3l32,-13l-24,-11c-23,-11 -42,-58 -30,-76c3,-5 22,-7 42,-5c20,3 44,0 53,-6c13,-7 26,-6 53,7c20,9 42,17 49,17c7,0 21,9 31,20c12,13 31,20 55,20c22,0 48,8 62,20c24,18 38,18 38,-2c0,-5 -11,-13 -25,-18c-35,-13 -35,-57 0,-70c14,-5 34,-24 43,-42c9,-17 31,-47 48,-67c36,-42 54,-89 54,-141c0,-21 7,-43 15,-50c8,-7 15,-24 15,-39c0,-14 9,-41 20,-59c11,-18 20,-39 20,-47c0,-24 31,-109 46,-126c20,-22 63,-12 76,17c15,32 48,32 48,0c0,-31 52,-76 80,-69c11,3 26,0 34,-6c16,-14 71,-4 87,15c6,8 19,14 28,13c27,-1 106,-64 109,-87c2,-12 25,-44 52,-72c27,-28 50,-61 52,-73c2,-17 15,-26 58,-40c50,-16 58,-16 94,-2c21,9 39,15 41,13c1,-2 12,-22 25,-45c31,-56 75,-66 124,-28c23,17 45,25 73,25c25,0 46,6 53,16c8,8 28,21 47,29c18,8 33,21 33,29c0,9 8,16 19,16c10,0 25,8 32,17c24,29 102,73 130,73c18,0 28,6 32,20c3,13 14,20 30,20c13,0 30,7 37,15c17,20 24,19 60,-11c27,-23 34,-25 56,-15c39,17 50,14 104,-34c60,-54 97,-64 245,-71l114,-6l51,44c40,35 50,49 50,74c0,17 -7,37 -15,44c-8,7 -15,25 -15,40c0,15 -7,33 -15,40c-18,15 -10,56 16,86c11,11 19,25 19,30c0,6 13,23 29,38c28,27 31,27 52,12c13,-9 42,-16 65,-16c27,0 47,-6 58,-19c14,-16 23,-17 56,-9c79,20 133,-9 182,-101c20,-36 85,-70 135,-71c57,0 137,22 161,44c32,28 152,46 202,29c19,-7 61,-12 92,-12c52,-1 60,-4 79,-31c33,-43 68,-51 179,-40c184,20 182,19 225,61c22,21 56,45 75,53c49,20 120,84 120,107c0,23 63,95 100,114c23,12 31,11 67,-5l40,-18l51,28c47,26 57,27 114,20c99,-11 164,18 193,87c8,19 25,37 40,43c34,13 34,58 -1,110c-23,34 -25,44 -16,67c6,16 13,58 17,96c3,37 10,78 16,90c15,34 -4,97 -41,132c-26,25 -33,28 -50,17c-24,-15 -24,-13 -3,56c15,45 25,60 58,81c23,14 62,43 88,65c49,40 93,54 192,62c28,2 79,6 115,10c60,5 69,3 108,-22c23,-15 42,-34 42,-41c0,-8 13,-19 28,-26c44,-19 110,-77 116,-102c4,-16 16,-26 36,-30c30,-7 114,-81 143,-126c21,-34 71,-45 120,-24c19,8 38,19 42,25c8,13 120,13 169,-1c27,-8 41,-8 49,0c6,6 18,11 27,11c23,0 70,-52 70,-78c0,-15 12,-28 40,-42c51,-26 90,-26 97,0c3,11 10,20 17,20c6,0 35,16 63,35c46,31 52,38 47,63c-4,20 4,43 30,87c68,117 74,119 130,57c33,-37 38,-46 28,-60c-23,-32 -24,-43 -6,-63c22,-24 46,-85 48,-120c0,-14 6,-32 12,-40c14,-17 25,-69 28,-124c1,-22 7,-49 13,-61c17,-29 -8,-64 -46,-64c-37,0 -81,-35 -81,-64c0,-12 -11,-33 -25,-46c-35,-33 -34,-75 2,-92c15,-7 37,-28 48,-46c11,-19 39,-56 63,-83c46,-55 52,-83 27,-142c-22,-53 -19,-76 11,-87c46,-18 60,9 71,133c4,47 7,56 18,47c17,-14 35,-5 35,18c0,12 3,13 12,4c17,-17 38,-15 86,8c22,11 50,20 60,20c13,0 28,20 52,67c18,38 41,80 51,94c16,23 18,49 18,255c0,143 4,248 12,277c13,55 1,162 -32,274c-27,92 -41,199 -39,311c2,90 1,93 -29,128c-17,19 -38,51 -46,71c-18,44 -60,102 -134,186c-63,72 -78,105 -89,187c-10,71 -9,71 78,33c43,-18 66,-35 76,-55c9,-16 48,-64 88,-106c78,-83 115,-132 133,-174c7,-15 33,-38 62,-53c36,-20 59,-43 85,-84c19,-31 48,-69 65,-85c17,-17 31,-37 31,-46c0,-8 27,-42 60,-75c50,-50 63,-58 78,-49c26,17 25,36 -3,78c-14,21 -25,48 -23,59c4,26 52,41 90,28c49,-17 54,24 7,63c-34,29 -58,33 -78,14c-10,-11 -16,-9 -28,10c-9,12 -24,22 -34,22c-10,0 -21,5 -24,10c-3,6 -19,10 -34,10c-17,0 -43,13 -69,36c-33,28 -42,42 -42,67c0,18 -11,49 -25,69c-28,41 -35,108 -11,108c21,0 66,40 66,58c0,10 -16,25 -38,35c-56,27 -127,70 -146,90c-10,10 -34,27 -55,38c-20,11 -52,31 -71,45c-19,14 -47,28 -61,31c-34,6 -91,64 -122,123c-17,33 -31,46 -55,52c-18,5 -39,20 -48,33c-9,14 -25,25 -35,25c-10,0 -28,14 -41,30c-21,29 -91,60 -104,47c-4,-3 -3,-22 0,-42c6,-28 11,-35 30,-35c15,0 33,-13 50,-35l27,-35l-24,0c-21,0 -25,-6 -31,-40c-5,-31 -12,-43 -32,-50c-34,-13 -77,-13 -91,1c-7,7 -36,10 -75,7c-48,-3 -73,-11 -106,-32l-42,-29l30,-55c36,-67 36,-70 8,-74c-13,-2 -27,-13 -33,-26c-12,-27 -25,-29 -25,-3c0,11 -14,33 -31,51c-25,24 -34,28 -45,19c-16,-13 -19,-55 -4,-64c6,-3 10,-14 10,-23c-1,-21 -43,27 -66,76c-9,17 -19,32 -23,32c-4,0 -20,-14 -36,-30c-16,-16 -35,-30 -44,-30c-8,0 -22,-7 -32,-16c-10,-9 -23,-13 -28,-9c-14,8 -3,112 14,140c23,38 44,257 26,279c-15,18 -3,241 15,277c11,23 10,28 -9,47c-28,28 -29,92 -3,121c19,20 19,23 3,57c-30,63 -19,115 42,192c65,82 115,132 133,132c10,0 32,7 49,15c28,15 28,17 14,39c-16,24 -11,36 15,36c23,0 84,65 75,80c-5,8 -3,11 6,8c8,-3 24,4 36,14l22,20l-21,28c-26,36 -16,67 28,86c19,8 34,18 34,23c0,8 84,61 96,61c2,0 4,-12 4,-26c0,-32 21,-54 54,-54c21,0 27,7 37,43c7,23 21,49 32,58c17,14 19,24 14,62c-6,44 -5,46 21,49c20,2 28,9 30,28c2,14 9,30 16,35c7,6 15,22 18,38c5,24 2,27 -21,27c-14,0 -37,-9 -51,-20c-27,-20 -50,-12 -50,18c0,9 -9,25 -20,37c-14,15 -21,41 -26,95c-4,41 -13,84 -20,95c-8,11 -14,35 -14,55c0,24 -6,39 -20,48c-24,14 -28,76 -7,101c8,9 20,37 26,62c11,39 16,46 32,42c15,-4 23,2 32,26c11,30 27,42 27,21c0,-13 79,-100 91,-100c5,0 9,12 10,28c0,25 2,24 18,-13l18,-40l13,41c7,23 10,62 6,90c-15,127 -19,150 -27,158c-14,15 -11,26 6,26c10,0 15,10 15,30c0,24 -4,30 -22,30c-13,0 -42,18 -64,40c-37,34 -41,42 -35,71c7,37 31,52 31,19c0,-26 89,-117 123,-125c14,-4 37,-25 52,-48c22,-34 26,-48 20,-77c-4,-19 -9,-48 -12,-63c-3,-17 0,-34 10,-45c16,-18 87,-214 87,-241c0,-9 12,-34 27,-55c14,-22 36,-80 49,-130c19,-79 20,-93 8,-107c-9,-10 -12,-27 -8,-46c3,-18 1,-33 -5,-37c-6,-4 -11,-18 -11,-32c0,-17 6,-24 19,-24c21,0 51,-40 51,-68c0,-11 7,-25 15,-32c8,-7 15,-23 15,-36c0,-15 23,-49 65,-95c36,-39 65,-74 65,-79c0,-17 103,-73 187,-100c48,-16 95,-37 103,-47c23,-27 63,-51 153,-89c45,-20 91,-44 103,-55c11,-10 28,-19 38,-19c9,0 32,-11 50,-25c19,-14 46,-25 64,-25c21,0 37,-8 51,-26l21,-27l0,54c0,30 -7,81 -15,114c-8,33 -14,72 -15,86c0,20 -18,44 -68,91c-78,73 -84,85 -76,138c5,30 11,40 28,42c32,5 29,49 -4,58c-76,21 -121,69 -135,143c-6,36 -3,42 35,77c36,33 39,40 31,63c-14,37 -55,61 -90,54c-19,-4 -33,-1 -41,7c-6,8 -21,17 -34,20c-24,6 -66,65 -66,92c0,8 7,17 16,21c8,3 20,17 25,31c8,20 5,29 -12,49c-22,23 -72,32 -83,14c-16,-26 -106,30 -106,66c0,16 -68,90 -74,81c-24,-35 -44,-81 -40,-93c9,-23 -11,-18 -59,15c-49,33 -57,46 -57,92c0,25 -13,45 -60,94c-55,57 -59,65 -53,96c3,20 19,44 39,61c39,33 42,43 14,52c-11,4 -20,15 -20,26c0,11 -5,30 -11,42c-11,21 -11,21 7,6c10,-8 31,-20 47,-27c25,-11 27,-10 27,15c0,14 -9,41 -21,59c-17,28 -19,39 -10,70c7,25 7,42 0,50c-7,8 -2,23 15,49c14,20 28,45 31,56c8,23 46,34 73,20c16,-8 24,-6 42,15l24,24l-31,33c-32,33 -53,89 -53,141c0,15 -11,41 -25,57c-13,16 -27,46 -30,67c-4,20 -15,66 -26,101c-10,35 -19,87 -19,115c-1,28 -8,69 -16,91c-9,22 -17,50 -18,63c-2,12 -11,29 -22,37c-18,14 -18,14 4,15c16,0 26,9 34,30c6,19 19,32 34,36c19,5 24,13 24,39c0,18 -7,39 -16,46c-9,7 -20,24 -25,36c-7,19 -12,22 -27,14c-10,-6 -28,-7 -40,-4c-13,3 -33,-2 -48,-12c-14,-9 -28,-14 -31,-11c-4,3 -13,0 -21,-7c-12,-9 -16,-9 -19,1c-3,8 -26,12 -65,12c-52,0 -63,-3 -80,-25c-11,-14 -28,-25 -40,-25c-19,0 -19,0 2,35c19,31 20,40 10,87c-8,42 -21,64 -62,107c-49,50 -53,53 -90,47c-35,-6 -39,-4 -48,20c-6,15 -9,28 -8,29c10,8 88,11 101,4c11,-7 21,-2 37,18c18,23 21,36 16,74c-8,58 3,68 68,66c38,-2 51,2 60,17c36,60 55,80 86,90c28,9 36,18 47,54c7,26 9,52 4,65c-5,12 -7,33 -4,47l4,25l-27,-27l-27,-27l-43,47c-31,34 -43,42 -44,29c0,-14 -4,-16 -17,-9c-11,7 -17,23 -17,48c-1,33 -4,38 -20,36c-16,-3 -18,-1 -8,10c9,12 7,19 -13,38c-14,13 -25,34 -25,47c0,26 -3,26 -42,9zm32,-986c0,-5 -9,-10 -21,-10c-11,0 -17,5 -14,10c3,6 13,10 21,10c8,0 14,-4 14,-10zm-20,-50c0,-5 -5,-10 -11,-10c-5,0 -7,5 -4,10c3,6 8,10 11,10c2,0 4,-4 4,-10zm-4334,-1318c-22,-5 -30,3 -21,18c5,8 11,7 22,-2c15,-12 14,-13 -1,-16zm240,-488c-5,-19 -2,-24 14,-24c31,0 24,-17 -19,-44c-22,-14 -42,-34 -46,-45c-3,-10 -18,-21 -33,-23c-15,-3 -36,-9 -47,-14c-18,-7 -18,-6 3,20c12,16 22,34 22,42c0,7 14,15 30,19c21,5 30,12 30,27c0,26 31,78 43,71c5,-3 6,-16 3,-29zm-1820,-495c8,-8 14,-20 14,-26c0,-6 6,-13 13,-16c8,-3 7,-7 -5,-12c-9,-4 -27,1 -42,10c-21,14 -26,25 -26,59c0,53 12,67 24,29c5,-15 15,-35 22,-44zm5833,-1451c6,-7 24,-29 41,-49c35,-42 39,-69 10,-69c-12,0 -26,12 -35,30c-10,19 -23,30 -36,30c-18,0 -20,2 -8,16c10,12 10,20 1,35c-10,15 -9,19 3,19c8,0 19,-6 24,-12z" fill="url(#svg_50)" id="svg_2"/>
   <path d="m10159,7085c-32,-21 -37,-30 -43,-77c-6,-47 -3,-60 19,-100c29,-53 58,-65 86,-37c10,10 20,22 20,27c17,96 13,182 -9,198c-23,18 -31,17 -73,-11z" fill="url(#svg_50)" id="svg_3"/>
   <path d="m4700,6268c-9,-18 -8,-30 4,-53c13,-24 13,-31 2,-37c-24,-14 -6,-58 30,-76c32,-15 47,-38 48,-72c1,-13 65,-43 75,-34c2,2 -7,13 -20,24c-20,16 -22,21 -9,29c12,8 12,13 -4,30c-11,12 -25,21 -33,21c-8,0 -11,5 -8,10c3,6 28,10 54,10c55,0 93,28 72,54c-9,11 -4,19 26,42c37,28 37,28 13,35c-40,11 -50,10 -50,-6c0,-9 -9,-15 -24,-15c-14,0 -28,-5 -31,-10c-4,-6 -15,0 -27,15c-12,15 -30,25 -45,25c-15,0 -34,7 -44,16c-17,15 -19,15 -29,-8zm70,-78c0,-5 -7,-10 -15,-10c-8,0 -15,5 -15,10c0,6 7,10 15,10c8,0 15,-4 15,-10z" fill="url(#svg_50)" id="svg_4"/>
   <path d="m5132,6190c3,-19 0,-30 -8,-30c-7,0 -10,8 -7,20c4,16 0,20 -21,20c-27,0 -28,-6 -2,-39c6,-7 11,-21 11,-30c0,-9 10,-17 22,-19c16,-2 23,3 26,20c4,23 4,23 6,1c1,-20 3,-21 26,-11c18,8 24,17 19,27c-3,9 -11,28 -16,44c-7,20 -17,27 -35,27c-22,0 -25,-3 -21,-30z" fill="url(#svg_50)" id="svg_5"/>
   <path d="m5294,6168c3,-7 9,-21 12,-30c4,-10 15,-18 25,-18c14,0 19,7 19,30c0,27 -3,30 -31,30c-21,0 -29,-4 -25,-12z" fill="url(#svg_50)" id="svg_6"/>
   <path d="m5040,6155c0,-9 -9,-15 -24,-15c-32,0 -42,-17 -23,-38c7,-9 17,-25 20,-34c4,-11 17,-18 32,-18c25,0 25,0 10,30c-9,17 -20,28 -25,25c-6,-3 -7,0 -4,8c8,23 44,8 44,-18c0,-23 32,-60 43,-48c13,12 7,40 -13,58c-11,10 -20,29 -20,42c0,16 -6,23 -20,23c-11,0 -20,-7 -20,-15z" fill="url(#svg_50)" id="svg_7"/>
   <path d="m4882,6094c4,-3 3,-15 -3,-26c-13,-25 4,-48 37,-48c17,0 22,4 18,15c-5,11 1,15 21,15c22,0 26,4 23,23c-3,19 -10,22 -53,25c-27,2 -46,0 -43,-4z" fill="url(#svg_50)" id="svg_8"/>
   <path d="m5181,6076c-6,-7 -8,-22 -4,-32c6,-18 6,-18 -14,-1c-20,18 -21,17 -47,-15c-19,-24 -26,-28 -26,-15c0,11 -8,17 -25,17c-14,0 -25,-4 -25,-9c0,-5 -14,-8 -31,-7c-32,1 -35,-3 -41,-48c-4,-26 62,-42 95,-24c26,14 66,17 73,6c10,-16 43,-8 73,18c22,19 31,22 31,11c0,-16 20,-27 48,-27c9,0 29,12 44,27c45,43 33,101 -15,70c-32,-20 -70,-28 -87,-17c-10,7 -11,10 -2,10c6,0 12,11 12,25c0,20 -5,25 -24,25c-13,0 -29,-6 -35,-14z" fill="url(#svg_50)" id="svg_9"/>
   <path d="m8471,6071c-14,-26 1,-53 25,-44c18,7 18,24 0,48c-13,18 -14,18 -25,-4z" fill="url(#svg_50)" id="svg_10"/>
   <path d="m6284,5923c-3,-11 -21,-27 -40,-38c-28,-15 -34,-24 -34,-51c0,-18 -5,-45 -12,-59c-9,-20 -8,-31 2,-53c8,-15 16,-31 19,-36c2,-5 -10,-6 -29,-3c-30,6 -32,5 -26,-16c3,-12 6,-30 6,-39c0,-23 59,-52 76,-37c9,7 14,8 14,1c0,-5 -7,-15 -15,-22c-17,-14 -3,-40 21,-40c8,0 19,-11 24,-25c5,-13 23,-31 40,-40c16,-8 30,-20 30,-26c0,-8 4,-8 14,0c12,10 20,9 40,-4c31,-21 67,-14 96,17c20,21 20,22 0,55c-11,19 -15,35 -9,38c5,4 8,31 6,62c-3,49 -7,57 -30,70c-15,8 -32,11 -37,8c-6,-3 -10,3 -10,14c0,12 -6,21 -14,21c-8,0 -17,7 -20,16c-10,25 -7,74 4,74c19,0 10,23 -24,60c-18,20 -35,42 -37,47c-2,6 -14,14 -27,18c-18,5 -25,3 -28,-12zm0,-278c-4,-8 -8,-15 -10,-15c-2,0 -4,7 -4,15c0,8 4,15 10,15c5,0 7,-7 4,-15z" fill="url(#svg_50)" id="svg_11"/>
   <path d="m5061,5917c-21,-21 -13,-47 14,-47c14,0 25,4 25,9c0,5 3,16 6,24c6,18 -30,29 -45,14z" fill="url(#svg_50)" id="svg_12"/>
   <path d="m6130,5905c-10,-13 -9,-19 5,-35c17,-19 19,-19 37,-4c26,25 23,54 -6,54c-13,0 -29,-7 -36,-15z" fill="url(#svg_50)" id="svg_13"/>
   <path d="m8727,5890c-26,-22 -37,-26 -45,-18c-9,9 -20,4 -46,-21c-30,-29 -37,-31 -56,-21c-20,11 -21,10 -15,-12c20,-65 73,-102 105,-73c9,8 28,15 42,15c45,0 91,40 101,88c15,75 -26,95 -86,42z" fill="url(#svg_50)" id="svg_14"/>
   <path d="m5768,5879c-23,-13 -23,-26 1,-39c15,-7 25,-5 43,9c12,11 21,21 18,24c-13,12 -47,15 -62,6z" fill="url(#svg_50)" id="svg_15"/>
   <path d="m8480,5773c-19,-3 -43,-12 -52,-20c-14,-12 -21,-13 -32,-4c-11,9 -22,9 -51,-3c-37,-16 -38,-19 -18,-71c4,-12 -76,-14 -95,-2c-8,6 -14,-1 -18,-23c-4,-17 -11,-33 -15,-36c-12,-7 -11,-51 1,-59c6,-3 10,-14 10,-24c0,-10 9,-21 19,-24c11,-2 21,-15 23,-27c3,-25 14,-32 73,-50c62,-18 107,-10 115,20c12,44 59,110 74,104c20,-8 58,46 53,74c-2,12 0,25 4,28c14,8 10,41 -6,58c-8,8 -15,26 -15,40c0,27 1,27 -70,19z" fill="url(#svg_50)" id="svg_16"/>
   <path d="m5625,5636c-19,-14 -19,-15 5,-35c14,-11 28,-20 31,-21c14,0 17,43 4,56c-17,17 -17,17 -40,0z" fill="url(#svg_50)" id="svg_17"/>
   <path d="m6567,5572c-9,-10 -19,-44 -23,-75c-4,-32 -11,-60 -15,-63c-5,-3 -9,-22 -9,-42c0,-20 -4,-54 -9,-74c-7,-32 -6,-38 9,-43c11,-3 34,5 56,20c21,14 49,28 63,32c42,9 90,43 106,72c13,25 12,32 -7,69c-11,23 -24,39 -29,36c-6,-3 -19,6 -31,21c-11,14 -26,24 -33,21c-8,-3 -16,5 -19,20c-8,29 -36,32 -59,6z" fill="url(#svg_50)" id="svg_18"/>
   <path d="m8155,5500c-3,-5 -1,-17 4,-27c5,-10 12,-26 15,-35c3,-10 15,-18 26,-18c23,0 28,37 10,71c-11,20 -45,26 -55,9z" fill="url(#svg_50)" id="svg_19"/>
   <path d="m8634,5429c-33,-35 -42,-36 -46,-7c-3,26 -32,35 -53,18c-21,-17 -19,-43 6,-74c20,-25 22,-26 34,-10c11,16 13,16 26,-7c7,-13 12,-31 11,-40c-2,-9 4,-21 12,-28c12,-10 16,-8 21,8c4,12 24,26 53,36c26,8 58,24 71,34c22,17 23,19 7,49c-12,23 -24,32 -41,32c-13,0 -35,4 -48,9c-21,8 -29,5 -53,-20z" fill="url(#svg_50)" id="svg_20"/>
   <path d="m6764,5384c3,-18 42,-43 68,-44c23,0 31,16 18,40c-14,26 -90,30 -86,4z" fill="url(#svg_50)" id="svg_21"/>
   <path d="m8325,5259c-4,-6 -5,-11 -4,-13c49,-32 61,-37 74,-26c23,19 1,50 -35,50c-16,0 -32,-5 -35,-11z" fill="url(#svg_50)" id="svg_22"/>
   <path d="m5080,5212c-25,-13 -53,-31 -62,-39c-22,-19 -123,-11 -148,12c-22,19 -44,19 -61,-1c-10,-12 -25,-15 -56,-11c-48,5 -102,-10 -132,-37c-14,-13 -28,-16 -46,-12c-18,5 -25,2 -25,-9c0,-18 -12,-19 -27,-4c-17,17 -33,1 -31,-29c3,-37 -8,-52 -39,-52c-15,0 -23,-3 -20,-6c11,-11 -71,-63 -119,-76c-52,-14 -66,-34 -39,-54c10,-8 13,-14 7,-14c-7,0 -12,-6 -12,-14c0,-10 -11,-12 -45,-8c-43,4 -45,3 -45,-21c0,-19 -4,-25 -14,-21c-8,3 -26,-2 -41,-12c-24,-16 -25,-19 -11,-29c14,-11 14,-14 -3,-29c-10,-9 -41,-19 -69,-23c-54,-6 -72,-22 -85,-72c-5,-19 1,-32 30,-58c44,-42 59,-94 32,-117c-11,-9 -19,-24 -19,-34c0,-20 69,-92 88,-92c7,0 12,-4 12,-9c0,-5 10,-11 23,-13c14,-2 23,-11 25,-25c3,-22 4,-22 38,-6c37,18 41,34 20,73c-10,16 -11,32 -5,48c5,14 5,30 0,40c-12,23 -2,109 15,123c8,6 14,17 14,25c0,7 9,15 19,19c12,3 21,17 23,33c2,22 9,28 33,30c21,2 36,13 53,37c12,19 28,35 36,35c7,0 19,7 26,15c9,11 16,13 24,5c16,-16 26,-12 26,10c0,11 7,20 15,20c8,0 15,4 15,10c0,5 18,22 40,36c22,15 40,33 40,41c0,9 6,13 15,9c8,-3 15,-1 15,4c0,6 16,10 36,10c46,0 75,16 67,36c-8,20 13,34 53,34c17,0 37,7 44,15c9,11 33,15 86,15c40,0 75,4 79,10c4,6 14,5 29,-1c18,-8 30,-7 54,5c17,9 42,16 54,16c14,0 39,15 61,38c28,29 37,46 37,72c-1,71 -54,92 -130,52z" fill="url(#svg_50)" id="svg_23"/>
   <path d="m6866,5223c-8,-21 8,-38 28,-30c22,8 20,24 -3,36c-15,8 -20,7 -25,-6z" fill="url(#svg_50)" id="svg_24"/>
   <path d="m6086,5114c-4,-9 -1,-23 6,-31c11,-13 15,-12 30,7c10,12 18,26 18,31c0,16 -48,9 -54,-7z" fill="url(#svg_50)" id="svg_25"/>
   <path d="m6395,5110c-10,-11 -25,-20 -34,-20c-12,0 -11,-5 6,-22c22,-21 23,-21 43,-3c20,18 28,65 12,65c-5,0 -17,-9 -27,-20z" fill="url(#svg_50)" id="svg_26"/>
   <path d="m11727,5068c-22,-12 -23,-90 -2,-108c8,-7 15,-21 15,-31c0,-11 13,-25 31,-35l32,-16l-7,38c-4,22 -8,63 -9,93c-2,44 -6,55 -23,61c-11,5 -28,4 -37,-2z" fill="url(#svg_50)" id="svg_27"/>
   <path d="m12564,4969c-30,-11 -39,-28 -22,-45c12,-12 18,-10 42,15c29,31 20,45 -20,30z" fill="url(#svg_50)" id="svg_28"/>
   <path d="m5771,4886c-17,-20 12,-40 46,-31l28,7l-25,19c-30,22 -34,23 -49,5z" fill="url(#svg_50)" id="svg_29"/>
   <path d="m12390,4870c-7,-4 -9,-16 -5,-29c5,-18 14,-21 59,-21c40,0 57,5 71,20c10,11 15,23 12,27c-10,9 -122,12 -137,3z" fill="url(#svg_50)" id="svg_30"/>
   <path d="m5736,4777c-21,-16 -14,-57 10,-57c20,0 29,26 18,51c-8,17 -11,18 -28,6z" fill="url(#svg_50)" id="svg_31"/>
   <path d="m7242,4747c-24,-25 -29,-57 -10,-57c6,0 19,-7 28,-15c16,-14 20,-13 49,10c22,19 31,36 31,56c0,27 -3,29 -38,29c-27,0 -45,-7 -60,-23z" fill="url(#svg_50)" id="svg_32"/>
   <path d="m5888,4611c-15,-15 -12,-35 8,-60c7,-8 34,22 34,39c0,29 -22,40 -42,21z" fill="url(#svg_50)" id="svg_33"/>
   <path d="m5090,4552c0,-5 -12,-14 -26,-21c-15,-7 -24,-17 -21,-25c3,-7 1,-18 -4,-23c-18,-18 20,-46 54,-39c16,3 36,6 43,6c21,0 17,26 -11,70c-25,39 -35,48 -35,32z" fill="url(#svg_50)" id="svg_34"/>
   <path d="m5737,4533c-13,-12 -7,-33 10,-33c9,0 25,-7 35,-17c17,-15 18,-15 18,14c0,19 -6,33 -16,37c-20,8 -39,8 -47,-1z" fill="url(#svg_50)" id="svg_35"/>
   <path d="m5340,4475c-16,-19 6,-51 24,-36c7,6 22,8 34,4c25,-6 27,-1 12,28c-13,23 -52,25 -70,4z" fill="url(#svg_50)" id="svg_36"/>
   <path d="m3536,4365c-49,-63 -5,-113 86,-99c53,9 64,37 36,93c-18,37 -24,41 -58,41c-31,0 -42,-6 -64,-35z" fill="url(#svg_50)" id="svg_37"/>
   <path d="m2384,4365c-4,-8 -1,-22 6,-30c11,-14 15,-14 32,2c18,16 18,18 2,30c-23,17 -33,16 -40,-2z" fill="url(#svg_50)" id="svg_38"/>
   <path d="m5504,4325c-6,-24 9,-55 27,-55c5,0 16,11 25,25c13,20 14,28 4,40c-20,24 -49,18 -56,-10z" fill="url(#svg_50)" id="svg_39"/>
   <path d="m84,4296c-11,-9 -30,-12 -47,-9c-26,5 -27,4 -18,-18c36,-93 70,-152 118,-207l55,-62l41,22c56,31 69,67 39,108c-14,18 -22,44 -22,68c0,31 -5,43 -24,55c-21,14 -25,14 -39,0c-15,-15 -17,-15 -23,3c-10,26 -35,54 -49,54c-6,0 -20,-6 -31,-14z" fill="url(#svg_50)" id="svg_40"/>
   <path d="m12516,3535c-15,-23 -15,-27 0,-50c11,-17 15,-37 11,-59c-7,-43 22,-77 48,-56c8,7 15,22 15,34c0,12 5,27 11,33c8,8 5,22 -10,49c-11,22 -22,47 -25,57c-8,25 -31,21 -50,-8z" fill="url(#svg_50)" id="svg_41"/>
   <path d="m12600,3276c0,-13 7,-29 16,-36c12,-11 18,-10 32,4c16,16 16,18 -8,36c-33,26 -40,25 -40,-4z" fill="url(#svg_50)" id="svg_42"/>
   <path d="m12750,2725c0,-42 2,-45 26,-45c20,0 25,4 20,16c-3,9 -6,29 -6,45c0,22 -5,29 -20,29c-17,0 -20,-7 -20,-45z" fill="url(#svg_50)" id="svg_43"/>
   <path d="m10640,2671c0,-6 -6,-11 -14,-11c-21,0 -34,-21 -38,-60c-3,-30 0,-35 19,-35c12,0 25,-4 29,-8c12,-12 44,25 44,50c0,14 -9,36 -20,50c-11,14 -20,21 -20,14z" fill="url(#svg_50)" id="svg_44"/>
   <path d="m12738,2483c-10,-18 -15,-47 -14,-78c2,-46 5,-50 27,-50c23,0 24,4 29,78c4,65 3,77 -10,77c-9,0 -23,-12 -32,-27z" fill="url(#svg_50)" id="svg_45"/>
   <path d="m12696,2251c-9,-14 4,-41 19,-41c15,0 28,27 19,41c-3,5 -11,9 -19,9c-8,0 -16,-4 -19,-9z" fill="url(#svg_50)" id="svg_46"/>
   <path d="m12654,2169c-12,-19 -5,-152 9,-161c22,-14 32,-2 34,43c2,24 6,57 9,73c5,22 2,32 -11,43c-23,16 -32,16 -41,2z" fill="url(#svg_50)" id="svg_47"/>
   <path d="m12617,1913c-16,-4 -17,-11 -12,-46c13,-77 44,-75 48,3c2,44 -4,51 -36,43z" fill="url(#svg_50)" id="svg_48"/>
   <path d="m12724,1879c-10,-17 23,-46 37,-32c7,7 9,19 6,27c-7,18 -33,21 -43,5z" fill="url(#svg_50)" id="svg_49"/>
  </g>
 </g>
</svg>